<?xml version="1.0" standalone="no"?>
<!DOCTYPE svg PUBLIC "-//W3C//DTD SVG 20010904//EN"
 "http://www.w3.org/TR/2001/REC-SVG-20010904/DTD/svg10.dtd">
<svg version="1.0" xmlns="http://www.w3.org/2000/svg"
 width="946.000000pt" height="72.000000pt" viewBox="0 0 946.000000 72.000000"
 preserveAspectRatio="xMidYMid meet">

<g transform="translate(0.000000,72.000000) scale(0.100000,-0.100000)"
fill="#000000" stroke="none">
<path d="M27 713 c-4 -3 -7 -161 -7 -350 l0 -343 581 0 c384 0 578 -3 574 -10
-4 -7 83 -10 255 -10 172 0 259 3 255 10 -4 7 507 10 1525 10 1018 0 1529 -3
1525 -10 -3 -5 -2 -10 4 -10 5 0 13 5 16 10 4 7 795 10 2341 10 l2334 0 0 350
0 350 -4698 0 c-2584 0 -4702 -3 -4705 -7z m9393 -348 l0 -335 -4690 0 -4690
0 0 335 0 335 4690 0 4690 0 0 -335z"/>
<path d="M1927 590 c3 -11 7 -20 9 -20 2 0 4 9 4 20 0 11 -4 20 -9 20 -5 0 -7
-9 -4 -20z"/>
<path d="M1960 590 c0 -11 2 -20 4 -20 2 0 6 9 9 20 3 11 1 20 -4 20 -5 0 -9
-9 -9 -20z"/>
<path d="M3377 590 c3 -11 7 -20 9 -20 2 0 4 9 4 20 0 11 -4 20 -9 20 -5 0 -7
-9 -4 -20z"/>
<path d="M3410 590 c0 -11 2 -20 4 -20 2 0 6 9 9 20 3 11 1 20 -4 20 -5 0 -9
-9 -9 -20z"/>
<path d="M4350 590 c0 -11 2 -20 4 -20 2 0 6 9 9 20 3 11 1 20 -4 20 -5 0 -9
-9 -9 -20z"/>
<path d="M4380 590 c0 -11 5 -20 10 -20 6 0 10 9 10 20 0 11 -4 20 -10 20 -5
0 -10 -9 -10 -20z"/>
<path d="M4700 590 c0 -11 5 -20 10 -20 6 0 10 9 10 20 0 11 -4 20 -10 20 -5
0 -10 -9 -10 -20z"/>
<path d="M4742 590 c0 -14 2 -19 5 -12 2 6 2 18 0 25 -3 6 -5 1 -5 -13z"/>
<path d="M5787 590 c3 -11 7 -20 9 -20 2 0 4 9 4 20 0 11 -4 20 -9 20 -5 0 -7
-9 -4 -20z"/>
<path d="M5820 590 c0 -11 2 -20 4 -20 2 0 6 9 9 20 3 11 1 20 -4 20 -5 0 -9
-9 -9 -20z"/>
<path d="M6160 590 c0 -11 5 -20 10 -20 6 0 10 9 10 20 0 11 -4 20 -10 20 -5
0 -10 -9 -10 -20z"/>
<path d="M6190 590 c0 -11 5 -20 10 -20 6 0 10 9 10 20 0 11 -4 20 -10 20 -5
0 -10 -9 -10 -20z"/>
<path d="M7070 590 c0 -11 5 -20 10 -20 6 0 10 9 10 20 0 11 -4 20 -10 20 -5
0 -10 -9 -10 -20z"/>
<path d="M7100 590 c0 -11 5 -20 10 -20 6 0 10 9 10 20 0 11 -4 20 -10 20 -5
0 -10 -9 -10 -20z"/>
<path d="M7520 590 c0 -11 2 -20 4 -20 2 0 6 9 9 20 3 11 1 20 -4 20 -5 0 -9
-9 -9 -20z"/>
<path d="M7550 590 c0 -11 5 -20 10 -20 6 0 10 9 10 20 0 11 -4 20 -10 20 -5
0 -10 -9 -10 -20z"/>
<path d="M8730 590 c0 -11 5 -20 10 -20 6 0 10 9 10 20 0 11 -4 20 -10 20 -5
0 -10 -9 -10 -20z"/>
<path d="M8772 590 c0 -14 2 -19 5 -12 2 6 2 18 0 25 -3 6 -5 1 -5 -13z"/>
<path d="M9030 590 c0 -11 5 -20 10 -20 6 0 10 9 10 20 0 11 -4 20 -10 20 -5
0 -10 -9 -10 -20z"/>
<path d="M9072 590 c0 -14 2 -19 5 -12 2 6 2 18 0 25 -3 6 -5 1 -5 -13z"/>
<path d="M860 590 c0 -5 5 -10 10 -10 6 0 10 5 10 10 0 6 -4 10 -10 10 -5 0
-10 -4 -10 -10z"/>
<path d="M2130 590 c0 -5 5 -10 10 -10 6 0 10 5 10 10 0 6 -4 10 -10 10 -5 0
-10 -4 -10 -10z"/>
<path d="M2190 510 c0 -53 4 -90 10 -90 6 0 10 37 10 90 0 53 -4 90 -10 90 -6
0 -10 -37 -10 -90z"/>
<path d="M3000 590 c0 -5 5 -10 10 -10 6 0 10 5 10 10 0 6 -4 10 -10 10 -5 0
-10 -4 -10 -10z"/>
<path d="M3720 590 c0 -5 5 -10 10 -10 6 0 10 5 10 10 0 6 -4 10 -10 10 -5 0
-10 -4 -10 -10z"/>
<path d="M3880 563 c0 -29 -3 -34 -12 -25 -33 33 -98 0 -98 -49 0 -54 45 -83
91 -59 13 7 19 7 19 0 0 -5 5 -10 10 -10 6 0 10 37 10 90 0 53 -4 90 -10 90
-5 0 -10 -17 -10 -37z m-2 -72 c4 -28 -14 -51 -42 -51 -47 0 -63 57 -24 84 19
13 25 14 43 2 11 -7 21 -23 23 -35z"/>
<path d="M4030 510 c0 -53 4 -90 10 -90 6 0 10 22 10 50 0 38 4 52 19 60 25
13 27 13 45 -6 10 -9 16 -33 16 -60 0 -26 5 -44 11 -44 16 0 6 94 -12 116 -9
11 -23 14 -46 11 -31 -5 -33 -4 -33 24 0 16 -4 29 -10 29 -6 0 -10 -37 -10
-90z"/>
<path d="M4600 592 c-27 -8 -40 -35 -40 -84 0 -35 6 -54 20 -68 24 -24 38 -25
68 -4 18 13 22 25 22 73 0 35 -5 62 -12 68 -19 15 -41 21 -58 15z m37 -24 c29
-37 17 -128 -15 -128 -29 0 -42 21 -42 70 0 60 31 91 57 58z"/>
<path d="M4850 510 c0 -53 4 -90 10 -90 6 0 10 22 10 50 0 40 4 51 21 60 32
18 49 -4 49 -61 0 -27 5 -49 10 -49 6 0 10 24 10 54 0 62 -15 80 -60 74 -27
-4 -30 -2 -30 24 0 15 -4 28 -10 28 -6 0 -10 -37 -10 -90z"/>
<path d="M5150 590 c0 -5 5 -10 10 -10 6 0 10 5 10 10 0 6 -4 10 -10 10 -5 0
-10 -4 -10 -10z"/>
<path d="M5380 510 c0 -53 4 -90 10 -90 6 0 10 22 10 50 0 40 4 51 21 60 32
18 49 -4 49 -61 0 -27 5 -49 10 -49 6 0 10 24 10 54 0 62 -15 80 -60 74 -27
-4 -30 -2 -30 24 0 15 -4 28 -10 28 -6 0 -10 -37 -10 -90z"/>
<path d="M5900 590 c-19 -4 -26 -13 -28 -38 -2 -20 1 -32 9 -32 8 0 6 -6 -4
-18 -21 -23 -22 -46 -1 -66 18 -19 75 -21 92 -4 29 29 -1 88 -44 88 -30 0 -45
19 -33 42 19 35 77 11 63 -26 -3 -9 -2 -16 4 -16 16 0 23 30 12 49 -11 22 -36
30 -70 21z m58 -116 c2 -11 -4 -27 -13 -34 -32 -26 -87 25 -58 54 4 4 21 6 38
4 22 -2 31 -9 33 -24z"/>
<path d="M6049 587 c-26 -13 -42 -66 -32 -107 22 -94 113 -71 113 28 0 70 -33
102 -81 79z m49 -19 c7 -7 12 -33 12 -58 0 -49 -13 -70 -42 -70 -23 0 -41 45
-34 84 10 51 38 70 64 44z"/>
<path d="M6470 510 c0 -53 4 -90 10 -90 6 0 10 37 10 90 0 53 -4 90 -10 90 -6
0 -10 -37 -10 -90z"/>
<path d="M6530 590 c0 -5 5 -10 10 -10 6 0 10 5 10 10 0 6 -4 10 -10 10 -5 0
-10 -4 -10 -10z"/>
<path d="M7150 510 c0 -53 4 -90 10 -90 6 0 10 37 10 90 0 53 -4 90 -10 90 -6
0 -10 -37 -10 -90z"/>
<path d="M7368 573 c-15 -32 -12 -153 2 -153 6 0 10 25 10 55 0 41 4 56 18 64
16 10 16 10 0 11 -22 0 -23 8 -1 32 15 17 15 18 0 18 -9 0 -22 -12 -29 -27z"/>
<path d="M7660 510 c0 -53 4 -90 10 -90 6 0 10 20 10 44 0 42 18 76 40 76 22
0 40 -34 40 -76 0 -24 5 -44 10 -44 13 0 13 71 0 106 -10 24 -14 26 -50 21
-39 -5 -40 -4 -40 24 0 16 -4 29 -10 29 -6 0 -10 -37 -10 -90z"/>
<path d="M8927 592 c-39 -8 -51 -118 -17 -152 34 -34 71 -24 89 23 28 74 -10
143 -72 129z m41 -21 c19 -11 27 -83 13 -110 -25 -46 -71 -19 -71 42 0 63 23
90 58 68z"/>
<path d="M4463 583 c26 -2 47 -6 47 -8 0 -1 -14 -35 -31 -75 -17 -40 -28 -75
-25 -78 3 -3 7 -3 9 -1 8 10 67 152 67 160 0 5 -26 8 -57 7 -57 -2 -57 -2 -10
-5z"/>
<path d="M8818 578 c7 -7 12 -42 12 -85 0 -42 4 -73 10 -73 6 0 10 35 10 85 0
81 -1 85 -22 85 -17 0 -19 -3 -10 -12z"/>
<path d="M2710 565 c0 -8 -5 -15 -11 -15 -8 0 -8 -4 -1 -13 6 -7 12 -35 14
-62 3 -43 6 -50 26 -53 12 -2 22 1 22 7 0 6 -7 11 -15 11 -23 0 -21 97 3 103
16 4 16 5 0 6 -10 0 -18 8 -18 16 0 8 -4 15 -10 15 -5 0 -10 -7 -10 -15z"/>
<path d="M3939 563 c-2 -47 4 -109 12 -125 5 -10 19 -18 29 -18 26 0 26 16 0
23 -16 4 -20 14 -20 46 0 34 4 43 23 51 17 7 18 9 4 9 -10 1 -20 8 -23 16 -8
21 -24 19 -25 -2z"/>
<path d="M5529 563 c-2 -47 4 -109 12 -125 5 -10 19 -18 29 -18 26 0 26 16 0
23 -16 4 -20 14 -20 46 0 34 4 43 23 51 17 7 18 9 4 9 -10 1 -20 8 -23 16 -8
21 -24 19 -25 -2z"/>
<path d="M7439 563 c-2 -47 4 -109 12 -125 5 -10 19 -18 29 -18 26 0 26 16 0
23 -16 4 -20 14 -20 46 0 34 4 43 23 51 17 7 18 9 4 9 -10 1 -20 8 -23 16 -8
21 -24 19 -25 -2z"/>
<path d="M755 536 l-30 -25 32 -32 c37 -38 58 -32 23 6 l-23 25 23 25 c30 32
14 32 -25 1z"/>
<path d="M860 485 c0 -37 4 -65 10 -65 6 0 10 28 10 65 0 37 -4 65 -10 65 -6
0 -10 -28 -10 -65z"/>
<path d="M920 483 c0 -35 4 -63 10 -63 6 0 10 22 10 50 0 40 4 51 21 60 32 18
49 -4 49 -61 0 -27 5 -49 10 -49 6 0 10 20 10 44 0 42 18 76 40 76 22 0 40
-34 40 -76 0 -24 5 -44 10 -44 16 0 12 83 -6 108 -16 24 -53 29 -72 10 -8 -8
-15 -8 -25 0 -8 7 -33 11 -56 10 l-41 -1 0 -64z"/>
<path d="M1177 532 c-21 -23 -22 -61 -1 -90 16 -24 44 -28 75 -12 16 9 19 7
19 -14 0 -37 -34 -52 -67 -31 -28 19 -42 13 -23 -10 17 -21 73 -19 93 3 13 14
17 38 17 95 0 45 -4 77 -10 77 -5 0 -10 -5 -10 -12 0 -9 -3 -9 -12 0 -18 18
-63 14 -81 -6z m91 -41 c4 -28 -14 -51 -42 -51 -47 0 -63 57 -24 84 19 13 25
14 43 2 11 -7 21 -23 23 -35z"/>
<path d="M1402 538 c-21 -21 -13 -38 22 -53 19 -8 37 -19 41 -25 10 -16 -26
-24 -47 -11 -25 15 -35 7 -18 -14 17 -21 67 -19 79 3 11 20 -3 52 -23 52 -7 0
-21 7 -32 15 -16 13 -17 16 -4 24 10 7 22 5 38 -5 22 -15 24 -14 20 3 -4 22
-57 30 -76 11z"/>
<path d="M1520 483 c0 -35 4 -63 10 -63 6 0 10 20 10 45 0 34 5 48 20 57 28
18 25 25 -10 25 l-30 0 0 -64z"/>
<path d="M1625 536 c-24 -17 -24 -69 0 -96 21 -24 67 -26 85 -5 16 19 5 34
-12 17 -20 -20 -58 -14 -67 11 -10 25 -4 47 16 63 15 13 53 7 53 -7 0 -5 7 -9
17 -9 14 0 14 2 -2 20 -21 23 -63 26 -90 6z"/>
<path d="M2012 538 c-21 -21 -13 -38 22 -53 19 -8 37 -19 41 -25 10 -16 -26
-24 -47 -11 -25 15 -35 7 -18 -14 17 -21 67 -19 79 3 11 20 -3 52 -23 52 -7 0
-21 7 -32 15 -16 13 -17 16 -4 24 10 7 22 5 38 -5 22 -15 24 -14 20 3 -4 22
-57 30 -76 11z"/>
<path d="M2130 485 c0 -37 4 -65 10 -65 6 0 10 28 10 65 0 37 -4 65 -10 65 -6
0 -10 -28 -10 -65z"/>
<path d="M2256 528 c-22 -30 -20 -60 4 -86 23 -24 59 -29 78 -10 9 9 12 9 12
0 0 -7 5 -12 10 -12 6 0 10 28 10 65 0 36 -4 65 -9 65 -13 0 -20 -23 -14 -53
7 -33 -12 -57 -43 -57 -31 0 -50 34 -35 66 11 24 20 28 55 24 11 -1 15 3 12 9
-13 20 -64 12 -80 -11z"/>
<path d="M2422 541 c-23 -14 -9 -45 26 -60 17 -8 32 -21 32 -28 0 -17 -47 -17
-53 0 -2 6 -8 9 -12 5 -11 -11 14 -38 35 -38 33 0 50 12 50 35 0 18 -9 27 -35
36 -19 7 -35 18 -35 25 0 20 28 24 45 7 18 -18 30 -11 22 12 -7 16 -53 20 -75
6z"/>
<path d="M2546 528 c-22 -30 -20 -60 4 -86 23 -24 59 -29 78 -10 9 9 12 9 12
0 0 -7 5 -12 10 -12 6 0 10 28 10 65 0 36 -4 65 -9 65 -13 0 -20 -23 -14 -53
7 -33 -12 -57 -43 -57 -31 0 -50 34 -35 66 11 24 20 28 55 24 11 -1 15 3 12 9
-13 20 -64 12 -80 -11z"/>
<path d="M2790 507 c0 -23 7 -53 16 -65 17 -24 53 -29 72 -10 9 9 12 9 12 0 0
-7 5 -12 10 -12 6 0 10 28 10 65 0 37 -4 65 -10 65 -5 0 -10 -19 -10 -43 0
-48 -13 -67 -46 -67 -26 0 -34 17 -34 71 0 21 -4 39 -10 39 -5 0 -10 -19 -10
-43z"/>
<path d="M3000 469 c0 -66 -3 -84 -17 -95 -17 -12 -17 -13 3 -14 12 0 25 7 28
16 10 26 7 174 -4 174 -6 0 -10 -34 -10 -81z"/>
<path d="M3060 455 c0 -57 4 -95 10 -95 6 0 10 18 10 40 0 37 1 39 20 28 28
-18 72 1 84 35 20 56 -46 113 -90 76 -10 -8 -14 -8 -14 0 0 6 -4 11 -10 11 -6
0 -10 -38 -10 -95z m105 45 c9 -28 -12 -60 -38 -60 -48 0 -65 57 -25 84 25 18
53 7 63 -24z"/>
<path d="M3226 528 c-22 -30 -20 -60 4 -86 23 -24 59 -29 78 -10 9 9 12 6 12
-15 0 -38 -33 -54 -67 -32 -28 19 -42 13 -23 -10 19 -23 87 -20 100 4 12 24
14 171 1 171 -13 0 -20 -23 -14 -53 7 -33 -12 -57 -43 -57 -31 0 -50 34 -35
66 11 24 20 28 55 24 11 -1 15 3 12 9 -13 20 -64 12 -80 -11z"/>
<path d="M3510 545 c0 -26 36 -125 46 -125 7 0 18 22 25 50 7 27 16 47 20 45
3 -3 12 -25 18 -51 14 -56 29 -53 52 12 20 56 23 74 10 74 -4 0 -15 -24 -23
-52 l-14 -53 -18 53 c-10 29 -23 51 -29 49 -5 -1 -17 -25 -25 -53 l-15 -49
-16 53 c-9 28 -19 52 -23 52 -5 0 -8 -2 -8 -5z"/>
<path d="M3720 485 c0 -37 4 -65 10 -65 6 0 10 28 10 65 0 37 -4 65 -10 65 -6
0 -10 -28 -10 -65z"/>
<path d="M5015 536 c-24 -17 -24 -69 0 -96 23 -26 67 -26 90 0 14 16 15 20 4
20 -8 0 -20 -5 -26 -11 -16 -16 -57 -7 -61 14 -3 14 4 17 47 17 55 0 62 9 35
48 -17 25 -60 29 -89 8z m69 -12 c22 -22 11 -34 -30 -34 -38 0 -47 22 -16 39
23 14 28 14 46 -5z"/>
<path d="M5150 485 c0 -37 4 -65 10 -65 6 0 10 28 10 65 0 37 -4 65 -10 65 -6
0 -10 -28 -10 -65z"/>
<path d="M5220 534 c-19 -22 -16 -70 5 -94 19 -21 60 -27 70 -10 3 6 10 10 16
10 15 0 10 -26 -9 -50 -18 -22 -20 -23 -52 -7 -38 20 -48 17 -24 -7 25 -26 85
-18 101 14 15 30 17 160 3 160 -5 0 -10 -5 -10 -12 0 -9 -3 -9 -12 0 -17 17
-73 15 -88 -4z m72 -6 c39 -32 25 -88 -21 -88 -30 0 -48 26 -42 60 2 15 29 40
41 40 3 0 13 -6 22 -12z"/>
<path d="M6317 532 c-22 -25 -21 -75 1 -95 21 -19 45 -21 73 -7 13 7 19 7 19
0 0 -5 5 -10 10 -10 6 0 10 28 10 65 0 37 -4 65 -10 65 -5 0 -10 -5 -10 -12 0
-9 -3 -9 -12 0 -18 18 -63 14 -81 -6z m88 -32 c10 -31 -12 -62 -42 -58 -33 4
-48 27 -39 61 10 42 67 41 81 -3z"/>
<path d="M6530 485 c0 -37 4 -65 10 -65 6 0 10 28 10 65 0 37 -4 65 -10 65 -6
0 -10 -28 -10 -65z"/>
<path d="M6597 532 c-21 -23 -22 -61 -1 -90 16 -24 44 -28 75 -12 16 9 19 7
19 -14 0 -37 -34 -52 -67 -31 -28 19 -42 13 -23 -10 17 -21 73 -19 93 3 13 14
17 38 17 95 0 45 -4 77 -10 77 -5 0 -10 -5 -10 -12 0 -9 -3 -9 -12 0 -18 18
-63 14 -81 -6z m91 -41 c4 -28 -14 -51 -42 -51 -47 0 -63 57 -24 84 19 13 25
14 43 2 11 -7 21 -23 23 -35z"/>
<path d="M6750 484 c0 -36 4 -64 10 -64 6 0 10 22 10 50 0 38 4 52 19 60 25
13 27 13 45 -6 10 -9 16 -33 16 -60 0 -24 5 -44 10 -44 14 0 12 70 -3 100 -11
21 -20 25 -60 26 l-47 2 0 -64z"/>
<path d="M7216 528 c-9 -12 -16 -32 -16 -43 0 -29 36 -65 63 -65 28 0 65 25
54 36 -4 4 -13 2 -19 -4 -15 -15 -51 -15 -66 0 -22 22 -13 28 44 28 53 0 55 1
48 23 -11 36 -25 47 -60 47 -23 0 -38 -7 -48 -22z m72 -4 c29 -20 20 -34 -22
-34 -42 0 -50 9 -29 32 20 22 23 22 51 2z"/>
<path d="M7822 533 c-14 -27 -5 -41 34 -53 19 -6 34 -16 34 -21 0 -17 -32 -23
-52 -10 -27 16 -38 3 -14 -15 26 -18 60 -18 76 1 18 22 6 42 -36 60 -35 14
-37 17 -21 32 15 16 18 15 37 -2 23 -21 39 -13 20 10 -17 21 -67 19 -78 -2z"/>
<path d="M7940 455 c0 -57 4 -95 10 -95 6 0 10 18 10 40 0 38 12 52 25 30 12
-20 53 -10 75 17 22 28 21 63 -2 90 -13 16 -52 17 -79 3 -13 -7 -19 -7 -19 0
0 5 -4 10 -10 10 -6 0 -10 -38 -10 -95z m92 73 c21 -18 27 -39 17 -65 -9 -25
-47 -31 -67 -11 -18 18 -15 65 6 77 22 13 25 13 44 -1z"/>
<path d="M8117 532 c-21 -23 -22 -61 -1 -90 16 -24 44 -28 75 -12 13 7 19 7
19 0 0 -5 5 -10 10 -10 6 0 10 28 10 65 0 37 -4 65 -10 65 -5 0 -10 -5 -10
-12 0 -9 -3 -9 -12 0 -18 18 -63 14 -81 -6z m91 -41 c4 -28 -14 -51 -42 -51
-47 0 -63 57 -24 84 19 13 25 14 43 2 11 -7 21 -23 23 -35z"/>
<path d="M8294 542 c-19 -13 -34 -50 -27 -69 17 -50 75 -71 103 -38 16 19 5
34 -12 17 -20 -20 -58 -14 -67 11 -10 25 -4 47 16 63 15 13 53 7 53 -7 0 -5 7
-9 17 -9 14 0 14 2 -2 20 -18 20 -60 26 -81 12z"/>
<path d="M8427 532 c-36 -40 -6 -112 46 -112 27 0 65 25 54 36 -4 4 -13 2 -19
-4 -15 -15 -51 -15 -66 0 -22 22 -13 28 42 28 51 0 54 1 49 23 -3 12 -10 28
-16 35 -14 18 -71 15 -90 -6z m64 -2 c32 -18 23 -40 -15 -40 -41 0 -52 12 -30
34 18 19 20 19 45 6z"/>
<path d="M1798 533 c17 -2 47 -2 65 0 17 2 3 4 -33 4 -36 0 -50 -2 -32 -4z"/>
<path d="M4218 533 c17 -2 47 -2 65 0 17 2 3 4 -33 4 -36 0 -50 -2 -32 -4z"/>
<path d="M5658 533 c17 -2 47 -2 65 0 17 2 3 4 -33 4 -36 0 -50 -2 -32 -4z"/>
<path d="M6938 533 c17 -2 47 -2 65 0 17 2 3 4 -33 4 -36 0 -50 -2 -32 -4z"/>
<path d="M8597 533 c18 -2 50 -2 70 0 21 2 7 4 -32 4 -38 0 -55 -2 -38 -4z"/>
<path d="M1770 480 c0 -6 27 -10 60 -10 33 0 60 4 60 10 0 6 -27 10 -60 10
-33 0 -60 -4 -60 -10z"/>
<path d="M4190 480 c0 -6 27 -10 60 -10 33 0 60 4 60 10 0 6 -27 10 -60 10
-33 0 -60 -4 -60 -10z"/>
<path d="M5630 480 c0 -6 27 -10 60 -10 33 0 60 4 60 10 0 6 -27 10 -60 10
-33 0 -60 -4 -60 -10z"/>
<path d="M6910 480 c0 -6 27 -10 60 -10 33 0 60 4 60 10 0 6 -27 10 -60 10
-33 0 -60 -4 -60 -10z"/>
<path d="M8575 480 c3 -5 30 -10 60 -10 30 0 57 5 60 10 4 6 -18 10 -60 10
-42 0 -64 -4 -60 -10z"/>
<path d="M2940 435 c0 -8 5 -15 10 -15 6 0 10 7 10 15 0 8 -4 15 -10 15 -5 0
-10 -7 -10 -15z"/>
<path d="M687 280 c3 -11 7 -20 9 -20 2 0 4 9 4 20 0 11 -4 20 -9 20 -5 0 -7
-9 -4 -20z"/>
<path d="M720 280 c0 -11 2 -20 4 -20 2 0 6 9 9 20 3 11 1 20 -4 20 -5 0 -9
-9 -9 -20z"/>
<path d="M3517 280 c3 -11 7 -20 9 -20 2 0 4 9 4 20 0 11 -4 20 -9 20 -5 0 -7
-9 -4 -20z"/>
<path d="M3550 280 c0 -11 2 -20 4 -20 2 0 6 9 9 20 3 11 1 20 -4 20 -5 0 -9
-9 -9 -20z"/>
<path d="M370 200 c0 -53 4 -90 10 -90 6 0 10 37 10 90 0 53 -4 90 -10 90 -6
0 -10 -37 -10 -90z"/>
<path d="M1280 200 c0 -53 4 -90 10 -90 6 0 10 5 10 10 0 7 6 7 19 0 11 -5 28
-10 39 -10 46 0 70 80 34 113 -22 20 -63 22 -80 5 -9 -9 -12 -4 -12 25 0 20
-4 37 -10 37 -6 0 -10 -37 -10 -90z m108 -14 c2 -15 -2 -34 -9 -42 -17 -20
-56 -17 -69 5 -14 28 -13 38 10 61 26 26 64 13 68 -24z"/>
<path d="M2130 280 c0 -5 7 -10 15 -10 8 0 15 5 15 10 0 6 -7 10 -15 10 -8 0
-15 -4 -15 -10z"/>
<path d="M2190 200 c0 -53 4 -90 10 -90 6 0 10 37 10 90 0 53 -4 90 -10 90 -6
0 -10 -37 -10 -90z"/>
<path d="M768 274 c-5 -4 -8 -43 -8 -86 l0 -78 40 0 c22 0 40 5 40 10 0 6 -13
10 -30 10 l-29 0 -3 76 c-2 42 -6 72 -10 68z"/>
<path d="M2008 269 c-10 -5 -18 -21 -18 -35 0 -20 9 -29 46 -44 33 -14 45 -25
42 -37 -4 -22 -44 -29 -64 -12 -8 6 -18 9 -22 5 -10 -11 28 -36 53 -36 29 0
58 33 51 58 -4 10 -24 26 -46 35 -42 16 -53 43 -24 54 9 3 25 1 35 -5 30 -19
44 -14 24 8 -20 22 -50 25 -77 9z"/>
<path d="M2480 195 c0 -50 4 -85 10 -85 6 0 10 16 10 35 0 32 2 35 29 35 34 0
61 23 61 50 0 26 -38 50 -77 50 l-33 0 0 -85z m85 35 c0 -21 -5 -26 -32 -28
-31 -3 -33 -1 -33 28 0 29 2 31 33 28 27 -2 32 -7 32 -28z"/>
<path d="M429 253 c-2 -47 4 -109 12 -125 5 -10 19 -18 29 -18 26 0 26 16 0
23 -16 4 -20 14 -20 46 0 34 4 43 23 51 17 7 18 9 4 9 -10 1 -20 8 -23 16 -8
21 -24 19 -25 -2z"/>
<path d="M2870 255 c0 -8 -5 -15 -11 -15 -8 0 -8 -4 -1 -13 6 -7 12 -35 14
-62 3 -43 6 -50 26 -53 12 -2 22 1 22 7 0 6 -7 11 -15 11 -23 0 -21 97 3 103
16 4 16 5 0 6 -10 0 -18 8 -18 16 0 8 -4 15 -10 15 -5 0 -10 -7 -10 -15z"/>
<path d="M3630 225 l23 -25 -23 -25 c-35 -38 -14 -44 23 -7 l32 32 -30 25
c-39 32 -55 32 -25 0z"/>
<path d="M217 222 c-21 -23 -22 -61 -1 -90 16 -24 44 -28 75 -12 13 7 19 7 19
0 0 -5 5 -10 10 -10 6 0 10 28 10 65 0 37 -4 65 -10 65 -5 0 -10 -5 -10 -12 0
-9 -3 -9 -12 0 -18 18 -63 14 -81 -6z m91 -41 c4 -28 -14 -51 -42 -51 -47 0
-63 57 -24 84 19 13 25 14 43 2 11 -7 21 -23 23 -35z"/>
<path d="M876 218 c-22 -30 -20 -60 4 -86 23 -24 59 -29 78 -10 9 9 12 9 12 0
0 -7 5 -12 10 -12 6 0 10 28 10 65 0 36 -4 65 -9 65 -13 0 -20 -23 -14 -53 7
-33 -12 -57 -43 -57 -31 0 -50 34 -35 66 11 24 20 28 55 24 11 -1 15 3 12 9
-13 20 -64 12 -80 -11z"/>
<path d="M1030 173 c0 -35 4 -63 10 -63 6 0 10 20 10 44 0 42 18 76 40 76 22
0 40 -34 40 -76 0 -24 5 -44 10 -44 6 0 10 22 10 50 0 40 4 51 21 60 32 18 49
-4 49 -61 0 -27 5 -49 10 -49 14 0 12 104 -2 118 -15 15 -60 16 -76 0 -8 -8
-15 -8 -25 0 -7 6 -32 10 -55 9 l-42 -1 0 -63z"/>
<path d="M1457 222 c-22 -25 -21 -75 1 -95 21 -19 45 -21 73 -7 13 7 19 7 19
0 0 -5 5 -10 10 -10 6 0 10 28 10 65 0 37 -4 65 -10 65 -5 0 -10 -5 -10 -12 0
-9 -3 -9 -12 0 -18 18 -63 14 -81 -6z m88 -32 c10 -31 -12 -62 -42 -58 -33 4
-48 27 -39 61 10 42 67 41 81 -3z"/>
<path d="M1610 174 c0 -36 4 -64 10 -64 6 0 10 22 10 50 0 38 4 52 19 60 25
13 27 13 45 -6 10 -9 16 -33 16 -60 0 -24 5 -44 10 -44 14 0 12 70 -3 100 -11
21 -20 25 -60 26 l-47 2 0 -64z"/>
<path d="M1770 224 c-19 -22 -16 -70 5 -94 19 -21 60 -27 70 -10 3 6 10 10 16
10 15 0 10 -26 -9 -50 -18 -22 -20 -23 -52 -7 -38 20 -48 17 -24 -7 25 -26 85
-18 101 14 15 30 17 160 3 160 -5 0 -10 -5 -10 -12 0 -9 -3 -9 -12 0 -17 17
-73 15 -88 -4z m72 -6 c39 -32 25 -88 -21 -88 -30 0 -48 26 -42 60 2 15 29 40
41 40 3 0 13 -6 22 -12z"/>
<path d="M2130 175 c0 -37 4 -65 10 -65 6 0 10 28 10 65 0 37 -4 65 -10 65 -6
0 -10 -28 -10 -65z"/>
<path d="M2260 224 c-19 -22 -16 -70 5 -94 20 -23 55 -26 74 -7 11 10 14 10
18 0 12 -33 23 -7 23 52 0 37 -4 65 -10 65 -5 0 -10 -5 -10 -12 0 -9 -3 -9
-12 0 -17 17 -73 15 -88 -4z m72 -6 c39 -32 25 -88 -21 -88 -30 0 -48 26 -42
60 2 15 29 40 41 40 3 0 13 -6 22 -12z"/>
<path d="M2626 218 c-9 -12 -16 -32 -16 -43 0 -29 36 -65 63 -65 28 0 65 25
54 36 -4 4 -13 2 -19 -4 -15 -15 -51 -15 -66 0 -22 22 -13 28 44 28 53 0 55 1
48 23 -11 36 -25 47 -60 47 -23 0 -38 -7 -48 -22z m72 -4 c29 -20 20 -34 -22
-34 -42 0 -50 9 -29 32 20 22 23 22 51 2z"/>
<path d="M2770 175 c0 -37 4 -65 10 -65 6 0 10 23 10 51 0 42 3 52 20 56 11 3
20 9 20 14 0 13 -14 11 -28 -3 -9 -9 -12 -9 -12 0 0 7 -4 12 -10 12 -6 0 -10
-28 -10 -65z"/>
<path d="M2956 218 c-22 -30 -20 -60 4 -86 23 -24 59 -29 78 -10 9 9 12 9 12
0 0 -7 5 -12 10 -12 6 0 10 28 10 65 0 36 -4 65 -9 65 -13 0 -20 -23 -14 -53
7 -33 -12 -57 -43 -57 -31 0 -50 34 -35 66 11 24 20 28 55 24 11 -1 15 3 12 9
-13 20 -64 12 -80 -11z"/>
<path d="M3110 173 c0 -35 4 -63 10 -63 6 0 10 20 10 44 0 42 18 76 40 76 22
0 40 -34 40 -76 0 -24 5 -44 10 -44 6 0 10 22 10 50 0 40 4 51 21 60 32 18 49
-4 49 -61 0 -27 5 -49 10 -49 14 0 12 104 -2 118 -15 15 -60 16 -76 0 -8 -8
-15 -8 -25 0 -7 6 -32 10 -55 9 l-42 -1 0 -63z"/>
<path d="M3370 224 c-19 -22 -16 -70 5 -94 20 -23 55 -26 74 -7 11 10 14 10
18 0 12 -33 23 -7 23 52 0 37 -4 65 -10 65 -5 0 -10 -5 -10 -12 0 -9 -3 -9
-12 0 -17 17 -73 15 -88 -4z m72 -6 c39 -32 25 -88 -21 -88 -30 0 -48 26 -42
60 2 15 29 40 41 40 3 0 13 -6 22 -12z"/>
<path d="M558 223 c17 -2 47 -2 65 0 17 2 3 4 -33 4 -36 0 -50 -2 -32 -4z"/>
<path d="M530 170 c0 -6 27 -10 60 -10 33 0 60 4 60 10 0 6 -27 10 -60 10 -33
0 -60 -4 -60 -10z"/>
</g>
</svg>
