<?xml version="1.0" standalone="no"?>
<!DOCTYPE svg PUBLIC "-//W3C//DTD SVG 20010904//EN"
 "http://www.w3.org/TR/2001/REC-SVG-20010904/DTD/svg10.dtd">
<svg version="1.0" xmlns="http://www.w3.org/2000/svg"
 width="386.000000pt" height="126.000000pt" viewBox="0 0 386.000000 126.000000"
 preserveAspectRatio="xMidYMid meet">

<g transform="translate(0.000000,126.000000) scale(0.100000,-0.100000)"
fill="#000000" stroke="none">
<path d="M10 645 l0 -615 1915 0 1915 0 0 615 0 615 -1915 0 -1915 0 0 -615z
m410 595 c0 -5 -11 -17 -26 -26 l-25 -17 32 -33 c18 -19 40 -34 48 -34 10 1 3
12 -19 31 l-35 30 33 30 c24 21 42 29 70 29 29 0 34 -3 22 -11 -11 -8 -12 -12
-3 -16 8 -3 13 -24 13 -57 0 -54 12 -76 42 -76 24 0 23 16 -2 23 -17 4 -20 14
-20 56 0 44 3 51 20 51 25 0 26 17 3 23 -10 3 25 5 77 6 91 1 97 0 130 -27
l34 -29 -35 -31 c-22 -21 -29 -32 -18 -32 8 0 30 15 48 34 l32 33 -25 17 c-15
9 -26 21 -26 26 0 7 535 10 1515 10 l1515 0 0 -605 0 -605 -1641 0 c-1558 0
-1640 1 -1635 18 16 53 66 263 66 276 0 9 -4 16 -8 16 -4 0 -25 -70 -46 -155
l-38 -155 -244 0 -244 0 0 605 0 605 195 0 c120 0 195 -4 195 -10z"/>
<path d="M630 1165 c0 -86 15 -101 22 -23 4 38 12 57 28 70 13 10 20 21 17 25
-4 3 -14 0 -23 -8 -13 -11 -18 -11 -21 -1 -12 34 -23 4 -23 -63z"/>
<path d="M1681 983 c-35 -134 -61 -244 -61 -259 0 -57 36 58 84 269 10 42 -12
32 -23 -10z"/>
<path d="M1070 925 c0 -34 -12 -46 -25 -25 -3 6 -19 10 -34 10 -36 0 -71 -38
-71 -76 0 -55 73 -96 109 -61 11 10 14 10 18 0 14 -37 23 -2 23 87 0 60 -4
100 -10 100 -5 0 -10 -16 -10 -35z m-20 -50 c16 -20 16 -61 0 -80 -19 -23 -62
-14 -79 16 -13 24 -13 29 2 53 20 29 57 35 77 11z"/>
<path d="M1306 944 c-18 -17 -21 -34 -7 -34 5 0 14 7 21 15 18 22 57 19 65 -5
8 -25 -1 -40 -25 -40 -32 0 -32 -17 1 -29 25 -9 30 -15 27 -38 -4 -37 -50 -45
-70 -14 -15 24 -28 27 -28 8 0 -37 60 -58 101 -37 23 13 26 62 4 80 -14 12
-14 15 0 30 31 35 6 80 -45 80 -16 0 -36 -7 -44 -16z"/>
<path d="M1980 925 c0 -32 -2 -35 -19 -25 -53 28 -105 -5 -105 -67 0 -57 66
-96 103 -60 11 10 14 10 18 0 14 -37 23 -2 23 87 0 60 -4 100 -10 100 -5 0
-10 -16 -10 -35z m-18 -52 c34 -31 10 -93 -37 -93 -30 0 -45 19 -45 55 0 53
43 73 82 38z"/>
<path d="M850 931 c0 -11 -6 -22 -12 -25 -10 -5 -10 -7 0 -12 7 -3 12 -26 12
-58 0 -54 12 -76 42 -76 24 0 23 16 -2 23 -17 4 -20 14 -20 56 0 44 3 51 20
51 11 0 20 5 20 10 0 6 -9 10 -20 10 -13 0 -20 7 -20 20 0 11 -4 20 -10 20 -5
0 -10 -9 -10 -19z"/>
<path d="M1760 931 c0 -11 -6 -22 -12 -25 -10 -5 -10 -7 0 -12 7 -3 12 -26 12
-58 0 -54 12 -76 42 -76 24 0 23 16 -2 23 -17 4 -20 14 -20 56 0 44 3 51 20
51 11 0 20 5 20 10 0 6 -9 10 -20 10 -13 0 -20 7 -20 20 0 11 -4 20 -10 20 -5
0 -10 -9 -10 -19z"/>
<path d="M715 890 l-29 -30 29 -30 c16 -16 35 -30 44 -30 10 0 6 9 -14 30
l-29 30 29 30 c20 21 24 30 14 30 -9 0 -28 -13 -44 -30z"/>
<path d="M1180 892 l34 -29 -35 -31 c-22 -21 -29 -32 -18 -32 8 0 29 15 47 33
l31 32 -34 28 c-45 36 -69 35 -25 -1z"/>
<path d="M1495 890 l-29 -30 29 -30 c16 -16 35 -30 44 -30 10 0 6 9 -14 30
l-29 30 29 30 c20 21 24 30 14 30 -9 0 -28 -13 -44 -30z"/>
<path d="M2095 890 l29 -30 -29 -30 c-37 -38 -20 -39 25 -1 l35 29 -29 31
c-17 17 -36 31 -45 31 -10 0 -6 -9 14 -30z"/>
<path d="M3015 668 c-14 -42 -73 -293 -69 -297 11 -11 23 23 54 149 17 74 33
141 36 148 2 6 -1 12 -7 12 -5 0 -12 -6 -14 -12z"/>
<path d="M2417 624 c-8 -8 1 -24 14 -24 5 0 9 7 9 15 0 15 -12 20 -23 9z"/>
<path d="M1070 585 c0 -34 -12 -46 -25 -25 -3 6 -19 10 -34 10 -36 0 -71 -38
-71 -76 0 -55 73 -96 109 -61 11 10 14 10 18 0 14 -37 23 -2 23 87 0 60 -4
100 -10 100 -5 0 -10 -16 -10 -35z m-20 -50 c16 -20 16 -61 0 -80 -19 -23 -62
-14 -79 16 -13 24 -13 29 2 53 20 29 57 35 77 11z"/>
<path d="M3310 585 c0 -34 -12 -46 -25 -25 -3 6 -19 10 -35 10 -33 0 -70 -40
-70 -75 0 -34 37 -75 69 -75 15 0 33 6 40 13 11 10 14 10 18 0 14 -37 23 -2
23 87 0 60 -4 100 -10 100 -5 0 -10 -16 -10 -35z m-13 -61 c15 -24 15 -29 2
-53 -28 -50 -91 -34 -91 24 0 56 58 75 89 29z"/>
<path d="M850 591 c0 -11 -6 -22 -12 -25 -10 -5 -10 -7 0 -12 7 -3 12 -26 12
-58 0 -54 12 -76 42 -76 24 0 23 16 -2 23 -17 4 -20 14 -20 56 0 44 3 51 20
51 11 0 20 5 20 10 0 6 -9 10 -20 10 -13 0 -20 7 -20 20 0 11 -4 20 -10 20 -5
0 -10 -9 -10 -19z"/>
<path d="M1360 530 c0 -66 -3 -82 -16 -87 -10 -4 -22 1 -30 11 -19 27 -38 16
-19 -12 21 -28 59 -28 79 0 22 31 23 168 1 168 -12 0 -15 -16 -15 -80z"/>
<path d="M2690 591 c0 -11 -6 -22 -12 -25 -10 -5 -10 -7 0 -12 7 -3 12 -26 12
-58 0 -54 12 -76 42 -76 24 0 23 16 -2 23 -17 4 -20 14 -20 56 0 44 3 51 20
51 11 0 20 5 20 10 0 6 -9 10 -20 10 -13 0 -20 7 -20 20 0 11 -4 20 -10 20 -5
0 -10 -9 -10 -19z"/>
<path d="M3090 591 c0 -11 -6 -22 -12 -25 -10 -5 -10 -7 0 -12 7 -3 12 -26 12
-58 0 -54 12 -76 42 -76 24 0 23 16 -2 23 -17 4 -20 14 -20 56 0 44 3 51 20
51 11 0 20 5 20 10 0 6 -9 10 -20 10 -13 0 -20 7 -20 20 0 11 -4 20 -10 20 -5
0 -10 -9 -10 -19z"/>
<path d="M715 550 l-29 -30 29 -30 c16 -16 35 -30 44 -30 10 0 6 9 -14 30
l-29 30 29 30 c20 21 24 30 14 30 -9 0 -28 -13 -44 -30z"/>
<path d="M1180 552 l34 -29 -35 -31 c-22 -21 -29 -32 -18 -32 8 0 29 15 47 33
l31 32 -34 28 c-45 36 -69 35 -25 -1z"/>
<path d="M2823 551 l-33 -27 33 -32 c18 -18 39 -32 47 -32 9 1 0 13 -20 31
l-35 30 33 30 c41 37 18 38 -25 0z"/>
<path d="M3420 552 l34 -29 -35 -31 c-22 -21 -29 -32 -18 -32 8 0 29 15 47 33
l31 32 -34 28 c-45 36 -69 35 -25 -1z"/>
<path d="M1462 554 c-16 -11 -22 -25 -22 -55 0 -63 48 -97 101 -69 13 7 19 7
19 0 0 -5 7 -10 15 -10 12 0 15 15 15 75 0 60 -3 75 -15 75 -8 0 -15 -5 -15
-12 0 -9 -3 -9 -12 0 -17 17 -59 15 -86 -4z m86 -16 c7 -7 12 -26 12 -43 0
-53 -43 -73 -82 -38 -35 32 -15 93 30 93 16 0 33 -5 40 -12z"/>
<path d="M1621 563 c2 -5 15 -39 28 -76 17 -46 30 -67 40 -65 14 3 76 137 67
146 -11 10 -26 -13 -42 -63 -10 -30 -20 -55 -23 -55 -4 0 -15 26 -27 57 -11
31 -26 59 -33 61 -8 3 -12 0 -10 -5z"/>
<path d="M1812 554 c-16 -11 -22 -25 -22 -55 0 -63 48 -97 101 -69 13 7 19 7
19 0 0 -5 7 -10 15 -10 12 0 15 15 15 75 0 60 -3 75 -15 75 -8 0 -15 -5 -15
-12 0 -9 -3 -9 -12 0 -17 17 -59 15 -86 -4z m86 -16 c7 -7 12 -26 12 -43 0
-53 -43 -73 -82 -38 -35 32 -15 93 30 93 16 0 33 -5 40 -12z"/>
<path d="M1996 554 c-27 -27 -17 -45 37 -67 20 -9 37 -21 37 -27 0 -17 -31
-24 -51 -12 -30 19 -44 14 -24 -8 34 -37 102 -18 93 27 -2 10 -20 26 -41 36
-42 19 -50 47 -14 47 13 0 28 -5 35 -12 17 -17 28 -2 12 17 -16 20 -64 19 -84
-1z"/>
<path d="M2152 547 c-65 -69 33 -172 100 -105 16 16 18 23 8 26 -7 3 -17 -3
-22 -12 -11 -20 -52 -21 -72 0 -18 18 -20 47 -6 75 13 24 65 26 78 3 5 -9 15
-15 22 -12 23 7 -27 48 -58 48 -17 0 -37 -10 -50 -23z"/>
<path d="M2310 495 c0 -43 4 -75 10 -75 6 0 10 22 10 49 0 48 13 73 42 84 7 2
9 8 5 13 -4 4 -17 3 -27 -4 -12 -7 -20 -8 -20 -2 0 5 -4 10 -10 10 -6 0 -10
-32 -10 -75z"/>
<path d="M2420 495 c0 -43 4 -75 10 -75 6 0 10 32 10 75 0 43 -4 75 -10 75 -6
0 -10 -32 -10 -75z"/>
<path d="M2490 460 c0 -67 4 -110 10 -110 6 0 10 20 10 45 0 42 11 58 25 35 3
-5 19 -10 35 -10 35 0 70 40 70 80 0 51 -74 91 -109 58 -11 -10 -14 -10 -18 0
-14 37 -23 -1 -23 -98z m117 64 c15 -24 15 -29 2 -53 -11 -19 -23 -26 -44 -26
-21 0 -33 7 -44 26 -13 24 -13 29 2 53 11 16 27 26 42 26 15 0 31 -10 42 -26z"/>
<path d="M670 261 c0 -11 -6 -22 -12 -25 -10 -5 -10 -7 0 -12 7 -3 12 -26 12
-58 0 -54 12 -76 42 -76 24 0 23 16 -2 23 -17 4 -20 14 -20 56 0 44 3 51 20
51 11 0 20 5 20 10 0 6 -9 10 -20 10 -13 0 -20 7 -20 20 0 11 -4 20 -10 20 -5
0 -10 -9 -10 -19z"/>
<path d="M403 221 l-33 -27 33 -32 c18 -18 39 -32 47 -32 9 1 0 13 -20 31
l-35 30 33 30 c41 37 18 38 -25 0z"/>
<path d="M915 220 l29 -30 -29 -30 c-20 -21 -24 -30 -14 -30 9 0 28 13 44 30
l29 30 -29 30 c-16 17 -35 30 -44 30 -10 0 -6 -9 14 -30z"/>
<path d="M770 165 c0 -88 18 -102 22 -17 3 48 7 59 26 67 12 5 22 13 22 17 0
12 -25 9 -38 -4 -9 -9 -12 -9 -12 0 0 7 -4 12 -10 12 -6 0 -10 -32 -10 -75z"/>
</g>
</svg>
