<?xml version="1.0" standalone="no"?>
<!DOCTYPE svg PUBLIC "-//W3C//DTD SVG 20010904//EN"
 "http://www.w3.org/TR/2001/REC-SVG-20010904/DTD/svg10.dtd">
<svg version="1.0" xmlns="http://www.w3.org/2000/svg"
 width="698.000000pt" height="74.000000pt" viewBox="0 0 698.000000 74.000000"
 preserveAspectRatio="xMidYMid meet">

<g transform="translate(0.000000,74.000000) scale(0.100000,-0.100000)"
fill="#000000" stroke="none">
<path d="M668 733 l-648 -3 0 -345 0 -345 3470 0 3470 0 0 345 0 345 -2794 0
c-1536 0 -2806 1 -2822 3 -16 1 -320 1 -676 0z m6272 -130 l0 -116 -23 21
c-35 33 -56 27 -23 -7 l27 -28 -28 -21 c-15 -11 -25 -24 -20 -28 4 -4 21 5 37
21 l30 29 0 -212 0 -212 -3260 0 c-2601 0 -3260 3 -3260 13 0 6 14 64 30 127
27 106 31 143 11 112 -4 -7 -20 -67 -35 -133 l-28 -119 -179 0 -179 0 0 335 0
335 3450 0 3450 0 0 -117z"/>
<path d="M6497 610 c-11 -25 -64 -255 -61 -259 2 -2 7 -2 10 2 10 10 65 239
61 256 -3 14 -5 14 -10 1z"/>
<path d="M400 480 c0 -53 4 -90 10 -90 6 0 10 22 10 50 0 38 4 52 19 60 25 13
27 13 45 -6 10 -9 16 -33 16 -60 0 -26 5 -44 11 -44 16 0 6 94 -12 116 -9 11
-23 14 -46 11 -31 -5 -33 -4 -33 24 0 16 -4 29 -10 29 -6 0 -10 -37 -10 -90z"/>
<path d="M1400 533 c0 -29 -3 -34 -12 -25 -18 18 -63 14 -81 -6 -22 -25 -21
-75 1 -95 21 -19 45 -21 73 -7 13 7 19 7 19 0 0 -5 5 -10 10 -10 6 0 10 37 10
90 0 53 -4 90 -10 90 -5 0 -10 -17 -10 -37z m-5 -63 c10 -31 -12 -62 -42 -58
-33 4 -48 27 -39 61 10 42 67 41 81 -3z"/>
<path d="M1460 560 c0 -5 5 -10 10 -10 6 0 10 5 10 10 0 6 -4 10 -10 10 -5 0
-10 -4 -10 -10z"/>
<path d="M1520 480 c0 -53 4 -90 10 -90 6 0 10 37 10 90 0 53 -4 90 -10 90 -6
0 -10 -37 -10 -90z"/>
<path d="M2370 560 c0 -5 5 -10 10 -10 6 0 10 5 10 10 0 6 -4 10 -10 10 -5 0
-10 -4 -10 -10z"/>
<path d="M2590 480 c0 -53 4 -90 10 -90 6 0 10 37 10 90 0 53 -4 90 -10 90 -6
0 -10 -37 -10 -90z"/>
<path d="M2718 564 c-11 -11 -10 -174 1 -174 5 0 11 6 14 13 4 10 7 10 18 0
37 -35 107 15 94 67 -4 13 -11 31 -17 37 -12 15 -57 17 -78 3 -12 -8 -16 -3
-20 26 -3 20 -8 32 -12 28z m84 -66 c21 -18 27 -39 17 -65 -9 -25 -47 -31 -67
-11 -18 18 -15 65 6 77 22 13 25 13 44 -1z"/>
<path d="M3200 560 c0 -5 7 -10 15 -10 8 0 15 5 15 10 0 6 -7 10 -15 10 -8 0
-15 -4 -15 -10z"/>
<path d="M3607 563 c-11 -11 -8 -173 3 -173 6 0 10 37 10 90 0 90 -1 96 -13
83z"/>
<path d="M4068 564 c-12 -11 -10 -174 2 -174 6 0 10 18 10 39 0 23 8 48 18 61
16 19 22 21 40 11 18 -10 22 -21 22 -61 0 -28 5 -50 10 -50 6 0 10 24 10 54 0
64 -15 81 -65 73 -32 -5 -34 -4 -37 25 -2 16 -6 26 -10 22z"/>
<path d="M4540 480 c0 -53 4 -90 10 -90 6 0 10 12 10 27 l0 27 30 -29 c39 -37
49 -27 14 14 l-27 32 29 30 c15 16 22 29 15 29 -6 0 -23 -12 -36 -27 l-24 -28
-1 53 c0 28 -4 52 -10 52 -6 0 -10 -37 -10 -90z"/>
<path d="M5428 533 c0 -21 0 -51 1 -66 3 -35 -14 -57 -45 -57 -32 0 -51 38
-35 69 12 21 21 25 55 21 11 -1 15 3 12 9 -4 6 -20 11 -36 11 -32 0 -60 -31
-60 -65 0 -47 68 -83 98 -53 9 9 12 9 12 0 0 -7 5 -12 10 -12 6 0 10 37 10 90
0 53 -4 90 -10 90 -5 0 -11 -17 -12 -37z"/>
<path d="M6080 560 c0 -5 5 -10 10 -10 6 0 10 5 10 10 0 6 -4 10 -10 10 -5 0
-10 -4 -10 -10z"/>
<path d="M6550 480 c0 -53 4 -90 10 -90 6 0 10 20 10 44 0 42 18 76 40 76 22
0 40 -34 40 -76 0 -24 5 -44 10 -44 13 0 13 71 0 106 -10 24 -14 26 -50 21
-39 -5 -40 -4 -40 24 0 16 -4 29 -10 29 -6 0 -10 -37 -10 -90z"/>
<path d="M588 505 c-21 -29 -38 -59 -38 -64 0 -6 18 -11 40 -11 33 0 42 -4 50
-22 7 -18 9 -19 9 -5 1 10 8 20 16 23 8 4 15 10 15 15 0 5 -7 9 -15 9 -12 0
-15 13 -15 55 0 70 -14 71 -62 0z m52 -15 c0 -39 -1 -40 -35 -40 l-35 0 28 40
c15 21 30 39 35 40 4 0 7 -18 7 -40z"/>
<path d="M840 475 c0 -50 4 -85 10 -85 6 0 10 17 10 38 l1 37 33 -37 c18 -21
39 -38 45 -38 7 0 -3 19 -23 41 l-35 42 36 43 c43 54 33 57 -19 7 l-38 -37 0
37 c0 20 -4 37 -10 37 -6 0 -10 -35 -10 -85z"/>
<path d="M5117 553 c-11 -11 -8 -163 3 -163 6 0 10 35 10 85 0 85 -1 91 -13
78z"/>
<path d="M6741 503 c-23 -31 -41 -60 -41 -65 0 -4 20 -8 45 -8 38 0 45 -3 45
-20 0 -11 5 -20 10 -20 6 0 10 9 10 19 0 11 6 22 13 25 10 5 10 7 0 12 -8 3
-13 26 -13 60 0 71 -17 71 -69 -3z m49 -13 c0 -38 -2 -40 -30 -40 -16 0 -30 3
-30 7 0 8 49 73 56 73 2 0 4 -18 4 -40z"/>
<path d="M4970 535 c0 -8 -5 -15 -11 -15 -8 0 -8 -4 -1 -13 6 -7 12 -35 14
-62 3 -43 6 -50 26 -53 12 -2 22 1 22 7 0 6 -7 11 -15 11 -23 0 -21 97 3 103
16 4 16 5 0 6 -10 0 -18 8 -18 16 0 8 -4 15 -10 15 -5 0 -10 -7 -10 -15z"/>
<path d="M295 506 l-30 -25 32 -32 c37 -38 58 -32 23 6 l-23 25 23 25 c30 32
14 32 -25 1z"/>
<path d="M740 505 l23 -25 -23 -25 c-35 -38 -14 -44 23 -7 l32 32 -30 25 c-39
32 -55 32 -25 0z"/>
<path d="M6330 505 l-24 -25 29 -30 c16 -17 33 -30 39 -30 6 0 -2 12 -17 27
l-27 27 27 28 c19 20 22 28 12 28 -9 0 -26 -11 -39 -25z"/>
<path d="M995 506 c-24 -17 -24 -69 0 -96 23 -26 67 -26 90 0 14 16 15 20 4
20 -8 0 -20 -5 -26 -11 -16 -16 -57 -7 -61 14 -3 14 4 17 47 17 55 0 62 9 35
48 -17 25 -60 29 -89 8z m69 -12 c22 -22 11 -34 -30 -34 -38 0 -47 22 -16 39
23 14 28 14 46 -5z"/>
<path d="M1140 504 c-19 -22 -16 -70 5 -94 20 -23 55 -26 74 -7 11 10 14 10
18 0 12 -33 23 -7 23 52 0 37 -4 65 -10 65 -5 0 -10 -5 -10 -12 0 -9 -3 -9
-12 0 -17 17 -73 15 -88 -4z m72 -6 c39 -32 25 -88 -21 -88 -30 0 -48 26 -42
60 2 15 29 40 41 40 3 0 13 -6 22 -12z"/>
<path d="M1460 455 c0 -37 4 -65 10 -65 6 0 10 28 10 65 0 37 -4 65 -10 65 -6
0 -10 -28 -10 -65z"/>
<path d="M1587 502 c-21 -23 -22 -61 -1 -90 16 -24 44 -28 75 -12 13 7 19 7
19 0 0 -5 5 -10 10 -10 6 0 10 28 10 65 0 37 -4 65 -10 65 -5 0 -10 -5 -10
-12 0 -9 -3 -9 -12 0 -18 18 -63 14 -81 -6z m91 -41 c4 -28 -14 -51 -42 -51
-47 0 -63 57 -24 84 19 13 25 14 43 2 11 -7 21 -23 23 -35z"/>
<path d="M1740 454 c0 -36 4 -64 10 -64 6 0 10 22 10 50 0 38 4 52 19 60 25
13 27 13 45 -6 10 -9 16 -33 16 -60 0 -24 5 -44 10 -44 14 0 12 70 -3 100 -11
21 -20 25 -60 26 l-47 2 0 -64z"/>
<path d="M1967 513 c-4 -3 -7 -16 -7 -29 0 -17 9 -25 35 -34 19 -6 35 -18 35
-26 0 -17 -41 -19 -58 -2 -6 6 -14 9 -17 6 -10 -10 26 -38 49 -38 54 0 63 53
10 70 -23 8 -34 17 -32 28 4 22 23 25 42 6 20 -20 34 -11 16 11 -13 15 -61 21
-73 8z"/>
<path d="M2097 502 c-23 -25 -21 -68 3 -92 58 -58 142 20 94 88 -19 28 -74 30
-97 4z m91 -41 c4 -28 -14 -51 -42 -51 -47 0 -63 57 -24 84 19 13 25 14 43 2
11 -7 21 -23 23 -35z"/>
<path d="M2252 511 c-23 -14 -9 -45 26 -60 17 -8 32 -21 32 -28 0 -17 -47 -17
-53 0 -2 6 -8 9 -12 5 -11 -11 14 -38 35 -38 33 0 50 12 50 35 0 18 -9 27 -35
36 -19 7 -35 18 -35 25 0 20 28 24 45 7 18 -18 30 -11 22 12 -7 16 -53 20 -75
6z"/>
<path d="M2370 455 c0 -37 4 -65 10 -65 6 0 10 28 10 65 0 37 -4 65 -10 65 -6
0 -10 -28 -10 -65z"/>
<path d="M2437 502 c-21 -23 -22 -61 -1 -90 16 -24 44 -28 75 -12 13 7 19 7
19 0 0 -5 5 -10 10 -10 6 0 10 28 10 65 0 37 -4 65 -10 65 -5 0 -10 -5 -10
-12 0 -9 -3 -9 -12 0 -18 18 -63 14 -81 -6z m91 -41 c4 -28 -14 -51 -42 -51
-47 0 -63 57 -24 84 19 13 25 14 43 2 11 -7 21 -23 23 -35z"/>
<path d="M2887 502 c-21 -23 -22 -61 -1 -90 16 -24 44 -28 75 -12 13 7 19 7
19 0 0 -5 5 -10 10 -10 6 0 10 28 10 65 0 37 -4 65 -10 65 -5 0 -10 -5 -10
-12 0 -9 -3 -9 -12 0 -18 18 -63 14 -81 -6z m91 -41 c4 -28 -14 -51 -42 -51
-47 0 -63 57 -24 84 19 13 25 14 43 2 11 -7 21 -23 23 -35z"/>
<path d="M3050 504 c-19 -22 -16 -70 5 -94 19 -21 60 -27 70 -10 3 6 10 10 16
10 15 0 10 -26 -9 -50 -18 -22 -20 -23 -52 -7 -38 20 -48 17 -24 -7 25 -26 85
-18 101 14 15 30 17 160 3 160 -5 0 -10 -5 -10 -12 0 -9 -3 -9 -12 0 -17 17
-73 15 -88 -4z m72 -6 c39 -32 25 -88 -21 -88 -30 0 -48 26 -42 60 2 15 29 40
41 40 3 0 13 -6 22 -12z"/>
<path d="M3200 455 c0 -37 4 -65 10 -65 6 0 10 28 10 65 0 37 -4 65 -10 65 -6
0 -10 -28 -10 -65z"/>
<path d="M3337 513 c-4 -3 -7 -16 -7 -29 0 -17 9 -25 35 -34 19 -6 35 -18 35
-26 0 -17 -41 -19 -58 -2 -6 6 -14 9 -17 6 -10 -10 26 -38 49 -38 54 0 63 53
10 70 -23 8 -34 17 -32 28 4 22 23 25 42 6 20 -20 34 -11 16 11 -13 15 -61 21
-73 8z"/>
<path d="M3467 502 c-22 -25 -21 -75 1 -95 25 -23 65 -21 87 3 16 18 16 20 2
20 -10 0 -17 -5 -17 -11 0 -18 -64 -6 -68 14 -3 14 4 17 47 17 43 0 51 3 51
18 0 46 -72 69 -103 34z m64 -2 c34 -19 23 -40 -21 -40 -43 0 -55 20 -22 39
21 13 20 13 43 1z"/>
<path d="M3662 470 c3 -27 11 -56 18 -65 14 -17 56 -20 65 -5 3 6 -4 10 -17
10 -35 0 -48 19 -48 67 0 25 -5 43 -11 43 -8 0 -10 -17 -7 -50z"/>
<path d="M3758 468 c-5 -57 -1 -78 13 -78 5 0 9 29 9 65 0 78 -16 87 -22 13z"/>
<path d="M3820 455 c0 -37 4 -65 10 -65 6 0 10 23 10 51 0 42 3 52 20 56 11 3
20 9 20 14 0 13 -14 11 -28 -3 -9 -9 -12 -9 -12 0 0 7 -4 12 -10 12 -6 0 -10
-28 -10 -65z"/>
<path d="M3910 471 c0 -63 18 -82 71 -79 l39 3 -1 65 -1 65 -9 -49 c-9 -57
-18 -69 -50 -64 -21 3 -24 9 -27 56 -4 66 -22 69 -22 3z"/>
<path d="M4280 453 c0 -35 4 -63 10 -63 6 0 10 16 10 36 0 42 15 74 35 74 8 0
15 4 15 9 0 5 -16 9 -35 8 l-35 -1 0 -63z"/>
<path d="M4387 502 c-22 -25 -21 -75 1 -95 21 -19 45 -21 73 -7 13 7 19 7 19
0 0 -5 5 -10 10 -10 6 0 10 28 10 65 0 37 -4 65 -10 65 -5 0 -10 -5 -10 -12 0
-9 -3 -9 -12 0 -18 18 -63 14 -81 -6z m88 -32 c10 -31 -12 -62 -42 -58 -33 4
-48 27 -39 61 10 42 67 41 81 -3z"/>
<path d="M4650 517 c0 -2 11 -31 25 -66 19 -47 23 -66 15 -81 -12 -23 -13 -40
-2 -40 5 0 24 37 41 83 18 45 35 88 38 95 3 6 1 12 -5 12 -5 0 -18 -24 -30
-52 l-20 -53 -15 35 c-8 19 -17 43 -20 53 -5 14 -27 25 -27 14z"/>
<path d="M4806 498 c-22 -30 -20 -60 4 -86 23 -24 59 -29 78 -10 9 9 12 9 12
0 0 -7 5 -12 10 -12 6 0 10 28 10 65 0 36 -4 65 -9 65 -13 0 -20 -23 -14 -53
7 -33 -12 -57 -43 -57 -31 0 -50 34 -35 66 11 24 20 28 55 24 11 -1 15 3 12 9
-13 20 -64 12 -80 -11z"/>
<path d="M5170 453 c0 -35 4 -63 10 -63 6 0 10 18 10 39 0 23 8 48 18 61 16
19 22 21 40 11 18 -10 22 -21 22 -61 0 -28 5 -50 10 -50 15 0 12 106 -3 119
-8 6 -35 10 -60 9 l-47 -2 0 -63z"/>
<path d="M5501 493 c-23 -28 -21 -54 7 -85 34 -40 105 -8 105 47 0 62 -74 87
-112 38z m70 7 c22 -12 26 -59 7 -78 -20 -20 -58 -14 -67 11 -10 26 -4 47 17
65 19 15 19 15 43 2z"/>
<path d="M5650 453 c0 -35 4 -63 10 -63 6 0 10 22 10 50 0 40 4 51 21 60 32
18 49 -4 49 -61 0 -27 5 -49 10 -49 15 0 12 106 -4 119 -7 6 -32 10 -55 9
l-41 -1 0 -64z"/>
<path d="M5815 506 c-24 -17 -24 -69 0 -96 23 -26 67 -26 90 0 14 16 15 20 4
20 -8 0 -20 -5 -26 -11 -16 -16 -57 -7 -61 14 -3 14 4 17 47 17 55 0 62 9 35
48 -17 25 -60 29 -89 8z m69 -12 c22 -22 11 -34 -30 -34 -38 0 -47 22 -16 39
23 14 28 14 46 -5z"/>
<path d="M5962 511 c-23 -14 -9 -45 26 -60 17 -8 32 -21 32 -28 0 -17 -47 -17
-53 0 -2 6 -8 9 -12 5 -11 -11 14 -38 35 -38 33 0 50 12 50 35 0 18 -9 27 -35
36 -19 7 -35 18 -35 25 0 20 28 24 45 7 18 -18 30 -11 22 12 -7 16 -53 20 -75
6z"/>
<path d="M6080 455 c0 -37 4 -65 10 -65 6 0 10 28 10 65 0 37 -4 65 -10 65 -6
0 -10 -28 -10 -65z"/>
<path d="M6147 502 c-21 -23 -22 -61 -1 -90 16 -24 44 -28 75 -12 13 7 19 7
19 0 0 -5 5 -10 10 -10 6 0 10 28 10 65 0 37 -4 65 -10 65 -5 0 -10 -5 -10
-12 0 -9 -3 -9 -12 0 -18 18 -63 14 -81 -6z m91 -41 c4 -28 -14 -51 -42 -51
-47 0 -63 57 -24 84 19 13 25 14 43 2 11 -7 21 -23 23 -35z"/>
<path d="M518 254 c-11 -11 -10 -174 1 -174 5 0 11 6 14 13 4 10 7 10 18 0 37
-35 107 15 94 67 -4 13 -11 31 -17 37 -12 15 -57 17 -78 3 -12 -8 -16 -3 -20
26 -3 20 -8 32 -12 28z m84 -66 c21 -18 27 -39 17 -65 -9 -25 -47 -31 -67 -11
-18 18 -15 65 6 77 22 13 25 13 44 -1z"/>
<path d="M295 196 l-30 -25 32 -32 c37 -38 58 -32 23 6 l-23 25 23 25 c30 32
14 32 -25 1z"/>
<path d="M804 191 l27 -28 -28 -21 c-15 -11 -24 -24 -20 -28 4 -4 22 6 39 24
l32 31 -24 26 c-13 14 -30 25 -39 25 -10 0 -7 -9 13 -29z"/>
<path d="M680 143 c0 -35 4 -63 10 -63 6 0 10 23 10 51 0 42 3 52 20 56 30 8
24 22 -10 21 l-30 -1 0 -64z"/>
</g>
</svg>
