<?xml version="1.0" standalone="no"?>
<!DOCTYPE svg PUBLIC "-//W3C//DTD SVG 20010904//EN"
 "http://www.w3.org/TR/2001/REC-SVG-20010904/DTD/svg10.dtd">
<svg version="1.0" xmlns="http://www.w3.org/2000/svg"
 width="388.000000pt" height="128.000000pt" viewBox="0 0 388.000000 128.000000"
 preserveAspectRatio="xMidYMid meet">

<g transform="translate(0.000000,128.000000) scale(0.100000,-0.100000)"
fill="#000000" stroke="none">
<path d="M0 655 l0 -615 1915 0 1915 0 0 615 0 615 -1915 0 -1915 0 0 -615z
m3810 0 l0 -605 -1895 0 -1895 0 0 605 0 605 1895 0 1895 0 0 -605z"/>
<path d="M1720 850 c0 -60 4 -100 10 -100 6 0 10 24 10 53 0 58 12 77 47 77
29 0 43 -27 43 -84 0 -25 5 -46 10 -46 16 0 12 103 -6 128 -17 24 -62 30 -82
10 -9 -9 -12 -4 -12 25 0 20 -4 37 -10 37 -6 0 -10 -40 -10 -100z"/>
<path d="M2300 850 c0 -60 4 -100 10 -100 6 0 10 40 10 100 0 60 -4 100 -10
100 -6 0 -10 -40 -10 -100z"/>
<path d="M290 875 c0 -37 4 -65 10 -65 6 0 10 28 10 65 0 37 -4 65 -10 65 -6
0 -10 -28 -10 -65z"/>
<path d="M370 845 l0 -95 40 0 c89 0 137 61 106 134 -17 40 -47 56 -107 56
l-39 0 0 -95z m110 55 c12 -12 20 -33 20 -55 0 -46 -29 -75 -75 -75 l-35 0 0
75 0 75 35 0 c22 0 43 -8 55 -20z"/>
<path d="M589 911 c-76 -76 17 -202 112 -151 10 6 26 25 35 42 50 96 -70 186
-147 109z m114 -8 c27 -31 26 -84 -3 -113 -29 -29 -74 -26 -99 6 -27 34 -27
64 0 98 24 31 77 36 102 9z"/>
<path d="M808 910 c-27 -28 -30 -36 -25 -73 11 -81 95 -115 154 -62 31 27 13
35 -21 10 -47 -35 -110 -2 -110 58 0 21 8 45 19 57 22 24 77 27 95 5 7 -8 20
-15 29 -15 12 1 9 7 -12 25 -41 36 -90 34 -129 -5z"/>
<path d="M1000 930 c0 -5 11 -10 25 -10 25 0 25 -1 25 -85 0 -50 4 -85 10 -85
6 0 10 35 10 85 0 84 0 85 25 85 14 0 25 5 25 10 0 6 -27 10 -60 10 -33 0 -60
-4 -60 -10z"/>
<path d="M1180 880 c16 -33 30 -75 30 -95 0 -19 5 -35 10 -35 6 0 10 17 10 38
0 22 12 59 30 91 34 61 34 61 20 61 -6 0 -20 -20 -32 -45 -12 -25 -25 -45 -29
-45 -4 0 -15 20 -26 45 -10 25 -24 45 -31 45 -8 0 -2 -21 18 -60z"/>
<path d="M1330 845 c0 -57 4 -95 10 -95 6 0 10 18 10 40 0 37 2 40 28 40 38 0
72 26 72 55 0 36 -26 55 -76 55 l-44 0 0 -95z m97 59 c10 -26 -11 -49 -46 -52
-30 -3 -31 -2 -31 32 0 34 2 36 35 36 24 0 38 -5 42 -16z"/>
<path d="M1490 845 l0 -95 50 0 c58 0 68 17 13 22 -35 3 -38 6 -38 33 0 27 4
30 33 33 43 4 41 22 -3 22 -32 0 -35 2 -35 30 0 28 2 30 40 30 22 0 40 5 40
10 0 6 -22 10 -50 10 l-50 0 0 -95z"/>
<path d="M1910 921 c0 -11 -6 -22 -12 -25 -10 -5 -10 -7 0 -12 7 -4 12 -27 12
-64 0 -58 8 -70 46 -70 21 0 17 17 -6 23 -17 4 -20 14 -20 56 0 44 3 51 20 51
11 0 20 5 20 10 0 6 -9 10 -20 10 -13 0 -20 7 -20 20 0 11 -4 20 -10 20 -5 0
-10 -9 -10 -19z"/>
<path d="M155 880 l-29 -30 29 -30 c16 -16 35 -30 44 -30 10 0 6 9 -14 30
l-29 30 29 30 c20 21 24 30 14 30 -9 0 -28 -13 -44 -30z"/>
<path d="M2405 880 l29 -30 -29 -30 c-20 -21 -24 -30 -14 -30 9 0 28 14 44 30
l29 30 -29 30 c-16 17 -35 30 -44 30 -10 0 -6 -9 14 -30z"/>
<path d="M2010 825 c0 -43 4 -75 10 -75 6 0 10 24 10 54 0 59 14 80 52 74 21
-3 23 -9 26 -65 2 -46 7 -63 17 -63 10 0 15 16 17 56 3 64 23 88 56 68 12 -8
18 -27 20 -68 4 -77 22 -71 22 9 0 53 -3 66 -19 75 -28 14 -57 13 -74 -5 -13
-13 -16 -13 -27 0 -15 18 -61 20 -78 3 -9 -9 -12 -9 -12 0 0 7 -4 12 -10 12
-6 0 -10 -32 -10 -75z"/>
<path d="M287 774 c-8 -8 1 -24 14 -24 5 0 9 7 9 15 0 15 -12 20 -23 9z"/>
<path d="M280 520 c0 -60 4 -100 10 -100 6 0 10 21 10 46 0 57 14 84 43 84 35
0 47 -19 47 -77 0 -29 5 -53 10 -53 6 0 10 26 10 58 0 44 -5 63 -18 75 -22 20
-63 22 -80 5 -9 -9 -12 -4 -12 25 0 20 -4 37 -10 37 -6 0 -10 -40 -10 -100z"/>
<path d="M858 558 c-4 -82 1 -138 13 -138 5 0 9 44 9 100 0 109 -16 138 -22
38z"/>
<path d="M470 591 c0 -11 -6 -22 -12 -25 -10 -5 -10 -7 0 -12 7 -4 12 -27 12
-64 0 -58 8 -70 46 -70 21 0 17 17 -6 23 -17 4 -20 14 -20 56 0 44 3 51 20 51
11 0 20 5 20 10 0 6 -9 10 -20 10 -13 0 -20 7 -20 20 0 11 -4 20 -10 20 -5 0
-10 -9 -10 -19z"/>
<path d="M155 550 l-29 -30 29 -30 c16 -16 35 -30 44 -30 10 0 6 9 -14 30
l-29 30 29 30 c20 21 24 30 14 30 -9 0 -28 -13 -44 -30z"/>
<path d="M970 552 l34 -29 -35 -31 c-22 -21 -29 -32 -18 -32 8 0 29 15 47 33
l31 32 -34 28 c-45 36 -69 35 -25 -1z"/>
<path d="M570 495 c0 -43 4 -75 10 -75 6 0 10 24 10 53 0 58 12 77 47 77 29 0
43 -27 43 -84 0 -25 5 -46 10 -46 6 0 10 24 10 53 0 58 12 77 47 77 28 0 43
-32 43 -91 0 -21 5 -39 10 -39 14 0 12 90 -3 120 -15 30 -61 39 -86 15 -16
-14 -19 -14 -31 0 -15 18 -61 20 -78 3 -9 -9 -12 -9 -12 0 0 7 -4 12 -10 12
-6 0 -10 -32 -10 -75z"/>
</g>
</svg>
