<?xml version="1.0" standalone="no"?>
<!DOCTYPE svg PUBLIC "-//W3C//DTD SVG 20010904//EN"
 "http://www.w3.org/TR/2001/REC-SVG-20010904/DTD/svg10.dtd">
<svg version="1.0" xmlns="http://www.w3.org/2000/svg"
 width="942.000000pt" height="72.000000pt" viewBox="0 0 942.000000 72.000000"
 preserveAspectRatio="xMidYMid meet">

<g transform="translate(0.000000,72.000000) scale(0.100000,-0.100000)"
fill="#000000" stroke="none">
<path d="M0 366 c0 -201 4 -347 9 -351 9 -5 1104 -6 6709 -5 l2692 0 0 350 0
350 -4705 0 -4705 0 0 -344z m9400 -1 l0 -335 -4690 0 -4690 0 0 335 0 335
4690 0 4690 0 0 -335z"/>
<path d="M1912 640 c0 -14 2 -19 5 -12 2 6 2 18 0 25 -3 6 -5 1 -5 -13z"/>
<path d="M1940 640 c0 -11 2 -20 4 -20 2 0 6 9 9 20 3 11 1 20 -4 20 -5 0 -9
-9 -9 -20z"/>
<path d="M6350 640 c0 -11 5 -20 10 -20 6 0 10 9 10 20 0 11 -4 20 -10 20 -5
0 -10 -9 -10 -20z"/>
<path d="M6380 640 c0 -11 5 -20 10 -20 6 0 10 9 10 20 0 11 -4 20 -10 20 -5
0 -10 -9 -10 -20z"/>
<path d="M7327 640 c3 -11 7 -20 9 -20 2 0 4 9 4 20 0 11 -4 20 -9 20 -5 0 -7
-9 -4 -20z"/>
<path d="M7360 640 c0 -11 2 -20 4 -20 2 0 6 9 9 20 3 11 1 20 -4 20 -5 0 -9
-9 -9 -20z"/>
<path d="M7680 640 c0 -11 5 -20 10 -20 6 0 10 9 10 20 0 11 -4 20 -10 20 -5
0 -10 -9 -10 -20z"/>
<path d="M7710 640 c0 -11 5 -20 10 -20 6 0 10 9 10 20 0 11 -4 20 -10 20 -5
0 -10 -9 -10 -20z"/>
<path d="M8760 640 c0 -11 5 -20 10 -20 6 0 10 9 10 20 0 11 -4 20 -10 20 -5
0 -10 -9 -10 -20z"/>
<path d="M8790 640 c0 -11 5 -20 10 -20 6 0 10 9 10 20 0 11 -4 20 -10 20 -5
0 -10 -9 -10 -20z"/>
<path d="M9137 640 c3 -11 7 -20 9 -20 2 0 4 9 4 20 0 11 -4 20 -9 20 -5 0 -7
-9 -4 -20z"/>
<path d="M9170 640 c0 -11 2 -20 4 -20 2 0 6 9 9 20 3 11 1 20 -4 20 -5 0 -9
-9 -9 -20z"/>
<path d="M840 640 c0 -5 5 -10 10 -10 6 0 10 5 10 10 0 6 -4 10 -10 10 -5 0
-10 -4 -10 -10z"/>
<path d="M2330 640 c0 -5 5 -10 10 -10 6 0 10 5 10 10 0 6 -4 10 -10 10 -5 0
-10 -4 -10 -10z"/>
<path d="M2450 560 c0 -53 4 -90 10 -90 6 0 10 37 10 90 0 53 -4 90 -10 90 -6
0 -10 -37 -10 -90z"/>
<path d="M2920 560 c0 -53 4 -90 10 -90 6 0 10 5 10 10 0 7 6 7 19 0 11 -5 28
-10 39 -10 46 0 70 80 34 113 -22 20 -63 22 -80 5 -9 -9 -12 -4 -12 25 0 20
-4 37 -10 37 -6 0 -10 -37 -10 -90z m108 -14 c2 -15 -2 -34 -9 -42 -17 -20
-56 -17 -69 5 -14 28 -13 38 10 61 26 26 64 13 68 -24z"/>
<path d="M4550 640 c0 -5 5 -10 10 -10 6 0 10 5 10 10 0 6 -4 10 -10 10 -5 0
-10 -4 -10 -10z"/>
<path d="M4610 560 c0 -53 4 -90 10 -90 6 0 10 37 10 90 0 53 -4 90 -10 90 -6
0 -10 -37 -10 -90z"/>
<path d="M5020 640 c0 -5 7 -10 15 -10 8 0 15 5 15 10 0 6 -7 10 -15 10 -8 0
-15 -4 -15 -10z"/>
<path d="M5087 643 c-11 -11 -8 -173 3 -173 6 0 10 37 10 90 0 90 -1 96 -13
83z"/>
<path d="M5370 560 c0 -53 4 -90 10 -90 6 0 10 11 10 25 0 14 3 25 6 25 3 0
15 -11 26 -25 11 -14 27 -25 36 -25 12 0 7 9 -16 33 l-32 33 32 32 c40 39 17
44 -24 5 l-28 -27 0 52 c0 29 -4 52 -10 52 -6 0 -10 -37 -10 -90z"/>
<path d="M5803 640 c-13 -5 -23 -16 -23 -25 0 -20 16 -19 24 1 9 23 50 14 54
-12 2 -16 -4 -25 -25 -32 l-28 -10 27 -10 c32 -13 40 -25 32 -46 -8 -21 -43
-20 -66 1 -26 23 -34 9 -9 -16 27 -27 66 -27 85 1 20 28 20 33 0 53 -13 12
-14 19 -5 28 21 21 13 57 -15 67 -14 6 -26 10 -27 9 -1 0 -12 -4 -24 -9z"/>
<path d="M5970 640 c0 -5 5 -10 10 -10 6 0 10 5 10 10 0 6 -4 10 -10 10 -5 0
-10 -4 -10 -10z"/>
<path d="M6690 640 c0 -5 7 -10 15 -10 8 0 15 5 15 10 0 6 -7 10 -15 10 -8 0
-15 -4 -15 -10z"/>
<path d="M6860 613 c0 -29 -3 -34 -12 -25 -17 17 -73 15 -88 -4 -19 -22 -16
-70 5 -94 20 -23 55 -26 74 -7 11 10 14 10 18 0 13 -36 23 -3 23 77 0 53 -4
90 -10 90 -5 0 -10 -17 -10 -37z m-28 -35 c39 -32 25 -88 -21 -88 -30 0 -48
26 -42 60 2 15 29 40 41 40 3 0 13 -6 22 -12z"/>
<path d="M7008 644 c-12 -11 -10 -174 2 -174 6 0 10 18 10 39 0 23 8 48 18 61
16 19 22 21 40 11 18 -10 22 -21 22 -61 0 -28 5 -50 10 -50 6 0 10 24 10 54 0
64 -15 81 -65 73 -32 -5 -34 -4 -37 25 -2 16 -6 26 -10 22z"/>
<path d="M7569 637 c-26 -13 -42 -66 -32 -107 22 -94 113 -71 113 28 0 70 -33
102 -81 79z m49 -19 c7 -7 12 -33 12 -58 0 -49 -13 -70 -42 -70 -23 0 -41 45
-34 84 10 51 38 70 64 44z"/>
<path d="M7828 644 c-12 -11 -10 -174 2 -174 6 0 10 18 10 39 0 23 8 48 18 61
16 19 22 21 40 11 18 -10 22 -21 22 -61 0 -28 5 -50 10 -50 6 0 10 24 10 54 0
64 -15 81 -65 73 -32 -5 -34 -4 -37 25 -2 16 -6 26 -10 22z"/>
<path d="M8130 640 c0 -5 5 -10 10 -10 6 0 10 5 10 10 0 6 -4 10 -10 10 -5 0
-10 -4 -10 -10z"/>
<path d="M8350 560 c0 -53 4 -90 10 -90 6 0 10 20 10 44 0 42 18 76 40 76 22
0 40 -34 40 -76 0 -24 5 -44 10 -44 13 0 13 71 0 106 -10 24 -14 26 -50 21
-39 -5 -40 -4 -40 24 0 16 -4 29 -10 29 -6 0 -10 -37 -10 -90z"/>
<path d="M8872 639 c-29 -11 -38 -36 -23 -62 9 -14 10 -22 2 -30 -15 -15 -14
-50 1 -65 21 -21 75 -15 92 10 20 28 20 33 1 52 -13 13 -13 19 -3 36 23 37
-23 76 -70 59z m46 -18 c25 -15 10 -46 -23 -46 -21 0 -31 5 -33 19 -4 18 13
36 33 36 6 0 16 -4 23 -9z m11 -85 c23 -28 -12 -63 -50 -51 -19 6 -26 44 -12
58 11 12 50 8 62 -7z"/>
<path d="M9027 642 c-39 -8 -51 -118 -17 -152 34 -34 71 -24 89 23 28 74 -10
143 -72 129z m41 -21 c19 -11 27 -83 13 -110 -25 -46 -71 -19 -71 42 0 63 23
90 58 68z"/>
<path d="M7433 633 c53 -5 55 -9 26 -73 -35 -76 -40 -92 -28 -88 8 3 79 150
79 165 0 2 -28 2 -62 1 -57 -1 -58 -2 -15 -5z"/>
<path d="M2240 616 c0 -8 -6 -17 -12 -19 -10 -4 -10 -6 0 -6 8 -1 12 -18 12
-49 0 -51 12 -72 42 -72 24 0 23 16 -2 23 -16 4 -20 14 -20 46 0 34 4 43 23
51 l22 9 -22 0 c-14 1 -23 7 -23 16 0 8 -4 15 -10 15 -5 0 -10 -6 -10 -14z"/>
<path d="M6920 616 c0 -8 -6 -17 -12 -19 -10 -4 -10 -6 0 -6 8 -1 12 -18 12
-49 0 -51 12 -72 42 -72 24 0 23 16 -2 23 -16 4 -20 14 -20 46 0 34 4 43 23
51 l22 9 -22 0 c-14 1 -23 7 -23 16 0 8 -4 15 -10 15 -5 0 -10 -6 -10 -14z"/>
<path d="M8510 616 c0 -8 -6 -17 -12 -19 -10 -4 -10 -6 0 -6 8 -1 12 -18 12
-49 0 -51 12 -72 42 -72 24 0 23 16 -2 23 -16 4 -20 14 -20 46 0 34 4 43 23
51 l22 9 -22 0 c-14 1 -23 7 -23 16 0 8 -4 15 -10 15 -5 0 -10 -6 -10 -14z"/>
<path d="M735 586 l-30 -25 32 -32 c37 -38 58 -32 23 6 l-23 25 23 25 c30 32
14 32 -25 1z"/>
<path d="M840 535 c0 -37 4 -65 10 -65 6 0 10 28 10 65 0 37 -4 65 -10 65 -6
0 -10 -28 -10 -65z"/>
<path d="M900 533 c0 -35 4 -63 10 -63 6 0 10 22 10 50 0 40 4 51 21 60 32 18
49 -4 49 -61 0 -27 5 -49 10 -49 6 0 10 20 10 44 0 42 18 76 40 76 22 0 40
-34 40 -76 0 -24 5 -44 10 -44 16 0 12 83 -6 108 -16 24 -53 29 -72 10 -8 -8
-15 -8 -25 0 -8 7 -33 11 -56 10 l-41 -1 0 -64z"/>
<path d="M1157 582 c-21 -23 -22 -61 -1 -90 16 -24 44 -28 75 -12 16 9 19 7
19 -14 0 -37 -34 -52 -67 -31 -28 19 -42 13 -23 -10 17 -21 73 -19 93 3 13 14
17 38 17 95 0 45 -4 77 -10 77 -5 0 -10 -5 -10 -12 0 -9 -3 -9 -12 0 -18 18
-63 14 -81 -6z m91 -41 c4 -28 -14 -51 -42 -51 -47 0 -63 57 -24 84 19 13 25
14 43 2 11 -7 21 -23 23 -35z"/>
<path d="M1382 588 c-21 -21 -13 -38 22 -53 19 -8 37 -19 41 -25 10 -16 -26
-24 -47 -11 -25 15 -35 7 -18 -14 17 -21 67 -19 79 3 11 20 -3 52 -23 52 -7 0
-21 7 -32 15 -16 13 -17 16 -4 24 10 7 22 5 38 -5 22 -15 24 -14 20 3 -4 22
-57 30 -76 11z"/>
<path d="M1500 533 c0 -35 4 -63 10 -63 6 0 10 20 10 45 0 34 5 48 20 57 28
18 25 25 -10 25 l-30 0 0 -64z"/>
<path d="M1605 586 c-24 -17 -24 -69 0 -96 21 -24 67 -26 85 -5 16 19 5 34
-12 17 -20 -20 -58 -14 -67 11 -10 25 -4 47 16 63 15 13 53 7 53 -7 0 -5 7 -9
17 -9 14 0 14 2 -2 20 -21 23 -63 26 -90 6z"/>
<path d="M1997 582 c-22 -25 -21 -75 1 -95 21 -19 45 -21 73 -7 13 7 19 7 19
0 0 -5 5 -10 10 -10 6 0 10 28 10 65 0 37 -4 65 -10 65 -5 0 -10 -5 -10 -12 0
-9 -3 -9 -12 0 -18 18 -63 14 -81 -6z m88 -32 c10 -31 -12 -62 -42 -58 -33 4
-48 27 -39 61 10 42 67 41 81 -3z"/>
<path d="M2150 533 c0 -35 4 -63 10 -63 6 0 10 23 10 51 0 42 3 52 20 56 30 8
24 22 -10 21 l-30 -1 0 -64z"/>
<path d="M2330 535 c0 -37 4 -65 10 -65 6 0 10 28 10 65 0 37 -4 65 -10 65 -6
0 -10 -28 -10 -65z"/>
<path d="M2516 578 c-22 -30 -20 -60 4 -86 23 -24 59 -29 78 -10 9 9 12 9 12
0 0 -7 5 -12 10 -12 6 0 10 28 10 65 0 36 -4 65 -9 65 -13 0 -20 -23 -14 -53
7 -33 -12 -57 -43 -57 -31 0 -50 34 -35 66 11 24 20 28 55 24 11 -1 15 3 12 9
-13 20 -64 12 -80 -11z"/>
<path d="M2670 533 c0 -35 4 -63 10 -63 6 0 10 20 10 44 0 42 18 76 40 76 22
0 40 -34 40 -76 0 -24 5 -44 10 -44 6 0 10 22 10 50 0 40 4 51 21 60 32 18 49
-4 49 -61 0 -27 5 -49 10 -49 14 0 12 104 -2 118 -15 15 -60 16 -76 0 -8 -8
-15 -8 -25 0 -7 6 -32 10 -55 9 l-42 -1 0 -63z"/>
<path d="M3097 582 c-21 -23 -22 -61 -1 -90 16 -24 44 -28 75 -12 13 7 19 7
19 0 0 -5 5 -10 10 -10 6 0 10 28 10 65 0 37 -4 65 -10 65 -5 0 -10 -5 -10
-12 0 -9 -3 -9 -12 0 -18 18 -63 14 -81 -6z m91 -41 c4 -28 -14 -51 -42 -51
-47 0 -63 57 -24 84 19 13 25 14 43 2 11 -7 21 -23 23 -35z"/>
<path d="M3250 534 c0 -36 4 -64 10 -64 6 0 10 22 10 50 0 38 4 52 19 60 25
13 27 13 45 -6 10 -9 16 -33 16 -60 0 -24 5 -44 10 -44 14 0 12 70 -3 100 -11
21 -20 25 -60 26 l-47 2 0 -64z"/>
<path d="M3417 582 c-22 -25 -21 -75 1 -95 21 -19 45 -21 73 -7 16 9 19 7 19
-9 0 -19 -24 -51 -38 -51 -4 0 -18 7 -30 16 -27 19 -41 12 -22 -11 19 -23 76
-19 94 7 18 26 23 168 6 168 -5 0 -10 -5 -10 -12 0 -9 -3 -9 -12 0 -18 18 -63
14 -81 -6z m88 -32 c10 -31 -12 -62 -42 -58 -33 4 -48 27 -39 61 10 42 67 41
81 -3z"/>
<path d="M3630 505 c0 -57 4 -95 10 -95 6 0 10 18 10 40 0 37 2 40 19 30 11
-5 28 -10 39 -10 46 0 70 80 34 113 -22 20 -63 22 -80 5 -9 -9 -12 -9 -12 0 0
7 -4 12 -10 12 -6 0 -10 -38 -10 -95z m108 41 c2 -15 -2 -34 -9 -42 -17 -20
-56 -17 -69 5 -14 28 -13 38 10 61 26 26 64 13 68 -24z"/>
<path d="M3807 582 c-21 -23 -22 -61 -1 -90 16 -24 44 -28 75 -12 13 7 19 7
19 0 0 -5 5 -10 10 -10 6 0 10 28 10 65 0 37 -4 65 -10 65 -5 0 -10 -5 -10
-12 0 -9 -3 -9 -12 0 -18 18 -63 14 -81 -6z m91 -41 c4 -28 -14 -51 -42 -51
-47 0 -63 57 -24 84 19 13 25 14 43 2 11 -7 21 -23 23 -35z"/>
<path d="M3960 534 c0 -36 4 -64 10 -64 6 0 10 22 10 50 0 38 4 52 19 60 25
13 27 13 45 -6 10 -9 16 -33 16 -60 0 -24 5 -44 10 -44 14 0 12 70 -3 100 -11
21 -20 25 -60 26 l-47 2 0 -64z"/>
<path d="M4127 582 c-22 -25 -21 -75 1 -95 25 -23 65 -21 87 3 16 18 16 20 2
20 -10 0 -17 -4 -17 -10 0 -17 -57 -12 -64 6 -12 31 -6 63 13 74 25 13 27 13
45 -6 9 -8 21 -14 27 -12 21 7 -21 38 -50 38 -15 0 -35 -8 -44 -18z"/>
<path d="M4270 584 c-19 -22 -16 -70 5 -94 20 -23 55 -26 74 -7 11 10 14 10
18 0 12 -33 23 -7 23 52 0 37 -4 65 -10 65 -5 0 -10 -5 -10 -12 0 -9 -3 -9
-12 0 -17 17 -73 15 -88 -4z m72 -6 c39 -32 25 -88 -21 -88 -30 0 -48 26 -42
60 2 15 29 40 41 40 3 0 13 -6 22 -12z"/>
<path d="M4432 588 c-21 -21 -13 -38 22 -53 19 -8 37 -19 41 -25 10 -16 -26
-24 -47 -11 -25 15 -35 7 -18 -14 17 -21 67 -19 79 3 11 20 -3 52 -23 52 -7 0
-21 7 -32 15 -16 13 -17 16 -4 24 10 7 22 5 38 -5 22 -15 24 -14 20 3 -4 22
-57 30 -76 11z"/>
<path d="M4550 535 c0 -37 4 -65 10 -65 6 0 10 28 10 65 0 37 -4 65 -10 65 -6
0 -10 -28 -10 -65z"/>
<path d="M4676 578 c-22 -30 -20 -60 4 -86 23 -24 59 -29 78 -10 9 9 12 9 12
0 0 -7 5 -12 10 -12 6 0 10 28 10 65 0 36 -4 65 -9 65 -13 0 -20 -23 -14 -53
7 -33 -12 -57 -43 -57 -31 0 -50 34 -35 66 11 24 20 28 55 24 11 -1 15 3 12 9
-13 20 -64 12 -80 -11z"/>
<path d="M4902 583 c-14 -27 -5 -41 34 -53 19 -6 34 -16 34 -21 0 -17 -32 -23
-52 -10 -27 16 -38 3 -14 -15 26 -18 60 -18 76 1 18 22 6 42 -36 60 -35 14
-37 17 -21 32 15 16 18 15 37 -2 23 -21 39 -13 20 10 -17 21 -67 19 -78 -2z"/>
<path d="M5020 535 c0 -37 4 -65 10 -65 6 0 10 28 10 65 0 37 -4 65 -10 65 -6
0 -10 -28 -10 -65z"/>
<path d="M5157 582 c-22 -25 -21 -75 1 -95 21 -19 45 -21 73 -7 13 7 19 7 19
0 0 -5 5 -10 10 -10 6 0 10 28 10 65 0 37 -4 65 -10 65 -5 0 -10 -5 -10 -12 0
-9 -3 -9 -12 0 -18 18 -63 14 -81 -6z m88 -32 c10 -31 -12 -62 -42 -58 -33 4
-48 27 -39 61 10 42 67 41 81 -3z"/>
<path d="M5507 582 c-36 -40 -6 -112 46 -112 27 0 65 25 54 36 -4 4 -13 2 -19
-4 -15 -15 -51 -15 -66 0 -22 22 -13 28 42 28 51 0 54 1 49 23 -3 12 -10 28
-16 35 -14 18 -71 15 -90 -6z m64 -2 c32 -18 23 -40 -15 -40 -41 0 -52 12 -30
34 18 19 20 19 45 6z"/>
<path d="M5970 516 c0 -58 -4 -86 -12 -89 -7 -2 -10 -8 -6 -12 4 -4 14 -5 23
-2 12 5 15 25 15 97 0 53 -4 90 -10 90 -6 0 -10 -35 -10 -84z"/>
<path d="M6030 505 c0 -57 4 -95 10 -95 6 0 10 18 10 40 0 37 2 40 19 30 11
-5 28 -10 39 -10 46 0 70 80 34 113 -22 20 -63 22 -80 5 -9 -9 -12 -9 -12 0 0
7 -4 12 -10 12 -6 0 -10 -38 -10 -95z m108 41 c2 -15 -2 -34 -9 -42 -17 -20
-56 -17 -69 5 -14 28 -13 38 10 61 26 26 64 13 68 -24z"/>
<path d="M6207 582 c-21 -23 -22 -61 -1 -90 16 -24 44 -28 75 -12 16 9 19 7
19 -14 0 -37 -34 -52 -67 -31 -28 19 -42 13 -23 -10 17 -21 73 -19 93 3 13 14
17 38 17 95 0 45 -4 77 -10 77 -5 0 -10 -5 -10 -12 0 -9 -3 -9 -12 0 -18 18
-63 14 -81 -6z m91 -41 c4 -28 -14 -51 -42 -51 -47 0 -63 57 -24 84 19 13 25
14 43 2 11 -7 21 -23 23 -35z"/>
<path d="M6482 588 c3 -7 13 -37 23 -66 9 -29 22 -51 28 -49 5 1 17 25 25 53
l15 49 16 -49 c10 -28 22 -51 29 -54 6 -2 16 16 22 39 6 23 16 53 21 66 7 18
6 24 -3 21 -7 -3 -17 -23 -23 -46 -15 -59 -21 -59 -35 -3 -15 65 -34 65 -51 1
-7 -27 -16 -47 -20 -45 -3 3 -12 25 -18 50 -6 25 -16 45 -22 45 -6 0 -9 -6 -7
-12z"/>
<path d="M6690 535 c0 -37 4 -65 10 -65 6 0 10 28 10 65 0 37 -4 65 -10 65 -6
0 -10 -28 -10 -65z"/>
<path d="M7986 578 c-9 -12 -16 -32 -16 -43 0 -29 36 -65 63 -65 28 0 65 25
54 36 -4 4 -13 2 -19 -4 -15 -15 -51 -15 -66 0 -22 22 -13 28 44 28 53 0 55 1
48 23 -11 36 -25 47 -60 47 -23 0 -38 -7 -48 -22z m72 -4 c29 -20 20 -34 -22
-34 -42 0 -50 9 -29 32 20 22 23 22 51 2z"/>
<path d="M8130 535 c0 -37 4 -65 10 -65 6 0 10 28 10 65 0 37 -4 65 -10 65 -6
0 -10 -28 -10 -65z"/>
<path d="M8196 578 c-22 -30 -20 -60 4 -86 23 -24 59 -29 78 -10 9 9 12 6 12
-15 0 -38 -33 -54 -67 -32 -28 19 -42 13 -23 -10 19 -23 87 -20 100 4 12 24
14 171 1 171 -13 0 -20 -23 -14 -53 7 -33 -12 -57 -43 -57 -31 0 -50 34 -35
66 11 24 20 28 55 24 11 -1 15 3 12 9 -13 20 -64 12 -80 -11z"/>
<path d="M1778 583 c17 -2 47 -2 65 0 17 2 3 4 -33 4 -36 0 -50 -2 -32 -4z"/>
<path d="M7198 583 c17 -2 47 -2 65 0 17 2 3 4 -33 4 -36 0 -50 -2 -32 -4z"/>
<path d="M8628 583 c17 -2 47 -2 65 0 17 2 3 4 -33 4 -36 0 -50 -2 -32 -4z"/>
<path d="M5640 560 c0 -5 23 -10 50 -10 28 0 50 5 50 10 0 6 -22 10 -50 10
-27 0 -50 -4 -50 -10z"/>
<path d="M1750 530 c0 -6 27 -10 60 -10 33 0 60 4 60 10 0 6 -27 10 -60 10
-33 0 -60 -4 -60 -10z"/>
<path d="M7170 530 c0 -6 27 -10 60 -10 33 0 60 4 60 10 0 6 -27 10 -60 10
-33 0 -60 -4 -60 -10z"/>
<path d="M8600 530 c0 -6 27 -10 60 -10 33 0 60 4 60 10 0 6 -27 10 -60 10
-33 0 -60 -4 -60 -10z"/>
<path d="M5920 486 c0 -9 5 -16 10 -16 6 0 10 4 10 9 0 6 -4 13 -10 16 -5 3
-10 -1 -10 -9z"/>
<path d="M957 330 c3 -11 7 -20 9 -20 2 0 4 9 4 20 0 11 -4 20 -9 20 -5 0 -7
-9 -4 -20z"/>
<path d="M990 330 c0 -11 2 -20 4 -20 2 0 6 9 9 20 3 11 1 20 -4 20 -5 0 -9
-9 -9 -20z"/>
<path d="M1400 330 c0 -11 5 -20 10 -20 6 0 10 9 10 20 0 11 -4 20 -10 20 -5
0 -10 -9 -10 -20z"/>
<path d="M1442 330 c0 -14 2 -19 5 -12 2 6 2 18 0 25 -3 6 -5 1 -5 -13z"/>
<path d="M2620 330 c0 -11 2 -20 4 -20 2 0 6 9 9 20 3 11 1 20 -4 20 -5 0 -9
-9 -9 -20z"/>
<path d="M2650 330 c0 -11 5 -20 10 -20 6 0 10 9 10 20 0 11 -4 20 -10 20 -5
0 -10 -9 -10 -20z"/>
<path d="M2920 330 c0 -11 2 -20 4 -20 2 0 6 9 9 20 3 11 1 20 -4 20 -5 0 -9
-9 -9 -20z"/>
<path d="M2950 330 c0 -11 5 -20 10 -20 6 0 10 9 10 20 0 11 -4 20 -10 20 -5
0 -10 -9 -10 -20z"/>
<path d="M350 250 c0 -53 4 -90 10 -90 6 0 10 37 10 90 0 53 -4 90 -10 90 -6
0 -10 -37 -10 -90z"/>
<path d="M410 330 c0 -5 5 -10 10 -10 6 0 10 5 10 10 0 6 -4 10 -10 10 -5 0
-10 -4 -10 -10z"/>
<path d="M1037 333 c-11 -11 -8 -173 3 -173 6 0 10 37 10 90 0 90 -1 96 -13
83z"/>
<path d="M1257 333 c-4 -3 -7 -15 -7 -25 0 -10 -5 -18 -12 -18 -9 0 -9 -3 0
-12 7 -7 12 -36 12 -65 0 -29 5 -53 10 -53 6 0 10 26 10 59 0 48 3 60 18 64
16 4 16 5 0 6 -21 1 -24 21 -6 39 9 9 9 12 -3 12 -9 0 -19 -3 -22 -7z"/>
<path d="M1550 250 c0 -53 4 -90 10 -90 6 0 10 22 10 50 0 40 4 51 21 60 32
18 49 -4 49 -61 0 -27 5 -49 10 -49 6 0 10 24 10 54 0 62 -15 80 -60 74 -27
-4 -30 -2 -30 24 0 15 -4 28 -10 28 -6 0 -10 -37 -10 -90z"/>
<path d="M2813 329 c-58 -21 -58 -150 1 -165 36 -9 64 11 72 51 15 80 -20 134
-73 114z m47 -28 c24 -46 5 -121 -30 -121 -24 0 -40 29 -40 74 0 56 47 88 70
47z"/>
<path d="M2698 323 c8 -3 12 -30 12 -84 0 -46 4 -79 10 -79 6 0 10 35 10 85 0
82 -1 85 -22 84 -13 0 -17 -3 -10 -6z"/>
<path d="M1330 305 c0 -8 -5 -15 -11 -15 -8 0 -8 -4 -1 -13 6 -7 12 -35 14
-62 3 -43 6 -50 26 -53 12 -2 22 1 22 7 0 6 -7 11 -15 11 -23 0 -21 97 3 103
16 4 16 5 0 6 -10 0 -18 8 -18 16 0 8 -4 15 -10 15 -5 0 -10 -7 -10 -15z"/>
<path d="M197 272 c-21 -23 -22 -61 -1 -90 16 -24 44 -28 75 -12 13 7 19 7 19
0 0 -5 5 -10 10 -10 6 0 10 28 10 65 0 37 -4 65 -10 65 -5 0 -10 -5 -10 -12 0
-9 -3 -9 -12 0 -18 18 -63 14 -81 -6z m91 -41 c4 -28 -14 -51 -42 -51 -47 0
-63 57 -24 84 19 13 25 14 43 2 11 -7 21 -23 23 -35z"/>
<path d="M410 225 c0 -37 4 -65 10 -65 6 0 10 28 10 65 0 37 -4 65 -10 65 -6
0 -10 -28 -10 -65z"/>
<path d="M476 268 c-22 -30 -20 -60 4 -86 23 -24 59 -29 78 -10 9 9 12 6 12
-15 0 -38 -33 -54 -67 -32 -28 19 -42 13 -23 -10 19 -23 87 -20 100 4 12 24
14 171 1 171 -13 0 -20 -23 -14 -53 7 -33 -12 -57 -43 -57 -31 0 -50 34 -35
66 11 24 20 28 55 24 11 -1 15 3 12 9 -13 20 -64 12 -80 -11z"/>
<path d="M630 223 c0 -35 4 -63 10 -63 6 0 10 18 10 39 0 23 8 48 18 61 16 19
22 21 40 11 18 -10 22 -21 22 -61 0 -28 5 -50 10 -50 15 0 12 106 -3 119 -8 6
-35 10 -60 9 l-47 -2 0 -63z"/>
<path d="M1107 272 c-22 -25 -21 -75 1 -95 25 -23 65 -21 87 3 16 18 16 20 2
20 -10 0 -17 -5 -17 -11 0 -18 -64 -6 -68 14 -3 14 4 17 47 17 43 0 51 3 51
18 0 46 -72 69 -103 34z m64 -2 c34 -19 23 -40 -21 -40 -43 0 -55 20 -22 39
21 13 20 13 43 1z"/>
<path d="M1712 281 c-23 -14 -9 -45 26 -60 17 -8 32 -21 32 -28 0 -17 -47 -17
-53 0 -2 6 -8 9 -12 5 -11 -11 14 -38 35 -38 33 0 50 12 50 35 0 18 -9 27 -35
36 -19 7 -35 18 -35 25 0 20 26 23 50 7 20 -14 22 -14 18 3 -4 21 -53 31 -76
15z"/>
<path d="M1830 195 c0 -57 4 -95 10 -95 6 0 10 18 10 40 0 37 1 39 20 28 28
-18 72 1 84 35 20 56 -46 113 -90 76 -10 -8 -14 -8 -14 0 0 6 -4 11 -10 11 -6
0 -10 -38 -10 -95z m105 45 c9 -28 -12 -60 -38 -60 -48 0 -65 57 -25 84 25 18
53 7 63 -24z"/>
<path d="M2000 274 c-19 -22 -16 -70 5 -94 20 -23 55 -26 74 -7 11 10 14 10
18 0 12 -33 23 -7 23 52 0 37 -4 65 -10 65 -5 0 -10 -5 -10 -12 0 -9 -3 -9
-12 0 -17 17 -73 15 -88 -4z m72 -6 c39 -32 25 -88 -21 -88 -30 0 -48 26 -42
60 2 15 29 40 41 40 3 0 13 -6 22 -12z"/>
<path d="M2167 272 c-22 -25 -21 -75 1 -95 25 -23 65 -21 87 3 16 18 16 20 2
20 -10 0 -17 -4 -17 -10 0 -17 -57 -12 -64 6 -12 31 -6 63 13 74 25 13 27 13
45 -6 9 -8 21 -14 27 -12 21 7 -21 38 -50 38 -15 0 -35 -8 -44 -18z"/>
<path d="M2315 276 c-24 -17 -24 -69 0 -96 23 -26 67 -26 90 0 14 16 15 20 4
20 -8 0 -20 -5 -26 -11 -16 -16 -57 -7 -61 14 -3 14 4 17 47 17 55 0 62 9 35
48 -17 25 -60 29 -89 8z m70 -9 c25 -19 10 -37 -31 -37 -38 0 -47 22 -16 39
22 14 25 13 47 -2z"/>
<path d="M828 273 c17 -2 47 -2 65 0 17 2 3 4 -33 4 -36 0 -50 -2 -32 -4z"/>
<path d="M2488 273 c17 -2 47 -2 65 0 17 2 3 4 -33 4 -36 0 -50 -2 -32 -4z"/>
<path d="M800 220 c0 -6 27 -10 60 -10 33 0 60 4 60 10 0 6 -27 10 -60 10 -33
0 -60 -4 -60 -10z"/>
<path d="M2460 220 c0 -6 27 -10 60 -10 33 0 60 4 60 10 0 6 -27 10 -60 10
-33 0 -60 -4 -60 -10z"/>
</g>
</svg>
