<?xml version="1.0" standalone="no"?>
<!DOCTYPE svg PUBLIC "-//W3C//DTD SVG 20010904//EN"
 "http://www.w3.org/TR/2001/REC-SVG-20010904/DTD/svg10.dtd">
<svg version="1.0" xmlns="http://www.w3.org/2000/svg"
 width="666.000000pt" height="78.000000pt" viewBox="0 0 666.000000 78.000000"
 preserveAspectRatio="xMidYMid meet">

<g transform="translate(0.000000,78.000000) scale(0.100000,-0.100000)"
fill="#000000" stroke="none">
<path d="M30 400 l0 -370 3300 0 3300 0 0 370 0 370 -3300 0 -3300 0 0 -370z
m6590 0 l0 -360 -3290 0 -3290 0 0 360 0 360 3290 0 3290 0 0 -360z"/>
<path d="M180 570 c0 -53 4 -90 10 -90 6 0 10 20 10 44 0 42 18 76 40 76 22 0
40 -34 40 -76 0 -24 5 -44 10 -44 13 0 13 71 0 106 -10 24 -14 26 -50 21 -39
-5 -40 -4 -40 24 0 16 -4 29 -10 29 -6 0 -10 -37 -10 -90z"/>
<path d="M748 623 c0 -21 0 -51 1 -66 3 -35 -14 -57 -45 -57 -32 0 -51 38 -35
69 12 21 21 25 55 21 11 -1 15 3 12 9 -4 6 -20 11 -36 11 -32 0 -60 -31 -60
-65 0 -47 68 -83 98 -53 9 9 12 9 12 0 0 -7 5 -12 10 -12 6 0 10 37 10 90 0
53 -4 90 -10 90 -5 0 -11 -17 -12 -37z"/>
<path d="M76 591 l-27 -28 31 -27 c43 -36 60 -33 25 4 l-29 30 24 25 c13 14
19 25 14 25 -6 0 -23 -13 -38 -29z"/>
<path d="M850 595 l23 -25 -23 -25 c-35 -38 -14 -44 23 -7 l32 32 -30 25 c-39
32 -55 32 -25 0z"/>
<path d="M347 592 c-36 -40 -6 -112 46 -112 27 0 65 25 54 36 -4 4 -13 2 -19
-4 -15 -15 -51 -15 -66 0 -22 22 -13 28 42 28 51 0 54 1 49 23 -3 12 -10 28
-16 35 -14 18 -71 15 -90 -6z m64 -2 c32 -18 23 -40 -15 -40 -41 0 -52 12 -30
34 18 19 20 19 45 6z"/>
<path d="M497 592 c-21 -23 -22 -61 -1 -90 16 -24 44 -28 75 -12 13 7 19 7 19
0 0 -5 5 -10 10 -10 6 0 10 28 10 65 0 37 -4 65 -10 65 -5 0 -10 -5 -10 -12 0
-9 -3 -9 -12 0 -18 18 -63 14 -81 -6z m91 -41 c4 -28 -14 -51 -42 -51 -47 0
-63 57 -24 84 19 13 25 14 43 2 11 -7 21 -23 23 -35z"/>
<path d="M4812 379 c-5 -13 -19 -67 -31 -119 -12 -52 -24 -103 -27 -112 -3
-10 -1 -18 4 -18 11 0 77 258 69 267 -4 3 -10 -5 -15 -18z"/>
<path d="M530 340 c0 -5 5 -10 10 -10 6 0 10 5 10 10 0 6 -4 10 -10 10 -5 0
-10 -4 -10 -10z"/>
<path d="M680 260 c0 -53 4 -90 10 -90 6 0 10 37 10 90 0 53 -4 90 -10 90 -6
0 -10 -37 -10 -90z"/>
<path d="M1620 260 c0 -53 4 -90 10 -90 6 0 10 5 10 10 0 7 6 7 19 0 11 -5 28
-10 39 -10 46 0 70 80 34 113 -22 20 -63 22 -80 5 -9 -9 -12 -4 -12 25 0 20
-4 37 -10 37 -6 0 -10 -37 -10 -90z m108 -14 c2 -15 -2 -34 -9 -42 -17 -20
-56 -17 -69 5 -14 28 -13 38 10 61 26 26 64 13 68 -24z"/>
<path d="M2590 260 c0 -53 4 -90 10 -90 6 0 10 37 10 90 0 53 -4 90 -10 90 -6
0 -10 -37 -10 -90z"/>
<path d="M4340 340 c0 -5 5 -10 10 -10 6 0 10 5 10 10 0 6 -4 10 -10 10 -5 0
-10 -4 -10 -10z"/>
<path d="M4400 260 c0 -53 4 -90 10 -90 6 0 10 37 10 90 0 53 -4 90 -10 90 -6
0 -10 -37 -10 -90z"/>
<path d="M4960 340 c0 -5 5 -10 10 -10 6 0 10 5 10 10 0 6 -4 10 -10 10 -5 0
-10 -4 -10 -10z"/>
<path d="M5110 260 c0 -53 4 -90 10 -90 6 0 10 37 10 90 0 53 -4 90 -10 90 -6
0 -10 -37 -10 -90z"/>
<path d="M1017 333 c-11 -11 -8 -163 3 -163 6 0 10 25 10 55 0 30 3 55 8 55 4
0 18 -25 31 -55 13 -30 27 -55 31 -55 4 0 18 26 33 58 l25 57 1 -57 c1 -32 6
-58 11 -58 6 0 10 35 10 85 0 47 -4 85 -9 85 -5 0 -21 -29 -36 -65 -16 -36
-31 -65 -35 -65 -4 0 -21 29 -36 65 -28 64 -34 72 -47 58z"/>
<path d="M2260 255 c0 -50 4 -85 10 -85 6 0 10 18 10 40 l0 40 40 0 40 0 0
-40 c0 -22 5 -40 10 -40 6 0 10 35 10 86 0 54 -4 83 -10 79 -5 -3 -10 -22 -10
-41 0 -33 -1 -34 -40 -34 l-40 0 0 40 c0 22 -4 40 -10 40 -6 0 -10 -35 -10
-85z"/>
<path d="M3447 333 c-11 -11 -8 -163 3 -163 6 0 10 16 10 35 0 31 3 35 26 35
42 0 64 17 64 51 0 22 -6 32 -26 39 -29 11 -68 13 -77 3z m78 -43 c0 -21 -5
-26 -32 -28 -31 -3 -33 -1 -33 28 0 29 2 31 33 28 27 -2 32 -7 32 -28z"/>
<path d="M439 313 c-2 -47 4 -109 12 -125 5 -10 19 -18 29 -18 26 0 26 16 0
23 -16 4 -20 14 -20 46 0 34 4 43 23 51 17 7 18 9 4 9 -10 1 -20 8 -23 16 -8
21 -24 19 -25 -2z"/>
<path d="M590 316 c0 -8 -6 -17 -12 -19 -10 -4 -10 -6 0 -6 8 -1 12 -18 12
-49 0 -51 12 -72 42 -72 24 0 23 16 -2 23 -16 4 -20 14 -20 46 0 34 4 43 23
51 l22 9 -22 0 c-14 1 -23 7 -23 16 0 8 -4 15 -10 15 -5 0 -10 -6 -10 -14z"/>
<path d="M2110 315 c0 -8 -5 -15 -12 -15 -9 0 -9 -3 0 -12 7 -7 12 -33 12 -59
0 -33 5 -49 16 -53 23 -9 34 -7 34 4 0 6 -7 10 -15 10 -23 0 -21 97 3 103 16
4 16 5 0 6 -10 0 -18 8 -18 16 0 8 -4 15 -10 15 -5 0 -10 -7 -10 -15z"/>
<path d="M4880 315 c0 -8 -5 -15 -11 -15 -8 0 -8 -4 -1 -13 6 -7 12 -35 14
-62 3 -43 6 -50 26 -53 12 -2 22 1 22 7 0 6 -7 11 -15 11 -23 0 -21 97 3 103
16 4 16 5 0 6 -10 0 -18 8 -18 16 0 8 -4 15 -10 15 -5 0 -10 -7 -10 -15z"/>
<path d="M5019 313 c-2 -47 4 -109 12 -125 5 -10 19 -18 29 -18 26 0 26 16 0
23 -16 4 -20 14 -20 46 0 34 4 43 23 51 17 7 18 9 4 9 -10 1 -20 8 -23 16 -8
21 -24 19 -25 -2z"/>
<path d="M336 281 l-27 -28 31 -27 c43 -36 60 -33 25 4 l-29 30 24 25 c13 14
19 25 14 25 -6 0 -23 -13 -38 -29z"/>
<path d="M920 285 l23 -25 -23 -25 c-35 -38 -14 -44 23 -7 l32 32 -30 25 c-39
32 -55 32 -25 0z"/>
<path d="M4650 285 l-24 -25 29 -30 c16 -17 33 -30 39 -30 6 0 -2 12 -17 27
l-27 27 27 28 c19 20 22 28 12 28 -9 0 -26 -11 -39 -25z"/>
<path d="M5354 281 l27 -28 -28 -21 c-15 -11 -24 -24 -20 -28 4 -4 22 6 39 24
l32 31 -24 26 c-13 14 -30 25 -39 25 -10 0 -7 -9 13 -29z"/>
<path d="M530 235 c0 -37 4 -65 10 -65 6 0 10 28 10 65 0 37 -4 65 -10 65 -6
0 -10 -28 -10 -65z"/>
<path d="M747 282 c-22 -25 -21 -75 1 -95 25 -23 65 -21 87 3 16 18 16 20 2
20 -10 0 -17 -5 -17 -11 0 -18 -64 -6 -68 14 -3 14 4 17 47 17 43 0 51 3 51
18 0 46 -72 69 -103 34z m64 -2 c34 -19 23 -40 -21 -40 -43 0 -55 20 -22 39
21 13 20 13 43 1z"/>
<path d="M1237 282 c-22 -25 -21 -75 1 -95 25 -23 65 -21 87 3 16 18 16 20 2
20 -10 0 -17 -5 -17 -11 0 -18 -64 -6 -68 14 -3 14 4 17 47 17 43 0 51 3 51
18 0 46 -72 69 -103 34z m64 -2 c34 -19 23 -40 -21 -40 -43 0 -55 20 -22 39
21 13 20 13 43 1z"/>
<path d="M1370 233 c0 -35 4 -63 10 -63 6 0 10 18 10 39 0 23 8 48 18 61 16
19 22 21 40 11 18 -10 22 -21 22 -61 0 -28 5 -50 10 -50 6 0 10 22 10 50 0 38
4 52 19 60 39 20 61 -7 61 -77 0 -18 5 -33 11 -33 15 0 6 94 -11 115 -15 18
-67 20 -73 3 -3 -10 -7 -10 -19 -1 -8 7 -36 12 -61 11 l-47 -2 0 -63z"/>
<path d="M1790 246 c0 -64 11 -76 68 -73 l42 1 0 63 c0 76 -18 84 -22 11 -3
-51 -4 -53 -33 -53 -29 0 -30 2 -33 53 -4 68 -22 67 -22 -2z"/>
<path d="M1950 284 c-19 -22 -16 -70 5 -94 20 -23 55 -26 74 -7 11 10 14 10
18 0 12 -33 23 -7 23 52 0 37 -4 65 -10 65 -5 0 -10 -5 -10 -12 0 -9 -3 -9
-12 0 -17 17 -73 15 -88 -4z m72 -6 c39 -32 25 -88 -21 -88 -30 0 -48 26 -42
60 2 15 29 40 41 40 3 0 13 -6 22 -12z"/>
<path d="M2437 282 c-22 -25 -21 -75 1 -95 21 -19 45 -21 73 -7 13 7 19 7 19
0 0 -5 5 -10 10 -10 6 0 10 28 10 65 0 37 -4 65 -10 65 -5 0 -10 -5 -10 -12 0
-9 -3 -9 -12 0 -18 18 -63 14 -81 -6z m88 -32 c10 -31 -12 -62 -42 -58 -33 4
-48 27 -39 61 10 42 67 41 81 -3z"/>
<path d="M2657 282 c-21 -23 -22 -61 -1 -90 16 -24 44 -28 75 -12 13 7 19 7
19 0 0 -5 5 -10 10 -10 6 0 10 28 10 65 0 37 -4 65 -10 65 -5 0 -10 -5 -10
-12 0 -9 -3 -9 -12 0 -18 18 -63 14 -81 -6z m91 -41 c4 -28 -14 -51 -42 -51
-47 0 -63 57 -24 84 19 13 25 14 43 2 11 -7 21 -23 23 -35z"/>
<path d="M2810 233 c0 -35 4 -63 10 -63 6 0 10 20 10 44 0 42 18 76 40 76 22
0 40 -34 40 -76 0 -24 5 -44 10 -44 6 0 10 22 10 50 0 40 4 51 21 60 32 18 49
-4 49 -61 0 -27 5 -49 10 -49 14 0 12 104 -2 118 -15 15 -60 16 -76 0 -8 -8
-15 -8 -25 0 -7 6 -32 10 -55 9 l-42 -1 0 -63z"/>
<path d="M3070 284 c-19 -22 -16 -70 5 -94 20 -23 55 -26 74 -7 11 10 14 10
18 0 12 -33 23 -7 23 52 0 37 -4 65 -10 65 -5 0 -10 -5 -10 -12 0 -9 -3 -9
-12 0 -17 17 -73 15 -88 -4z m72 -6 c39 -32 25 -88 -21 -88 -30 0 -48 26 -42
60 2 15 29 40 41 40 3 0 13 -6 22 -12z"/>
<path d="M3220 233 c0 -35 4 -63 10 -63 6 0 10 18 10 39 0 23 8 48 18 61 16
19 22 21 40 11 18 -10 22 -21 22 -61 0 -28 5 -50 10 -50 15 0 12 106 -3 119
-8 6 -35 10 -60 9 l-47 -2 0 -63z"/>
<path d="M3597 282 c-22 -25 -21 -75 1 -95 21 -19 45 -21 73 -7 13 7 19 7 19
0 0 -5 5 -10 10 -10 6 0 10 28 10 65 0 37 -4 65 -10 65 -5 0 -10 -5 -10 -12 0
-9 -3 -9 -12 0 -18 18 -63 14 -81 -6z m88 -32 c10 -31 -12 -62 -42 -58 -33 4
-48 27 -39 61 10 42 67 41 81 -3z"/>
<path d="M3750 233 c0 -35 4 -63 10 -63 6 0 10 22 10 50 0 40 4 51 21 60 32
18 49 -4 49 -61 0 -27 5 -49 10 -49 15 0 12 106 -4 119 -7 6 -32 10 -55 9
l-41 -1 0 -64z"/>
<path d="M3915 286 c-24 -17 -24 -69 0 -96 21 -24 67 -26 85 -5 16 19 5 34
-12 17 -20 -20 -58 -14 -67 11 -10 25 -4 47 16 63 15 13 53 7 53 -7 0 -5 7 -9
17 -9 14 0 14 2 -2 20 -21 23 -63 26 -90 6z"/>
<path d="M4056 278 c-22 -30 -20 -60 4 -86 23 -24 59 -29 78 -10 9 9 12 9 12
0 0 -7 5 -12 10 -12 6 0 10 28 10 65 0 36 -4 65 -9 65 -13 0 -20 -23 -14 -53
7 -33 -12 -57 -43 -57 -31 0 -50 34 -35 66 11 24 20 28 55 24 11 -1 15 3 12 9
-13 20 -64 12 -80 -11z"/>
<path d="M4222 291 c-23 -14 -9 -45 26 -60 17 -8 32 -21 32 -28 0 -17 -47 -17
-53 0 -2 6 -8 9 -12 5 -11 -11 14 -38 35 -38 33 0 50 12 50 35 0 18 -9 27 -35
36 -19 7 -35 18 -35 25 0 20 28 24 45 7 18 -18 30 -11 22 12 -7 16 -53 20 -75
6z"/>
<path d="M4340 235 c0 -37 4 -65 10 -65 6 0 10 28 10 65 0 37 -4 65 -10 65 -6
0 -10 -28 -10 -65z"/>
<path d="M4467 282 c-21 -23 -22 -61 -1 -90 16 -24 44 -28 75 -12 13 7 19 7
19 0 0 -5 5 -10 10 -10 6 0 10 28 10 65 0 37 -4 65 -10 65 -5 0 -10 -5 -10
-12 0 -9 -3 -9 -12 0 -18 18 -63 14 -81 -6z m91 -41 c4 -28 -14 -51 -42 -51
-47 0 -63 57 -24 84 19 13 25 14 43 2 11 -7 21 -23 23 -35z"/>
<path d="M4960 235 c0 -37 4 -65 10 -65 6 0 10 28 10 65 0 37 -4 65 -10 65 -6
0 -10 -28 -10 -65z"/>
<path d="M5177 282 c-36 -40 -6 -112 46 -112 27 0 65 25 54 36 -4 4 -13 2 -19
-4 -15 -15 -51 -15 -66 0 -22 22 -13 28 42 28 51 0 54 1 49 23 -3 12 -10 28
-16 35 -14 18 -71 15 -90 -6z m64 -2 c32 -18 23 -40 -15 -40 -41 0 -52 12 -30
34 18 19 20 19 45 6z"/>
</g>
</svg>
