<?xml version="1.0" standalone="no"?>
<!DOCTYPE svg PUBLIC "-//W3C//DTD SVG 20010904//EN"
 "http://www.w3.org/TR/2001/REC-SVG-20010904/DTD/svg10.dtd">
<svg version="1.0" xmlns="http://www.w3.org/2000/svg"
 width="386.000000pt" height="126.000000pt" viewBox="0 0 386.000000 126.000000"
 preserveAspectRatio="xMidYMid meet">

<g transform="translate(0.000000,126.000000) scale(0.100000,-0.100000)"
fill="#000000" stroke="none">
<path d="M10 645 l0 -615 244 0 c186 0 245 -3 249 -12 4 -10 7 -10 18 -1 10
10 357 13 1666 13 l1653 0 0 615 0 615 -1915 0 -1915 0 0 -615z m500 591 c0
-8 -6 -17 -13 -20 -9 -5 -9 -7 0 -12 8 -3 13 -26 13 -58 0 -54 12 -76 42 -76
24 0 23 16 -2 23 -17 4 -20 14 -20 56 0 44 3 51 20 51 11 0 20 5 20 10 0 6 -9
10 -21 10 -12 0 -19 5 -17 13 4 9 344 13 1646 15 l1642 2 0 -605 0 -605 -1645
0 c-905 0 -1645 3 -1645 6 0 3 14 59 30 124 31 125 35 150 22 150 -4 0 -23
-63 -42 -140 l-34 -140 -238 0 -238 0 0 605 0 605 240 0 c200 0 240 -2 240
-14z"/>
<path d="M383 1201 l-33 -27 33 -32 c18 -18 39 -32 47 -32 9 1 0 13 -20 31
l-35 30 33 30 c41 37 18 38 -25 0z"/>
<path d="M760 1202 l34 -29 -35 -31 c-22 -21 -29 -32 -18 -32 8 0 29 15 47 33
l31 32 -34 28 c-45 36 -69 35 -25 -1z"/>
<path d="M610 1145 c0 -86 15 -101 22 -23 4 38 12 57 28 70 13 10 20 21 17 25
-4 3 -14 0 -23 -8 -13 -11 -18 -11 -21 -1 -12 34 -23 4 -23 -63z"/>
<path d="M1557 839 c-34 -138 -39 -174 -21 -156 7 7 74 273 74 294 0 7 -3 13
-8 13 -4 0 -24 -68 -45 -151z"/>
<path d="M1050 895 c0 -34 -12 -46 -25 -25 -3 6 -19 10 -34 10 -36 0 -71 -38
-71 -76 0 -55 73 -96 109 -61 11 10 14 10 18 0 14 -37 23 -2 23 87 0 60 -4
100 -10 100 -5 0 -10 -16 -10 -35z m-20 -50 c16 -20 16 -61 0 -80 -19 -23 -62
-14 -79 16 -13 24 -13 29 2 53 20 29 57 35 77 11z"/>
<path d="M1260 920 c0 -5 7 -10 15 -10 12 0 15 -17 15 -90 0 -53 4 -90 10 -90
6 0 10 40 10 100 l0 100 -25 0 c-14 0 -25 -4 -25 -10z"/>
<path d="M1890 895 c0 -34 -12 -46 -25 -25 -3 6 -19 10 -34 10 -36 0 -71 -38
-71 -76 0 -55 73 -96 109 -61 11 10 14 10 18 0 14 -37 23 -2 23 87 0 60 -4
100 -10 100 -5 0 -10 -16 -10 -35z m-20 -50 c16 -20 16 -61 0 -80 -19 -23 -62
-14 -79 16 -13 24 -13 29 2 53 20 29 57 35 77 11z"/>
<path d="M830 901 c0 -11 -6 -22 -12 -25 -10 -5 -10 -7 0 -12 7 -3 12 -26 12
-58 0 -54 12 -76 42 -76 24 0 23 16 -2 23 -17 4 -20 14 -20 56 0 44 3 51 20
51 11 0 20 5 20 10 0 6 -9 10 -20 10 -13 0 -20 7 -20 20 0 11 -4 20 -10 20 -5
0 -10 -9 -10 -19z"/>
<path d="M1670 901 c0 -11 -6 -22 -12 -25 -10 -5 -10 -7 0 -12 7 -3 12 -26 12
-58 0 -54 12 -76 42 -76 24 0 23 16 -2 23 -17 4 -20 14 -20 56 0 44 3 51 20
51 11 0 20 5 20 10 0 6 -9 10 -20 10 -13 0 -20 7 -20 20 0 11 -4 20 -10 20 -5
0 -10 -9 -10 -19z"/>
<path d="M695 860 l-29 -30 29 -30 c16 -16 35 -30 44 -30 10 0 6 9 -14 30
l-29 30 29 30 c20 21 24 30 14 30 -9 0 -28 -13 -44 -30z"/>
<path d="M1160 862 l34 -29 -35 -31 c-22 -21 -29 -32 -18 -32 8 0 29 15 47 33
l31 32 -34 28 c-45 36 -69 35 -25 -1z"/>
<path d="M1403 861 l-33 -27 33 -32 c18 -18 39 -32 47 -32 9 1 0 13 -20 31
l-35 30 33 30 c41 37 18 38 -25 0z"/>
<path d="M2000 862 l34 -29 -35 -31 c-22 -21 -29 -32 -18 -32 8 0 29 15 47 33
l31 32 -34 28 c-45 36 -69 35 -25 -1z"/>
<path d="M2211 623 c-35 -134 -61 -244 -61 -259 0 -57 36 58 84 269 10 42 -12
32 -23 -10z"/>
<path d="M1050 565 c0 -34 -12 -46 -25 -25 -3 6 -19 10 -34 10 -36 0 -71 -38
-71 -76 0 -55 73 -96 109 -61 11 10 14 10 18 0 14 -37 23 -2 23 87 0 60 -4
100 -10 100 -5 0 -10 -16 -10 -35z m-20 -50 c16 -20 16 -61 0 -80 -19 -23 -62
-14 -79 16 -13 24 -13 29 2 53 20 29 57 35 77 11z"/>
<path d="M2510 565 c0 -32 -2 -35 -19 -25 -53 28 -105 -5 -105 -67 0 -57 66
-96 103 -60 11 10 14 10 18 0 14 -37 23 -2 23 87 0 60 -4 100 -10 100 -5 0
-10 -16 -10 -35z m-18 -52 c34 -31 10 -93 -37 -93 -30 0 -45 19 -45 55 0 53
43 73 82 38z"/>
<path d="M830 571 c0 -11 -6 -22 -12 -25 -10 -5 -10 -7 0 -12 7 -3 12 -26 12
-58 0 -54 12 -76 42 -76 24 0 23 16 -2 23 -17 4 -20 14 -20 56 0 44 3 51 20
51 11 0 20 5 20 10 0 6 -9 10 -20 10 -13 0 -20 7 -20 20 0 11 -4 20 -10 20 -5
0 -10 -9 -10 -19z"/>
<path d="M1270 495 c0 -95 16 -133 22 -52 l3 42 50 0 50 0 3 -42 c6 -81 22
-43 22 52 0 57 -4 95 -10 95 -5 0 -10 -18 -10 -40 l0 -40 -55 0 -55 0 0 40 c0
22 -4 40 -10 40 -6 0 -10 -38 -10 -95z"/>
<path d="M1460 580 c0 -5 11 -10 25 -10 25 0 25 -1 25 -85 0 -50 4 -85 10 -85
6 0 10 35 10 85 0 83 0 85 24 85 14 0 28 5 31 10 4 6 -18 10 -59 10 -37 0 -66
-4 -66 -10z"/>
<path d="M1620 495 c0 -57 4 -95 10 -95 6 0 10 28 10 65 0 36 3 65 8 65 4 0
19 -28 34 -62 14 -34 30 -64 35 -65 6 -2 24 27 41 64 l30 68 1 -67 c1 -38 5
-68 11 -68 6 0 10 39 10 96 0 115 -10 119 -54 16 -17 -39 -34 -72 -37 -72 -3
0 -20 34 -38 75 -46 105 -61 100 -61 -20z"/>
<path d="M1870 495 l0 -95 45 0 c25 0 45 5 45 10 0 6 -16 10 -35 10 l-35 0 0
85 c0 50 -4 85 -10 85 -6 0 -10 -38 -10 -95z"/>
<path d="M2290 571 c0 -11 -6 -22 -12 -25 -10 -5 -10 -7 0 -12 7 -3 12 -26 12
-58 0 -54 12 -76 42 -76 24 0 23 16 -2 23 -17 4 -20 14 -20 56 0 44 3 51 20
51 11 0 20 5 20 10 0 6 -9 10 -20 10 -13 0 -20 7 -20 20 0 11 -4 20 -10 20 -5
0 -10 -9 -10 -19z"/>
<path d="M695 530 l-29 -30 29 -30 c16 -16 35 -30 44 -30 10 0 6 9 -14 30
l-29 30 29 30 c20 21 24 30 14 30 -9 0 -28 -13 -44 -30z"/>
<path d="M1160 532 l34 -29 -35 -31 c-22 -21 -29 -32 -18 -32 8 0 29 15 47 33
l31 32 -34 28 c-45 36 -69 35 -25 -1z"/>
<path d="M2025 530 l-29 -30 29 -30 c16 -16 35 -30 44 -30 10 0 6 9 -14 30
l-29 30 29 30 c20 21 24 30 14 30 -9 0 -28 -13 -44 -30z"/>
<path d="M2625 530 l29 -30 -29 -30 c-37 -38 -20 -39 25 -1 l35 29 -29 31
c-17 17 -36 31 -45 31 -10 0 -6 -9 14 -30z"/>
<path d="M650 231 c0 -11 -6 -22 -12 -25 -10 -5 -10 -7 0 -12 7 -3 12 -26 12
-58 0 -54 12 -76 42 -76 24 0 23 16 -2 23 -17 4 -20 14 -20 56 0 44 3 51 20
51 11 0 20 5 20 10 0 6 -9 10 -20 10 -13 0 -20 7 -20 20 0 11 -4 20 -10 20 -5
0 -10 -9 -10 -19z"/>
<path d="M383 191 l-33 -27 33 -32 c18 -18 39 -32 47 -32 9 1 0 13 -20 31
l-35 30 33 30 c41 37 18 38 -25 0z"/>
<path d="M895 190 l29 -30 -29 -30 c-20 -21 -24 -30 -14 -30 9 0 28 13 44 30
l29 30 -29 30 c-16 17 -35 30 -44 30 -10 0 -6 -9 14 -30z"/>
<path d="M750 135 c0 -88 18 -102 22 -17 3 48 7 59 26 67 12 5 22 13 22 17 0
12 -25 9 -38 -4 -9 -9 -12 -9 -12 0 0 7 -4 12 -10 12 -6 0 -10 -32 -10 -75z"/>
</g>
</svg>
