<?xml version="1.0" standalone="no"?>
<!DOCTYPE svg PUBLIC "-//W3C//DTD SVG 20010904//EN"
 "http://www.w3.org/TR/2001/REC-SVG-20010904/DTD/svg10.dtd">
<svg version="1.0" xmlns="http://www.w3.org/2000/svg"
 width="982.000000pt" height="68.000000pt" viewBox="0 0 982.000000 68.000000"
 preserveAspectRatio="xMidYMid meet">

<g transform="translate(0.000000,68.000000) scale(0.100000,-0.100000)"
fill="#000000" stroke="none">
<path d="M20 350 l0 -330 2204 0 c1754 0 2206 -3 2210 -13 5 -9 7 -9 12 1 4 9
549 12 2675 12 l2669 0 0 330 0 330 -4885 0 -4885 0 0 -330z m9760 0 l0 -320
-2792 1 c-1688 0 -2784 4 -2770 9 12 5 27 21 32 35 13 34 13 155 0 155 -5 0
-10 -5 -10 -12 0 -9 -3 -9 -12 0 -17 17 -73 15 -88 -4 -19 -22 -16 -70 5 -94
19 -21 60 -27 70 -10 3 6 10 10 16 10 15 0 10 -26 -9 -50 -18 -22 -20 -23 -52
-7 -40 21 -41 21 -34 3 3 -8 18 -19 32 -25 18 -6 -388 -9 -1193 -10 -712 0
-1211 4 -1198 9 12 5 26 18 32 29 14 25 14 161 1 161 -5 0 -10 -5 -10 -12 0
-9 -3 -9 -12 0 -17 17 -58 15 -80 -5 -36 -33 -12 -113 34 -113 11 0 28 5 39
10 16 9 19 7 19 -9 0 -19 -24 -51 -38 -51 -4 0 -18 7 -30 16 -13 9 -26 14 -29
11 -8 -9 7 -28 31 -37 12 -5 -109 -9 -299 -9 -202 0 -312 4 -297 9 12 5 27 21
32 35 13 34 13 155 0 155 -5 0 -10 -5 -10 -12 0 -9 -3 -9 -12 0 -17 17 -73 15
-88 -4 -19 -22 -16 -70 5 -94 19 -21 60 -27 70 -10 3 5 10 10 16 10 15 0 10
-26 -9 -50 -18 -22 -20 -23 -52 -7 -40 21 -41 21 -34 3 3 -8 18 -19 32 -25 18
-6 -149 -10 -510 -10 l-538 -1 0 320 0 320 4870 0 4870 0 0 -320z m-8648 -142
c39 -32 25 -88 -21 -88 -30 0 -48 26 -42 60 2 15 29 40 41 40 3 0 13 -6 22
-12z m663 -28 c10 -31 -12 -62 -42 -58 -33 4 -48 27 -39 61 10 42 67 41 81 -3z
m2417 28 c39 -32 25 -88 -21 -88 -30 0 -48 26 -42 60 2 15 29 40 41 40 3 0 13
-6 22 -12z"/>
<path d="M400 190 c0 -53 4 -90 10 -90 6 0 10 22 10 50 0 38 4 52 19 60 25 13
27 13 45 -6 10 -9 16 -33 16 -60 0 -26 5 -44 11 -44 16 0 6 94 -12 116 -9 11
-23 14 -46 11 -31 -5 -33 -4 -33 24 0 16 -4 29 -10 29 -6 0 -10 -37 -10 -90z"/>
<path d="M937 273 c-11 -11 -8 -173 3 -173 6 0 10 37 10 90 0 90 -1 96 -13 83z"/>
<path d="M990 270 c0 -5 5 -10 10 -10 6 0 10 5 10 10 0 6 -4 10 -10 10 -5 0
-10 -4 -10 -10z"/>
<path d="M1640 270 c0 -5 5 -10 10 -10 6 0 10 5 10 10 0 6 -4 10 -10 10 -5 0
-10 -4 -10 -10z"/>
<path d="M1860 190 c0 -53 4 -90 10 -90 6 0 10 22 10 50 0 38 4 52 19 60 25
13 27 13 45 -6 10 -9 16 -33 16 -60 0 -26 5 -44 11 -44 16 0 6 94 -12 116 -9
11 -23 14 -46 11 -31 -5 -33 -4 -33 24 0 16 -4 29 -10 29 -6 0 -10 -37 -10
-90z"/>
<path d="M2780 190 c0 -53 4 -90 10 -90 6 0 10 11 10 25 0 31 7 31 32 0 11
-14 27 -25 36 -25 12 0 7 9 -16 33 l-32 33 32 32 c40 39 17 44 -24 5 l-28 -27
0 52 c0 29 -4 52 -10 52 -6 0 -10 -37 -10 -90z"/>
<path d="M4458 243 c0 -21 0 -51 1 -66 3 -35 -14 -57 -45 -57 -32 0 -51 38
-35 69 12 21 21 25 55 21 11 -1 15 3 12 9 -4 6 -20 11 -36 11 -32 0 -60 -31
-60 -65 0 -47 68 -83 98 -53 9 9 12 9 12 0 0 -7 5 -12 10 -12 6 0 10 37 10 90
0 53 -4 90 -10 90 -5 0 -11 -17 -12 -37z"/>
<path d="M4520 270 c0 -5 5 -10 10 -10 6 0 10 5 10 10 0 6 -4 10 -10 10 -5 0
-10 -4 -10 -10z"/>
<path d="M4740 270 c0 -5 7 -10 15 -10 8 0 15 5 15 10 0 6 -7 10 -15 10 -8 0
-15 -4 -15 -10z"/>
<path d="M5220 270 c0 -5 5 -10 10 -10 6 0 10 5 10 10 0 6 -4 10 -10 10 -5 0
-10 -4 -10 -10z"/>
<path d="M5650 190 c0 -53 4 -90 10 -90 6 0 10 37 10 90 0 53 -4 90 -10 90 -6
0 -10 -37 -10 -90z"/>
<path d="M5860 190 c0 -53 4 -90 10 -90 6 0 10 20 10 44 0 42 18 76 40 76 22
0 40 -34 40 -76 0 -24 5 -44 10 -44 13 0 13 71 0 106 -10 24 -14 26 -50 21
-39 -5 -40 -4 -40 24 0 16 -4 29 -10 29 -6 0 -10 -37 -10 -90z"/>
<path d="M6080 190 c0 -53 4 -90 10 -90 6 0 10 22 10 50 0 38 4 52 19 60 25
13 27 13 45 -6 10 -9 16 -33 16 -60 0 -26 5 -44 11 -44 16 0 6 94 -12 116 -9
11 -23 14 -46 11 -31 -5 -33 -4 -33 24 0 16 -4 29 -10 29 -6 0 -10 -37 -10
-90z"/>
<path d="M6230 270 c0 -5 7 -10 15 -10 8 0 15 5 15 10 0 6 -7 10 -15 10 -8 0
-15 -4 -15 -10z"/>
<path d="M6298 274 c-12 -11 -10 -174 2 -174 6 0 10 11 10 25 0 14 4 25 9 25
5 0 18 -11 29 -25 11 -14 26 -25 33 -25 7 0 1 12 -14 28 -15 15 -27 32 -27 37
0 5 12 22 27 37 21 22 23 28 10 28 -9 0 -24 -11 -33 -25 -24 -37 -33 -31 -36
26 -2 28 -6 47 -10 43z"/>
<path d="M6988 274 c-12 -11 -10 -174 2 -174 6 0 10 11 10 25 0 14 4 25 9 25
5 0 18 -11 29 -25 11 -14 26 -25 33 -25 7 0 1 12 -14 28 -15 15 -27 32 -27 37
0 5 12 22 27 37 21 22 23 28 10 28 -9 0 -24 -11 -33 -25 -24 -37 -33 -31 -36
26 -2 28 -6 47 -10 43z"/>
<path d="M7260 190 c0 -53 4 -90 10 -90 6 0 10 5 10 10 0 7 6 7 19 0 11 -5 28
-10 39 -10 46 0 70 80 34 113 -22 20 -63 22 -80 5 -9 -9 -12 -4 -12 25 0 20
-4 37 -10 37 -6 0 -10 -37 -10 -90z m108 -19 c4 -28 -14 -51 -42 -51 -47 0
-63 57 -24 84 19 13 25 14 43 2 11 -7 21 -23 23 -35z"/>
<path d="M7420 270 c0 -5 5 -10 10 -10 6 0 10 5 10 10 0 6 -4 10 -10 10 -5 0
-10 -4 -10 -10z"/>
<path d="M7480 270 c0 -5 5 -10 10 -10 6 0 10 5 10 10 0 6 -4 10 -10 10 -5 0
-10 -4 -10 -10z"/>
<path d="M7710 190 c0 -53 4 -90 10 -90 6 0 10 12 10 27 l0 27 30 -29 c39 -37
49 -27 14 14 l-27 32 29 30 c15 16 22 29 15 29 -6 0 -23 -12 -36 -27 l-24 -28
-1 53 c0 28 -4 52 -10 52 -6 0 -10 -37 -10 -90z"/>
<path d="M8930 243 c0 -29 -3 -34 -12 -25 -17 17 -73 15 -88 -4 -19 -22 -16
-70 5 -94 20 -23 55 -26 74 -7 11 10 14 10 18 0 13 -36 23 -3 23 77 0 53 -4
90 -10 90 -5 0 -10 -17 -10 -37z m-28 -35 c39 -32 25 -88 -21 -88 -30 0 -48
26 -42 60 2 15 29 40 41 40 3 0 13 -6 22 -12z"/>
<path d="M9150 190 c0 -53 4 -90 10 -90 6 0 10 37 10 90 0 53 -4 90 -10 90 -6
0 -10 -37 -10 -90z"/>
<path d="M588 215 c-21 -29 -38 -59 -38 -64 0 -6 18 -11 40 -11 33 0 42 -4 50
-22 7 -18 9 -19 9 -5 1 10 8 20 16 23 8 4 15 10 15 15 0 5 -7 9 -15 9 -12 0
-15 13 -15 55 0 70 -14 71 -62 0z m52 -15 c0 -39 -1 -40 -35 -40 l-35 0 28 40
c15 21 30 39 35 40 4 0 7 -18 7 -40z"/>
<path d="M2230 185 c0 -50 4 -85 10 -85 6 0 10 17 10 37 l0 37 38 -37 c50 -49
77 -48 29 1 -20 21 -37 42 -37 47 0 5 14 24 32 42 17 18 28 36 24 40 -4 5 -25
-12 -47 -37 l-38 -45 -1 43 c0 23 -4 42 -10 42 -6 0 -10 -35 -10 -85z"/>
<path d="M2020 245 c0 -8 -5 -15 -12 -15 -9 0 -9 -3 0 -12 7 -7 12 -33 12 -59
0 -33 5 -49 16 -53 23 -9 34 -7 34 4 0 6 -7 10 -15 10 -23 0 -21 97 3 103 16
4 16 5 0 6 -10 0 -18 8 -18 16 0 8 -4 15 -10 15 -5 0 -10 -7 -10 -15z"/>
<path d="M3210 245 c0 -8 -5 -15 -12 -15 -9 0 -9 -3 0 -12 7 -7 12 -33 12 -59
0 -33 5 -49 16 -53 23 -9 34 -7 34 4 0 6 -7 10 -15 10 -23 0 -21 97 3 103 16
4 16 5 0 6 -10 0 -18 8 -18 16 0 8 -4 15 -10 15 -5 0 -10 -7 -10 -15z"/>
<path d="M6840 245 c0 -8 -5 -15 -11 -15 -8 0 -8 -4 -1 -13 6 -7 12 -35 14
-62 3 -43 6 -50 26 -53 12 -2 22 1 22 7 0 6 -7 11 -15 11 -23 0 -21 97 3 103
16 4 16 5 0 6 -10 0 -18 8 -18 16 0 8 -4 15 -10 15 -5 0 -10 -7 -10 -15z"/>
<path d="M295 216 l-30 -25 32 -32 c37 -38 58 -32 23 6 l-23 25 23 25 c30 32
14 32 -25 1z"/>
<path d="M2140 215 l24 -25 -29 -30 c-35 -37 -24 -39 22 -4 l35 26 -28 29
c-15 16 -32 29 -38 29 -5 0 1 -11 14 -25z"/>
<path d="M776 208 c-22 -30 -20 -60 4 -86 23 -24 59 -29 78 -10 9 9 12 9 12 0
0 -7 5 -12 10 -12 6 0 10 28 10 65 0 36 -4 65 -9 65 -13 0 -20 -23 -14 -53 7
-33 -12 -57 -43 -57 -31 0 -50 34 -35 66 11 24 20 28 55 24 11 -1 15 3 12 9
-13 20 -64 12 -80 -11z"/>
<path d="M990 165 c0 -37 4 -65 10 -65 6 0 10 28 10 65 0 37 -4 65 -10 65 -6
0 -10 -28 -10 -65z"/>
<path d="M1220 163 c0 -35 4 -63 10 -63 6 0 10 22 10 50 0 40 4 51 21 60 32
18 49 -4 49 -61 0 -27 5 -49 10 -49 15 0 12 106 -4 119 -7 6 -32 10 -55 9
l-41 -1 0 -64z"/>
<path d="M1550 163 c0 -35 4 -63 10 -63 6 0 10 23 10 51 0 42 3 52 20 56 30 8
24 22 -10 21 l-30 -1 0 -64z"/>
<path d="M1640 165 c0 -37 4 -65 10 -65 6 0 10 28 10 65 0 37 -4 65 -10 65 -6
0 -10 -28 -10 -65z"/>
<path d="M2387 212 c-36 -40 -6 -112 46 -112 27 0 65 25 54 36 -4 4 -13 2 -19
-4 -15 -15 -51 -15 -66 0 -22 22 -13 28 42 28 51 0 54 1 49 23 -3 12 -10 28
-16 35 -14 18 -71 15 -90 -6z m64 -2 c32 -18 23 -40 -15 -40 -41 0 -52 12 -30
34 18 19 20 19 45 6z"/>
<path d="M2530 163 c0 -35 4 -63 10 -63 6 0 10 23 10 51 0 42 3 52 20 56 30 8
24 22 -10 21 l-30 -1 0 -64z"/>
<path d="M2627 212 c-21 -23 -22 -61 -1 -90 16 -24 44 -28 75 -12 13 7 19 7
19 0 0 -5 5 -10 10 -10 6 0 10 28 10 65 0 37 -4 65 -10 65 -5 0 -10 -5 -10
-12 0 -9 -3 -9 -12 0 -18 18 -63 14 -81 -6z m91 -41 c4 -28 -14 -51 -42 -51
-47 0 -63 57 -24 84 19 13 25 14 43 2 11 -7 21 -23 23 -35z"/>
<path d="M2912 178 c23 -56 27 -91 14 -120 -5 -11 -4 -18 2 -18 8 0 82 164 82
183 0 4 -4 7 -8 7 -4 0 -17 -24 -27 -52 l-19 -53 -23 53 c-30 68 -49 68 -21 0z"/>
<path d="M3050 214 c-19 -22 -16 -70 5 -94 20 -23 55 -26 74 -7 11 10 14 10
18 0 12 -33 23 -7 23 52 0 37 -4 65 -10 65 -5 0 -10 -5 -10 -12 0 -9 -3 -9
-12 0 -17 17 -73 15 -88 -4z m72 -6 c39 -32 25 -88 -21 -88 -30 0 -48 26 -42
60 2 15 29 40 41 40 3 0 13 -6 22 -12z"/>
<path d="M3307 212 c-22 -25 -21 -75 1 -95 21 -19 45 -21 73 -7 13 7 19 7 19
0 0 -5 5 -10 10 -10 6 0 10 28 10 65 0 37 -4 65 -10 65 -5 0 -10 -5 -10 -12 0
-9 -3 -9 -12 0 -18 18 -63 14 -81 -6z m88 -32 c10 -31 -12 -62 -42 -58 -33 4
-48 27 -39 61 10 42 67 41 81 -3z"/>
<path d="M3460 163 c0 -35 4 -63 10 -63 6 0 10 22 10 50 0 40 4 51 21 60 32
18 49 -4 49 -61 0 -27 5 -49 10 -49 15 0 12 106 -4 119 -7 6 -32 10 -55 9
l-41 -1 0 -64z"/>
<path d="M3687 169 c22 -52 25 -65 15 -95 -21 -70 10 -28 49 65 22 51 33 91
26 88 -6 -2 -19 -22 -27 -45 -9 -22 -18 -43 -21 -47 -4 -3 -15 17 -25 45 -10
27 -24 50 -31 50 -9 0 -4 -19 14 -61z"/>
<path d="M3820 214 c-19 -22 -16 -70 5 -94 20 -23 55 -26 74 -7 11 10 14 10
18 0 12 -33 23 -7 23 52 0 37 -4 65 -10 65 -5 0 -10 -5 -10 -12 0 -9 -3 -9
-12 0 -17 17 -73 15 -88 -4z m72 -6 c39 -32 25 -88 -21 -88 -30 0 -48 26 -42
60 2 15 29 40 41 40 3 0 13 -6 22 -12z"/>
<path d="M3980 163 c0 -35 4 -63 10 -63 6 0 10 22 10 50 0 40 4 51 21 60 32
18 49 -4 49 -61 0 -27 5 -49 10 -49 15 0 12 106 -4 119 -7 6 -32 10 -55 9
l-41 -1 0 -64z"/>
<path d="M4520 165 c0 -37 4 -65 10 -65 6 0 10 28 10 65 0 37 -4 65 -10 65 -6
0 -10 -28 -10 -65z"/>
<path d="M4580 135 c0 -57 4 -95 10 -95 6 0 10 18 10 40 0 37 2 40 19 30 11
-5 28 -10 39 -10 46 0 70 80 34 113 -22 20 -63 22 -80 5 -9 -9 -12 -9 -12 0 0
7 -4 12 -10 12 -6 0 -10 -38 -10 -95z m108 41 c2 -15 -2 -34 -9 -42 -17 -20
-56 -17 -69 5 -14 28 -13 38 10 61 26 26 64 13 68 -24z"/>
<path d="M4740 165 c0 -37 4 -65 10 -65 6 0 10 28 10 65 0 37 -4 65 -10 65 -6
0 -10 -28 -10 -65z"/>
<path d="M4800 163 c0 -35 4 -63 10 -63 6 0 10 18 10 39 0 23 8 48 18 61 16
19 22 21 40 11 18 -10 22 -21 22 -61 0 -28 5 -50 10 -50 6 0 10 22 10 50 0 38
4 52 19 60 39 20 61 -7 61 -77 0 -18 5 -33 11 -33 15 0 6 94 -11 115 -15 18
-67 20 -73 3 -3 -10 -7 -10 -19 -1 -8 7 -36 12 -61 11 l-47 -2 0 -63z"/>
<path d="M5050 135 c0 -57 4 -95 10 -95 6 0 10 18 10 40 0 38 12 52 25 30 12
-20 53 -10 75 17 22 28 21 63 -2 90 -13 16 -52 17 -79 3 -13 -7 -19 -7 -19 0
0 5 -4 10 -10 10 -6 0 -10 -38 -10 -95z m92 73 c21 -18 27 -39 17 -65 -9 -25
-47 -31 -67 -11 -18 18 -15 65 6 77 22 13 25 13 44 -1z"/>
<path d="M5220 165 c0 -37 4 -65 10 -65 6 0 10 28 10 65 0 37 -4 65 -10 65 -6
0 -10 -28 -10 -65z"/>
<path d="M5280 163 c0 -35 4 -63 10 -63 6 0 10 22 10 50 0 40 4 51 21 60 32
18 49 -4 49 -61 0 -27 5 -49 10 -49 15 0 12 106 -4 119 -7 6 -32 10 -55 9
l-41 -1 0 -64z"/>
<path d="M5507 212 c-23 -25 -21 -68 3 -92 58 -58 142 20 94 88 -19 28 -74 30
-97 4z m91 -41 c4 -28 -14 -51 -42 -51 -47 0 -63 57 -24 84 19 13 25 14 43 2
11 -7 21 -23 23 -35z"/>
<path d="M5725 216 c-24 -17 -24 -69 0 -96 23 -26 67 -26 90 0 14 16 15 20 4
20 -8 0 -20 -5 -26 -11 -16 -16 -57 -7 -61 14 -3 14 4 17 47 17 55 0 62 9 35
48 -17 25 -60 29 -89 8z m69 -12 c22 -22 11 -34 -30 -34 -38 0 -47 22 -16 39
23 14 28 14 46 -5z"/>
<path d="M6230 165 c0 -37 4 -65 10 -65 6 0 10 28 10 65 0 37 -4 65 -10 65 -6
0 -10 -28 -10 -65z"/>
<path d="M6420 163 c0 -35 4 -63 10 -63 6 0 10 22 10 50 0 40 4 51 22 61 18
10 24 8 40 -11 10 -13 19 -40 19 -64 l1 -41 9 49 c10 62 28 82 58 67 17 -10
21 -21 21 -61 0 -28 5 -50 10 -50 13 0 13 86 0 111 -12 21 -59 26 -78 7 -8 -8
-15 -8 -25 0 -8 7 -33 11 -56 10 l-41 -1 0 -64z"/>
<path d="M6676 208 c-22 -30 -20 -60 4 -86 23 -24 59 -29 78 -10 9 9 12 9 12
0 0 -7 5 -12 10 -12 6 0 10 28 10 65 0 36 -4 65 -9 65 -13 0 -20 -23 -14 -53
7 -33 -12 -57 -43 -57 -31 0 -50 34 -35 66 11 24 20 28 55 24 11 -1 15 3 12 9
-13 20 -64 12 -80 -11z"/>
<path d="M7116 208 c-9 -12 -16 -32 -16 -43 0 -29 36 -65 63 -65 28 0 65 25
54 36 -4 4 -13 2 -19 -4 -15 -15 -51 -15 -66 0 -22 22 -13 28 44 28 53 0 55 1
48 23 -11 36 -25 47 -60 47 -23 0 -38 -7 -48 -22z m72 -4 c29 -20 20 -34 -22
-34 -42 0 -50 9 -29 32 20 22 23 22 51 2z"/>
<path d="M7420 165 c0 -37 4 -65 10 -65 6 0 10 28 10 65 0 37 -4 65 -10 65 -6
0 -10 -28 -10 -65z"/>
<path d="M7480 146 c0 -58 -4 -86 -12 -89 -7 -2 -10 -8 -6 -12 4 -4 14 -5 23
-2 12 5 15 25 15 97 0 53 -4 90 -10 90 -6 0 -10 -35 -10 -84z"/>
<path d="M7550 214 c-19 -22 -16 -70 5 -94 20 -23 55 -26 74 -7 11 10 14 10
18 0 12 -33 23 -7 23 52 0 37 -4 65 -10 65 -5 0 -10 -5 -10 -12 0 -9 -3 -9
-12 0 -17 17 -73 15 -88 -4z m72 -6 c39 -32 25 -88 -21 -88 -30 0 -48 26 -42
60 2 15 29 40 41 40 3 0 13 -6 22 -12z"/>
<path d="M7837 223 c-4 -3 -7 -16 -7 -29 0 -17 9 -25 35 -34 19 -6 35 -18 35
-26 0 -17 -41 -19 -58 -2 -6 6 -14 9 -17 6 -10 -10 26 -38 49 -38 54 0 63 53
10 70 -23 8 -34 17 -32 28 4 22 23 25 42 6 20 -20 34 -11 16 11 -13 15 -61 21
-73 8z"/>
<path d="M7967 212 c-21 -23 -22 -61 -1 -90 16 -24 44 -28 75 -12 13 7 19 7
19 0 0 -5 5 -10 10 -10 6 0 10 28 10 65 0 37 -4 65 -10 65 -5 0 -10 -5 -10
-12 0 -9 -3 -9 -12 0 -18 18 -63 14 -81 -6z m91 -41 c4 -28 -14 -51 -42 -51
-47 0 -63 57 -24 84 19 13 25 14 43 2 11 -7 21 -23 23 -35z"/>
<path d="M8120 164 c0 -36 4 -64 10 -64 6 0 10 22 10 50 0 38 4 52 19 60 25
13 27 13 45 -6 10 -9 16 -33 16 -60 0 -24 5 -44 10 -44 14 0 12 70 -3 100 -11
21 -20 25 -60 26 l-47 2 0 -64z"/>
<path d="M8287 212 c-22 -25 -21 -75 1 -95 21 -19 45 -21 73 -7 13 7 19 7 19
0 0 -5 5 -10 10 -10 6 0 10 28 10 65 0 37 -4 65 -10 65 -5 0 -10 -5 -10 -12 0
-9 -3 -9 -12 0 -18 18 -63 14 -81 -6z m88 -32 c10 -31 -12 -62 -42 -58 -33 4
-48 27 -39 61 10 42 67 41 81 -3z"/>
<path d="M8446 208 c-22 -30 -20 -60 4 -86 23 -24 59 -29 78 -10 9 9 12 9 12
0 0 -7 5 -12 10 -12 6 0 10 28 10 65 0 36 -4 65 -9 65 -13 0 -20 -23 -14 -53
7 -33 -12 -57 -43 -57 -31 0 -50 34 -35 66 11 24 20 28 55 24 11 -1 15 3 12 9
-13 20 -64 12 -80 -11z"/>
<path d="M8600 163 c0 -35 4 -63 10 -63 6 0 10 20 10 44 0 42 18 76 40 76 22
0 40 -34 40 -76 0 -24 5 -44 10 -44 13 0 13 86 0 111 -9 15 -20 19 -60 17
l-50 -2 0 -63z"/>
<path d="M8997 212 c-22 -25 -21 -75 1 -95 21 -19 45 -21 73 -7 13 7 19 7 19
0 0 -5 5 -10 10 -10 6 0 10 28 10 65 0 37 -4 65 -10 65 -5 0 -10 -5 -10 -12 0
-9 -3 -9 -12 0 -18 18 -63 14 -81 -6z m88 -32 c10 -31 -12 -62 -42 -58 -33 4
-48 27 -39 61 10 42 67 41 81 -3z"/>
<path d="M9216 208 c-22 -30 -20 -60 4 -86 23 -24 59 -29 78 -10 9 9 12 9 12
0 0 -7 5 -12 10 -12 6 0 10 28 10 65 0 36 -4 65 -9 65 -13 0 -20 -23 -14 -53
7 -33 -12 -57 -43 -57 -31 0 -50 34 -35 66 11 24 20 28 55 24 11 -1 15 3 12 9
-13 20 -64 12 -80 -11z"/>
<path d="M9370 163 c0 -35 4 -63 10 -63 6 0 10 20 10 44 0 42 18 76 40 76 22
0 40 -34 40 -76 0 -24 5 -44 10 -44 6 0 10 22 10 50 0 40 4 51 21 60 32 18 49
-4 49 -61 0 -27 5 -49 10 -49 14 0 12 104 -2 118 -15 15 -60 16 -76 0 -8 -8
-15 -8 -25 0 -7 6 -32 10 -55 9 l-42 -1 0 -63z"/>
<path d="M1408 213 c17 -2 47 -2 65 0 17 2 3 4 -33 4 -36 0 -50 -2 -32 -4z"/>
<path d="M1380 160 c0 -6 27 -10 60 -10 33 0 60 4 60 10 0 6 -27 10 -60 10
-33 0 -60 -4 -60 -10z"/>
</g>
</svg>
