<?xml version="1.0" standalone="no"?>
<!DOCTYPE svg PUBLIC "-//W3C//DTD SVG 20010904//EN"
 "http://www.w3.org/TR/2001/REC-SVG-20010904/DTD/svg10.dtd">
<svg version="1.0" xmlns="http://www.w3.org/2000/svg"
 width="386.000000pt" height="126.000000pt" viewBox="0 0 386.000000 126.000000"
 preserveAspectRatio="xMidYMid meet">

<g transform="translate(0.000000,126.000000) scale(0.100000,-0.100000)"
fill="#000000" stroke="none">
<path d="M0 645 l0 -615 1915 0 1915 0 0 615 0 615 -1915 0 -1915 0 0 -615z
m340 589 c0 -8 -13 -69 -30 -134 -32 -125 -37 -161 -20 -144 5 5 25 72 43 149
l35 140 1721 3 1721 2 0 -605 0 -605 -1895 0 -1895 0 0 605 0 605 160 0 c138
0 160 -2 160 -16z"/>
<path d="M419 1188 c-2 -43 3 -184 7 -188 3 -2 8 1 12 7 5 8 13 9 22 3 46 -29
102 6 102 64 0 63 -49 94 -103 66 -17 -10 -19 -7 -19 25 0 19 -4 35 -10 35 -5
0 -10 -6 -11 -12z m109 -70 c17 -17 15 -64 -4 -82 -46 -46 -106 15 -74 75 12
22 59 26 78 7z"/>
<path d="M910 1165 c0 -34 -12 -46 -25 -25 -3 6 -19 10 -35 10 -33 0 -70 -40
-70 -75 0 -34 37 -75 69 -75 15 0 33 6 40 13 11 10 14 10 18 0 14 -37 23 -2
23 87 0 60 -4 100 -10 100 -5 0 -10 -16 -10 -35z m-13 -61 c15 -24 15 -29 2
-53 -28 -50 -91 -34 -91 24 0 56 58 75 89 29z"/>
<path d="M155 1130 l-29 -30 29 -30 c16 -16 35 -30 44 -30 10 0 6 9 -14 30
l-29 30 29 30 c20 21 24 30 14 30 -9 0 -28 -13 -44 -30z"/>
<path d="M1185 1130 l29 -30 -29 -30 c-37 -38 -20 -39 25 -1 l35 29 -29 31
c-17 17 -36 31 -45 31 -10 0 -6 -9 14 -30z"/>
<path d="M620 1130 c-28 -28 -26 -81 3 -108 31 -29 72 -28 102 3 30 30 32 64
4 99 -26 33 -79 36 -109 6z m88 -12 c17 -17 15 -73 -2 -88 -23 -18 -59 -8 -75
21 -13 24 -13 29 2 53 19 28 54 35 75 14z"/>
<path d="M992 1078 c26 -63 29 -77 19 -103 -13 -38 -14 -45 -2 -45 8 0 91 194
91 213 0 4 -4 7 -9 7 -4 0 -18 -27 -30 -60 -12 -33 -23 -60 -25 -60 -2 0 -13
27 -25 60 -13 34 -28 60 -36 60 -11 0 -6 -18 17 -72z"/>
<path d="M341 553 c-35 -134 -61 -244 -61 -259 0 -57 36 58 84 269 10 42 -12
32 -23 -10z"/>
<path d="M420 430 c0 -60 4 -100 10 -100 6 0 10 24 10 53 0 58 12 77 47 77 28
0 43 -32 43 -91 0 -21 5 -39 10 -39 14 0 12 90 -3 120 -14 28 -59 39 -83 19
-12 -10 -14 -6 -14 25 0 20 -4 36 -10 36 -6 0 -10 -40 -10 -100z"/>
<path d="M990 430 c0 -60 4 -100 10 -100 6 0 10 40 10 100 0 60 -4 100 -10
100 -6 0 -10 -40 -10 -100z"/>
<path d="M600 501 c0 -11 -6 -22 -12 -25 -10 -5 -10 -7 0 -12 7 -3 12 -24 12
-50 0 -25 5 -54 10 -65 11 -20 50 -27 50 -9 0 6 -7 10 -15 10 -12 0 -15 13
-15 55 0 42 3 55 15 55 8 0 15 5 15 10 0 6 -6 10 -14 10 -7 0 -16 9 -19 20 -7
26 -27 26 -27 1z"/>
<path d="M155 460 l-29 -30 29 -30 c16 -16 35 -30 44 -30 10 0 6 9 -14 30
l-29 30 29 30 c20 21 24 30 14 30 -9 0 -28 -13 -44 -30z"/>
<path d="M1105 460 l29 -30 -29 -30 c-20 -21 -24 -30 -14 -30 9 0 28 14 44 30
l29 30 -29 30 c-16 17 -35 30 -44 30 -10 0 -6 -9 14 -30z"/>
<path d="M700 403 c0 -74 19 -106 21 -35 2 60 13 87 37 90 38 6 52 -15 52 -74
0 -30 5 -54 10 -54 6 0 10 18 10 39 0 59 15 91 43 91 35 0 47 -19 47 -77 0
-29 5 -53 10 -53 6 0 10 26 10 58 0 44 -5 63 -18 75 -23 21 -66 22 -82 2 -11
-14 -15 -14 -29 -1 -10 9 -34 14 -64 13 l-47 -2 0 -72z"/>
</g>
</svg>
