<?xml version="1.0" standalone="no"?>
<!DOCTYPE svg PUBLIC "-//W3C//DTD SVG 20010904//EN"
 "http://www.w3.org/TR/2001/REC-SVG-20010904/DTD/svg10.dtd">
<svg version="1.0" xmlns="http://www.w3.org/2000/svg"
 width="388.000000pt" height="128.000000pt" viewBox="0 0 388.000000 128.000000"
 preserveAspectRatio="xMidYMid meet">

<g transform="translate(0.000000,128.000000) scale(0.100000,-0.100000)"
fill="#000000" stroke="none">
<path d="M10 640 l0 -619 283 -3 c155 -2 1014 -2 1910 0 l1627 2 0 228 c0 164
3 231 12 240 9 9 9 15 0 24 -9 9 -12 107 -12 380 l0 368 -1910 0 -1910 0 0
-620z m560 591 c0 -5 -6 -12 -12 -15 -10 -5 -10 -7 0 -12 7 -3 12 -26 12 -58
0 -54 12 -76 42 -76 24 0 23 16 -2 23 -17 4 -20 14 -20 56 0 44 3 51 20 51 11
0 20 5 20 10 0 6 -9 10 -20 10 -11 0 -20 5 -20 10 0 7 545 10 1615 10 l1615 0
0 -352 c0 -274 -3 -349 -12 -340 -7 7 -19 12 -27 12 -10 0 -5 -10 14 -30 l29
-30 -29 -30 c-19 -20 -24 -30 -14 -30 8 0 20 5 27 12 9 9 12 -35 12 -200 l0
-212 -1615 0 c-888 0 -1615 3 -1615 6 0 3 14 59 30 124 31 125 35 150 22 150
-4 0 -23 -63 -42 -140 l-34 -140 -273 0 -273 0 0 600 0 600 275 0 c160 0 275
-4 275 -9z"/>
<path d="M443 1201 l-33 -27 33 -32 c18 -18 39 -32 47 -32 9 1 0 13 -20 31
l-35 30 33 30 c41 37 18 38 -25 0z"/>
<path d="M820 1202 l34 -29 -35 -31 c-22 -21 -29 -32 -18 -32 8 0 29 15 47 33
l31 32 -34 28 c-45 36 -69 35 -25 -1z"/>
<path d="M670 1145 c0 -86 15 -101 22 -23 4 38 12 57 28 70 13 10 20 21 17 25
-4 3 -14 0 -23 -8 -13 -11 -18 -11 -21 -1 -12 34 -23 4 -23 -63z"/>
<path d="M1896 845 c-39 -156 -40 -165 -27 -165 7 0 81 272 81 300 0 5 -4 10
-9 10 -5 0 -25 -65 -45 -145z"/>
<path d="M990 830 c0 -60 4 -100 10 -100 6 0 10 24 10 53 0 58 12 77 47 77 29
0 43 -27 43 -84 0 -25 5 -46 10 -46 16 0 12 103 -6 128 -17 24 -62 30 -82 10
-9 -9 -12 -4 -12 25 0 20 -4 37 -10 37 -6 0 -10 -40 -10 -100z"/>
<path d="M2110 830 c0 -60 4 -100 10 -100 6 0 10 24 10 53 0 58 12 77 47 77
28 0 43 -32 43 -91 0 -21 5 -39 10 -39 14 0 12 90 -3 120 -14 28 -59 39 -83
19 -12 -10 -14 -6 -14 25 0 20 -4 36 -10 36 -6 0 -10 -40 -10 -100z"/>
<path d="M890 901 c0 -11 -6 -22 -12 -25 -10 -5 -10 -7 0 -12 7 -3 12 -26 12
-58 0 -54 12 -76 42 -76 24 0 23 16 -2 23 -17 4 -20 14 -20 56 0 44 3 51 20
51 11 0 20 5 20 10 0 6 -9 10 -20 10 -13 0 -20 7 -20 20 0 11 -4 20 -10 20 -5
0 -10 -9 -10 -19z"/>
<path d="M1320 825 c0 -57 4 -95 10 -95 6 0 10 30 10 70 0 39 4 70 9 70 4 0
29 -31 55 -70 25 -38 51 -70 56 -70 6 0 10 39 10 95 0 111 -18 130 -22 23 l-3
-73 -49 73 c-27 39 -55 72 -62 72 -11 0 -14 -22 -14 -95z"/>
<path d="M2010 901 c0 -11 -6 -22 -12 -25 -10 -5 -10 -7 0 -12 7 -4 12 -27 12
-64 0 -58 8 -70 46 -70 21 0 17 17 -6 23 -17 4 -20 14 -20 56 0 44 3 51 20 51
11 0 20 5 20 10 0 6 -9 10 -20 10 -13 0 -20 7 -20 20 0 11 -4 20 -10 20 -5 0
-10 -9 -10 -19z"/>
<path d="M755 860 l-29 -30 29 -30 c16 -16 35 -30 44 -30 10 0 6 9 -14 30
l-29 30 29 30 c20 21 24 30 14 30 -9 0 -28 -13 -44 -30z"/>
<path d="M1210 862 l34 -29 -35 -31 c-22 -21 -29 -32 -18 -32 8 0 29 15 47 33
l31 32 -34 28 c-45 36 -69 35 -25 -1z"/>
<path d="M1734 859 l-29 -31 35 -29 c45 -38 62 -37 25 1 l-29 30 29 30 c20 21
24 30 14 30 -9 0 -28 -14 -45 -31z"/>
<path d="M2325 860 l29 -30 -29 -30 c-20 -21 -24 -30 -14 -30 9 0 28 14 44 30
l29 30 -29 30 c-16 17 -35 30 -44 30 -10 0 -6 -9 14 -30z"/>
<path d="M1539 861 c-51 -41 -17 -131 50 -131 39 0 71 34 71 75 0 66 -69 98
-121 56z m83 -18 c34 -31 10 -93 -37 -93 -30 0 -45 19 -45 55 0 53 43 73 82
38z"/>
<path d="M3391 623 c-35 -134 -61 -244 -61 -259 0 -57 36 58 84 269 10 42 -12
32 -23 -10z"/>
<path d="M3097 604 c-8 -8 1 -24 14 -24 5 0 9 7 9 15 0 15 -12 20 -23 9z"/>
<path d="M990 500 c0 -60 4 -100 10 -100 6 0 10 24 10 53 0 58 12 77 47 77 29
0 43 -27 43 -84 0 -25 5 -46 10 -46 16 0 12 103 -6 128 -17 24 -62 30 -82 10
-9 -9 -12 -4 -12 25 0 20 -4 37 -10 37 -6 0 -10 -40 -10 -100z"/>
<path d="M3570 500 c0 -60 4 -100 10 -100 6 0 10 17 11 38 2 60 13 87 37 90
38 6 52 -15 52 -74 0 -43 3 -54 16 -54 14 0 16 9 11 60 -7 80 -19 94 -74 86
-42 -6 -43 -5 -43 24 0 17 -4 30 -10 30 -6 0 -10 -40 -10 -100z"/>
<path d="M890 571 c0 -11 -6 -22 -12 -25 -10 -5 -10 -7 0 -12 7 -3 12 -26 12
-58 0 -54 12 -76 42 -76 24 0 23 16 -2 23 -17 4 -20 14 -20 56 0 44 3 51 20
51 11 0 20 5 20 10 0 6 -9 10 -20 10 -13 0 -20 7 -20 20 0 11 -4 20 -10 20 -5
0 -10 -9 -10 -19z"/>
<path d="M1320 495 c0 -57 4 -95 10 -95 6 0 10 30 10 70 0 39 4 70 9 70 4 0
29 -31 55 -70 25 -38 51 -70 56 -70 6 0 10 39 10 95 0 111 -18 130 -22 23 l-3
-73 -49 73 c-27 39 -55 72 -62 72 -11 0 -14 -22 -14 -95z"/>
<path d="M2280 496 c0 -57 4 -96 10 -96 6 0 10 30 11 68 l1 67 30 -68 c17 -37
35 -66 40 -65 5 2 22 33 38 68 l29 65 1 -67 c0 -54 3 -68 15 -68 12 0 15 17
15 95 0 120 -15 125 -61 20 -18 -41 -35 -75 -38 -75 -3 0 -20 33 -37 72 -44
103 -54 99 -54 -16z"/>
<path d="M2710 571 c0 -11 -6 -22 -12 -25 -10 -5 -10 -7 0 -12 7 -3 12 -24 12
-50 0 -25 5 -54 10 -65 11 -20 50 -27 50 -9 0 6 -7 10 -15 10 -12 0 -15 13
-15 55 0 42 3 55 15 55 8 0 15 5 15 10 0 6 -6 10 -14 10 -7 0 -16 9 -19 20 -7
26 -27 26 -27 1z"/>
<path d="M3470 571 c0 -11 -6 -22 -12 -25 -10 -5 -10 -7 0 -12 7 -3 12 -24 12
-50 0 -25 5 -54 10 -65 11 -20 50 -27 50 -9 0 6 -7 10 -15 10 -12 0 -15 13
-15 55 0 42 3 55 15 55 8 0 15 5 15 10 0 6 -6 10 -14 10 -7 0 -16 9 -19 20 -7
26 -27 26 -27 1z"/>
<path d="M755 530 l-29 -30 29 -30 c16 -16 35 -30 44 -30 10 0 6 9 -14 30
l-29 30 29 30 c20 21 24 30 14 30 -9 0 -28 -13 -44 -30z"/>
<path d="M1210 532 l34 -29 -35 -31 c-22 -21 -29 -32 -18 -32 8 0 29 15 47 33
l31 32 -34 28 c-45 36 -69 35 -25 -1z"/>
<path d="M3205 530 l-29 -30 29 -30 c16 -16 35 -30 44 -30 10 0 6 9 -14 30
l-29 30 29 30 c20 21 24 30 14 30 -9 0 -28 -13 -44 -30z"/>
<path d="M1535 530 c-27 -30 -25 -88 4 -111 27 -22 61 -25 80 -6 11 10 14 10
18 0 12 -34 23 -5 23 62 0 43 -4 75 -10 75 -5 0 -10 -5 -10 -10 0 -7 -6 -7
-19 0 -31 16 -66 12 -86 -10z m87 -17 c34 -31 10 -93 -37 -93 -30 0 -45 19
-45 55 0 53 43 73 82 38z"/>
<path d="M1720 475 c0 -43 4 -75 10 -75 6 0 10 24 10 54 0 59 14 80 52 74 21
-3 23 -9 26 -65 2 -46 7 -63 17 -63 10 0 15 16 17 56 3 64 23 88 56 68 12 -8
18 -27 20 -68 4 -77 22 -71 22 9 0 53 -3 66 -19 75 -28 14 -57 13 -74 -5 -13
-13 -16 -13 -27 0 -15 18 -61 20 -78 3 -9 -9 -12 -9 -12 0 0 7 -4 12 -10 12
-6 0 -10 -32 -10 -75z"/>
<path d="M2015 530 c-27 -30 -25 -88 4 -111 27 -22 61 -25 80 -6 11 10 14 10
18 0 12 -34 23 -5 23 62 0 43 -4 75 -10 75 -5 0 -10 -5 -10 -10 0 -7 -6 -7
-19 0 -31 16 -66 12 -86 -10z m87 -17 c34 -31 10 -93 -37 -93 -30 0 -45 19
-45 55 0 53 43 73 82 38z"/>
<path d="M2532 527 c-29 -31 -29 -77 1 -105 26 -24 66 -29 86 -9 11 10 14 10
18 0 12 -34 23 -5 23 62 0 67 -11 96 -23 63 -4 -10 -7 -10 -18 0 -21 19 -64
14 -87 -11z m88 -12 c16 -20 16 -61 0 -80 -19 -23 -62 -14 -79 16 -13 24 -13
29 2 53 20 29 57 35 77 11z"/>
<path d="M2832 534 c-29 -20 -31 -85 -2 -114 32 -32 110 -21 110 15 0 19 -14
19 -30 0 -23 -28 -80 -13 -80 22 0 9 17 13 60 13 51 0 60 3 60 18 0 26 -42 62
-71 62 -13 0 -35 -7 -47 -16z m86 -26 c3 -15 -4 -18 -42 -18 -25 0 -46 4 -46
8 0 34 82 42 88 10z"/>
<path d="M2990 475 c0 -43 4 -75 10 -75 6 0 10 22 10 49 0 48 13 73 42 84 7 2
9 8 5 13 -4 4 -17 3 -27 -4 -12 -7 -20 -8 -20 -2 0 5 -4 10 -10 10 -6 0 -10
-32 -10 -75z"/>
<path d="M3100 475 c0 -43 4 -75 10 -75 6 0 10 32 10 75 0 43 -4 75 -10 75 -6
0 -10 -32 -10 -75z"/>
<path d="M710 231 c0 -11 -6 -22 -12 -25 -10 -5 -10 -7 0 -12 7 -3 12 -26 12
-58 0 -54 12 -76 42 -76 24 0 23 16 -2 23 -17 4 -20 14 -20 56 0 44 3 51 20
51 11 0 20 5 20 10 0 6 -9 10 -20 10 -13 0 -20 7 -20 20 0 11 -4 20 -10 20 -5
0 -10 -9 -10 -19z"/>
<path d="M443 191 l-33 -27 33 -32 c18 -18 39 -32 47 -32 9 1 0 13 -20 31
l-35 30 33 30 c41 37 18 38 -25 0z"/>
<path d="M955 190 l29 -30 -29 -30 c-20 -21 -24 -30 -14 -30 9 0 28 13 44 30
l29 30 -29 30 c-16 17 -35 30 -44 30 -10 0 -6 -9 14 -30z"/>
<path d="M810 135 c0 -88 18 -102 22 -17 3 48 7 59 26 67 12 5 22 13 22 17 0
12 -25 9 -38 -4 -9 -9 -12 -9 -12 0 0 7 -4 12 -10 12 -6 0 -10 -32 -10 -75z"/>
</g>
</svg>
