<svg xmlns="http://www.w3.org/2000/svg" fill="none" viewBox="7.68 6.82 153.64 136.36">
<path d="M7.68182 22.9921C11.2769 28.1289 14.7261 33.335 16.0012 39.4051C17.7066 47.5113 15.2791 56.2269 17.9217 64.0709C21.4861 74.6529 33.2316 80.6998 37.1646 91.1508C39.6536 97.7607 38.7087 105.427 41.9351 111.706C46.4443 120.491 51.86 124.108 55.3859 124.817C66.4785 127.054 89.5546 128.242 100.778 126.815C108.383 125.851 116.695 122.99 120.021 116.056C122.602 110.672 121.496 104.186 123.485 98.5551C127.05 88.4744 139.156 84.0703 144.541 74.838C151.524 62.8599 145.194 46.8403 150.725 34.1218C153.091 28.6842 157.385 24.4344 161.318 19.9532V6.81818H7.68182V22.9921Z" fill="#0E1237"/>
<path d="M61.2548 90.3101C59.9182 90.8885 58.4663 91.7601 58.2512 93.2024C57.8902 95.6011 61.0013 96.8351 63.4057 97.0974C81.5425 99.0642 99.879 95.8788 118.085 97.0048C119.982 97.1205 121.941 97.3133 123.793 97.753C124.184 96.8043 124.645 95.9096 125.168 95.0535C124.23 94.691 123.332 94.2205 122.51 93.6112C124.015 92.7859 125.644 92.3385 127.334 92.1072C128.901 90.2715 130.729 88.6055 132.627 86.9704C117.155 86.9549 101.677 86.9395 86.2054 86.9164C77.7477 86.9241 69.0211 86.9704 61.2548 90.3101ZM46.0295 11.3071C45.0001 11.1142 43.9554 10.8443 43.1104 10.2196C42.0196 9.4097 41.5049 8.16022 41.4434 6.81818H7.68182V22.9921C9.05687 24.9589 10.4089 26.9256 11.6226 28.9541C16.4314 27.9823 21.2095 26.7637 25.9646 25.6067C51.5296 19.4056 77.6939 14.8936 103.989 15.4489C112.039 15.6186 120.873 16.6135 126.45 22.4445C127.695 23.7479 128.778 25.4448 128.563 27.2342C128.171 30.435 124.23 31.6536 121.027 31.939C97.0137 34.0755 73.0464 24.365 49.0715 26.9102C44.5546 27.3884 39.1081 29.2704 38.4936 33.7901C38.0557 37.0449 40.6445 40.0915 43.6942 41.287C46.7439 42.4825 50.1315 42.2588 53.3963 42.0197C63.6976 41.2639 73.999 40.508 84.2926 39.7522C90.9835 39.2585 98.7805 39.2122 103.052 44.403C103.935 45.4751 104.626 46.8171 104.527 48.2055C104.265 51.7071 99.7715 52.8718 96.2762 53.0646C81.5425 53.8744 66.7243 53.9284 52.1365 56.1343C40.6368 57.8774 29.1448 61.0397 18.9741 66.6238C22.2312 73.3109 28.6071 78.2625 33.1855 84.24C38.1633 83.0985 43.118 81.7642 48.0728 80.5533C71.1336 74.9074 94.786 71.7374 118.515 71.1127C126.128 70.9122 134.117 71.0664 140.808 74.7223C141.722 75.2237 142.644 75.8484 143.42 76.5811C143.819 76.0181 144.195 75.4473 144.549 74.8457C145.985 72.3776 146.861 69.7321 147.391 66.9863C145.348 66.0453 142.989 65.6288 140.731 65.3589C114.305 62.1658 87.7801 70.434 61.1703 69.9018C60.0257 69.8786 58.812 69.8169 57.8671 69.1691C56.9223 68.5212 56.446 67.0634 57.1911 66.1996C57.5676 65.76 58.159 65.5749 58.7121 65.4206C75.4355 60.6849 93.7412 62.8599 109.942 56.5739C113.868 55.0545 118.192 52.0465 117.785 47.843C117.424 44.1254 113.545 41.9118 110.065 40.6006C93.0806 34.1912 75.1282 35.5949 57.3448 35.8957C54.5256 35.942 50.531 34.5074 51.4451 31.831C51.8907 30.5276 53.3886 29.9491 54.7176 29.6097C76.2421 24.0796 98.0661 36.8444 120.259 37.9242C125.982 38.2019 132.181 37.5154 136.468 33.7053C141.261 29.4478 142.421 21.9508 140.101 15.9579C138.688 12.3252 136.183 9.24002 133.111 6.8336H72.9312C64.0664 9.91104 55.1017 13.0116 46.0295 11.3071ZM55.3859 124.825C66.2711 124.031 80.0522 121.64 90.9374 120.845C100.225 120.167 109.55 119.48 118.769 118.184C119.245 117.521 119.667 116.819 120.028 116.063C121.503 112.994 121.772 109.569 122.103 106.145C95.5926 110.148 67.07 103.245 42.25 112.292C45.5148 118.107 48.7565 122.889 55.3859 124.825Z" fill="#262E68"/>
<path d="M98.2197 74.8457C102.025 74.8457 105.11 71.7482 105.11 67.9273C105.11 64.1063 102.025 61.0088 98.2197 61.0088C94.4142 61.0088 91.3292 64.1063 91.3292 67.9273C91.3292 71.7482 94.4142 74.8457 98.2197 74.8457Z" fill="#33C3DF"/>
<path d="M98.2197 61.0088C94.4249 61.0088 91.3522 64.0863 91.3368 67.8887C92.0512 68.4055 93.0268 68.6369 93.4416 69.4082C93.7719 70.0252 93.6413 70.835 94.0792 71.3827C94.3327 71.7066 94.7398 71.8686 95.001 72.1925C95.4158 72.7016 95.3697 73.496 95.8383 73.9588C96.2301 73.5731 96.4836 73.0641 96.5912 72.5242C96.6449 72.2542 96.6603 71.9765 96.7678 71.722C96.8984 71.4135 97.1596 71.159 97.2211 70.8273C97.3056 70.3491 96.9522 69.9172 96.5988 69.5933C96.1379 69.1691 95.6232 68.7988 95.0778 68.4826C94.9088 68.3823 94.7245 68.2898 94.5939 68.1355C94.4633 67.989 94.3942 67.7653 94.471 67.5879C94.5171 67.4877 94.6092 67.3874 94.5939 67.2794C94.5708 67.156 94.4326 67.0943 94.325 67.0249C93.9793 66.8012 93.9256 66.2844 94.1176 65.9219C94.3097 65.5594 94.6784 65.3203 95.0471 65.1429C95.4158 64.9655 95.8153 64.8344 96.1533 64.603C96.4913 64.3639 96.7678 63.9937 96.7448 63.5772C96.7294 63.2764 96.5681 62.9988 96.5681 62.7057C96.5681 62.4049 96.8831 62.0809 97.1289 62.2429C97.3747 62.4126 97.2518 62.8754 97.513 63.0219C97.6436 63.0913 97.8049 63.045 97.9432 62.991C98.2658 62.8754 98.6115 62.7288 98.7497 62.4203C98.7882 62.3355 98.8035 62.2429 98.8573 62.1581C98.9187 62.0578 99.0263 61.9884 99.1108 61.9035C99.2952 61.703 99.3336 61.4176 99.3412 61.1477V61.1014C98.9725 61.0474 98.5961 61.0088 98.2197 61.0088Z" fill="#2D92A0"/>
<path d="M101.669 61.9498C101.285 61.9961 100.885 62.0346 100.586 62.266C100.332 62.4589 100.194 62.7674 99.9481 62.9679C99.6639 63.1993 99.2568 63.2764 99.0109 63.5464C98.9572 63.6081 98.9111 63.6775 98.9264 63.7546C98.9418 63.8395 99.0109 63.8934 99.0647 63.9551C99.2491 64.1788 99.1799 64.5182 99.0109 64.7573C98.8419 64.9887 98.6038 65.1584 98.4118 65.3743C98.1583 65.6674 98.0046 66.0376 97.8663 66.3924C97.7281 66.7472 97.5821 67.1251 97.6128 67.5108C97.6436 67.8964 97.9124 68.2898 98.2888 68.3361C98.6038 68.3746 98.9802 68.1895 99.203 68.4209C99.2721 68.4903 99.3028 68.5829 99.3336 68.6677C99.4488 69.0379 99.4949 69.4313 99.4565 69.8169C99.4411 70.0098 99.4104 70.2026 99.4565 70.3877C99.541 70.7116 99.8483 70.9276 100.002 71.2284C100.202 71.6295 100.102 72.1077 100.148 72.5473C100.156 72.609 100.171 72.6784 100.225 72.7015C100.271 72.7247 100.325 72.6938 100.371 72.6707C100.87 72.4007 101.331 72.0614 101.738 71.668C101.876 71.5369 102.007 71.3981 102.084 71.2361C102.306 70.7888 102.13 70.2566 102.184 69.7552C102.276 68.9145 102.998 68.3052 103.697 67.8347C104.142 67.5339 104.626 67.2254 104.995 66.8398C104.68 64.7496 103.428 62.9756 101.669 61.9498Z" fill="#2D92A0"/>
<path d="M92.2893 69.4467C91.959 69.2925 91.6671 69.0919 91.3983 68.8528C91.8515 72.2311 94.7322 74.838 98.2197 74.838C101.292 74.838 103.904 72.8095 104.788 70.0175C104.404 70.2566 104.004 70.4494 103.566 70.5651C102.691 70.8042 101.746 70.7116 100.87 70.9584C100.294 71.1204 99.7484 71.4289 99.1492 71.4752C97.9816 71.5755 96.9753 70.7116 95.8691 70.3106C94.7091 69.8941 93.4032 69.9712 92.2893 69.4467Z" fill="#2D92A0"/>
<path d="M95.8691 70.3183C95.147 70.056 94.3558 69.9866 93.603 69.8401C93.7412 70.3723 93.7412 70.9585 94.0792 71.3904C94.3327 71.7143 94.7399 71.8763 95.0011 72.2002C95.4159 72.7093 95.3698 73.5037 95.8384 73.9665C96.2301 73.5808 96.4836 73.0718 96.5912 72.5319C96.645 72.2619 96.6603 71.9843 96.7679 71.7297C96.8831 71.4598 97.0982 71.2284 97.1904 70.9507C96.7525 70.7194 96.3146 70.4803 95.8691 70.3183ZM100.862 70.9585C100.578 71.0356 100.302 71.1513 100.025 71.2515C100.202 71.6449 100.109 72.1077 100.156 72.5396C100.163 72.6013 100.179 72.6707 100.232 72.6939C100.278 72.717 100.332 72.6861 100.378 72.663C100.878 72.3931 101.339 72.0537 101.746 71.6603C101.884 71.5292 102.015 71.3904 102.091 71.2284C102.161 71.0819 102.191 70.9199 102.199 70.7579C101.753 70.8042 101.3 70.8428 100.862 70.9585Z" fill="#24747A"/>
<path d="M34.0305 23.0692C34.0305 19.0122 36.7191 15.58 40.4064 14.4771C39.5998 14.238 38.7394 14.1068 37.856 14.1068C32.9243 14.1068 28.9297 18.1175 28.9297 23.0692C28.9297 28.0209 32.9243 32.0316 37.856 32.0316C38.7394 32.0316 39.5998 31.9004 40.4064 31.6613C36.7191 30.5584 34.0305 27.1262 34.0305 23.0692Z" fill="#FFE4AE"/>
<path d="M46.9206 55.4556C46.3982 53.7587 44.8234 52.5324 42.9721 52.5324C40.6906 52.5324 38.8393 54.3912 38.8393 56.6819C38.8393 57.3606 39.0006 57.9931 39.2925 58.5638C40.898 58.4636 44.4701 57.9468 46.9206 55.4556ZM40.1222 59.6822C40.8673 60.3918 41.8659 60.8314 42.9721 60.8314C45.1384 60.8314 46.9129 59.1577 47.0896 57.029C45.5609 57.7694 42.4344 59.1886 40.1222 59.6822Z" fill="#8CD7F8"/>
<path d="M50.6923 53.8359C50.4235 53.0954 48.4723 53.0954 45.8528 53.7048C46.3444 54.1829 46.7131 54.7768 46.9205 55.4479C44.4624 57.9391 40.898 58.4559 39.2848 58.5561C39.0006 57.9931 38.8316 57.3529 38.8316 56.6742C38.8316 56.5431 38.8393 56.412 38.8546 56.2886C36.4733 57.5226 35.006 58.7875 35.2749 59.528C35.6129 60.4535 38.6242 60.2221 42.273 59.0575C44.109 58.4173 46.0064 57.5535 47.0895 57.029C47.0895 57.0444 47.0819 57.0676 47.0819 57.083C49.4709 55.8489 50.9612 54.5763 50.6923 53.8359Z" fill="#EF443D"/>
<path d="M96.9522 95.5394C97.7665 93.966 97.5053 91.9837 96.1764 90.6725C94.5478 89.0606 91.9283 89.0837 90.3305 90.7188C89.8543 91.2047 89.5316 91.7755 89.3396 92.3771C90.561 93.4415 93.4647 95.5857 96.9522 95.5394ZM89.1475 93.7654C89.1782 94.7912 89.5854 95.8093 90.3766 96.5883C91.9207 98.1155 94.3558 98.1695 95.969 96.7812C94.3712 96.2335 91.1448 95.0458 89.1475 93.7654Z" fill="#8CD7F8"/>
<path d="M100.77 97.0434C101.093 96.3261 99.71 94.9532 97.4132 93.5417C97.4285 94.2282 97.2749 94.9146 96.9523 95.5394C93.4647 95.5857 90.561 93.4415 89.3396 92.3771C89.5316 91.7755 89.8543 91.2047 90.3305 90.7188C90.4227 90.6263 90.5149 90.5414 90.6148 90.4566C88.0567 89.6622 86.1209 89.5233 85.7983 90.2406C85.3911 91.143 87.6957 93.0944 91.1141 94.8375C92.8655 95.6782 94.8244 96.3955 95.9613 96.7889C95.9459 96.8043 95.9306 96.812 95.9229 96.8197C98.4963 97.6219 100.447 97.7607 100.77 97.0434Z" fill="#EF443D"/>
<path d="M146.423 12.6568C146.777 11.3302 146.262 9.88018 145.04 9.1089C143.55 8.16021 141.576 8.60756 140.631 10.1039C140.355 10.5435 140.201 11.0294 140.155 11.5153C141.253 12.1169 143.796 13.2661 146.423 12.6568ZM140.239 12.5951C140.431 13.3664 140.908 14.0683 141.63 14.5233C143.043 15.418 144.894 15.0632 145.885 13.7443C144.587 13.6055 141.952 13.2353 140.239 12.5951Z" fill="#784C9E"/>
<path d="M149.55 13.1582C149.68 12.5643 148.405 11.7544 146.446 11.068C146.569 11.5847 146.569 12.1246 146.423 12.6491C143.796 13.2584 141.253 12.1169 140.155 11.5153C140.201 11.0294 140.355 10.5435 140.631 10.1039C140.685 10.019 140.739 9.9419 140.8 9.85705C138.741 9.67966 137.251 9.89562 137.128 10.4895C136.967 11.2377 139.033 12.3329 141.899 13.081C143.358 13.4281 144.956 13.6441 145.878 13.7521C145.87 13.7598 145.862 13.7752 145.855 13.7829C147.929 13.968 149.419 13.7521 149.55 13.1582Z" fill="#5C6AB2"/>
<path d="M60.6557 27.6352C61.9114 27.6352 62.9295 26.6131 62.9295 25.3522C62.9295 24.0913 61.9114 23.0692 60.6557 23.0692C59.3999 23.0692 58.3818 24.0913 58.3818 25.3522C58.3818 26.6131 59.3999 27.6352 60.6557 27.6352Z" fill="#5F6CB2"/>
<path d="M140.915 68.5983C142.171 68.5983 143.189 67.5762 143.189 66.3153C143.189 65.0544 142.171 64.0323 140.915 64.0323C139.66 64.0323 138.641 65.0544 138.641 66.3153C138.641 67.5762 139.66 68.5983 140.915 68.5983Z" fill="#5F6CB2"/>
<path d="M12.2832 13.3201C13.1105 13.3201 13.7812 12.6468 13.7812 11.8161C13.7812 10.9855 13.1105 10.3121 12.2832 10.3121C11.4559 10.3121 10.7853 10.9855 10.7853 11.8161C10.7853 12.6468 11.4559 13.3201 12.2832 13.3201Z" fill="#784C9E"/>
<path d="M116.764 70.272C118.019 70.272 119.037 69.2499 119.037 67.989C119.037 66.7281 118.019 65.706 116.764 65.706C115.508 65.706 114.49 66.7281 114.49 67.989C114.49 69.2499 115.508 70.272 116.764 70.272Z" fill="#F9A859"/>
<path d="M90.9835 113.665C92.2393 113.665 93.2573 112.642 93.2573 111.382C93.2573 110.121 92.2393 109.099 90.9835 109.099C89.7277 109.099 88.7097 110.121 88.7097 111.382C88.7097 112.642 89.7277 113.665 90.9835 113.665Z" fill="#F9A859"/>
<path d="M132.219 17.8939C133.047 17.8939 133.717 17.2205 133.717 16.3899C133.717 15.5592 133.047 14.8858 132.219 14.8858C131.392 14.8858 130.721 15.5592 130.721 16.3899C130.721 17.2205 131.392 17.8939 132.219 17.8939Z" fill="#8CD7F8"/>
<path d="M75.0898 74.3444C75.6031 74.3444 76.0193 73.9266 76.0193 73.4111C76.0193 72.8957 75.6031 72.4779 75.0898 72.4779C74.5764 72.4779 74.1603 72.8957 74.1603 73.4111C74.1603 73.9266 74.5764 74.3444 75.0898 74.3444Z" fill="#5F6CB2"/>
<path d="M82.1801 65.5363C82.6935 65.5363 83.1096 65.1185 83.1096 64.603C83.1096 64.0876 82.6935 63.6698 82.1801 63.6698C81.6668 63.6698 81.2506 64.0876 81.2506 64.603C81.2506 65.1185 81.6668 65.5363 82.1801 65.5363Z" fill="#5F6CB2"/>
<path d="M34.0535 41.3102C34.5668 41.3102 34.983 40.8923 34.983 40.3769C34.983 39.8615 34.5668 39.4436 34.0535 39.4436C33.5401 39.4436 33.124 39.8615 33.124 40.3769C33.124 40.8923 33.5401 41.3102 34.0535 41.3102Z" fill="#8CD7F8"/>
<path d="M42.9798 72.6476C43.4931 72.6476 43.9093 72.2297 43.9093 71.7143C43.9093 71.1989 43.4931 70.7811 42.9798 70.7811C42.4664 70.7811 42.0503 71.1989 42.0503 71.7143C42.0503 72.2297 42.4664 72.6476 42.9798 72.6476Z" fill="#784C9E"/>
<path d="M88.6251 42.2434C89.1385 42.2434 89.5546 41.8256 89.5546 41.3102C89.5546 40.7947 89.1385 40.3769 88.6251 40.3769C88.1118 40.3769 87.6956 40.7947 87.6956 41.3102C87.6956 41.8256 88.1118 42.2434 88.6251 42.2434Z" fill="#FEFACE"/>
<path d="M70.0735 45.6679C70.5869 45.6679 71.003 45.2501 71.003 44.7347C71.003 44.2192 70.5869 43.8014 70.0735 43.8014C69.5602 43.8014 69.144 44.2192 69.144 44.7347C69.144 45.2501 69.5602 45.6679 70.0735 45.6679Z" fill="#FEFACE"/>
<path d="M31.8795 69.5316C32.3929 69.5316 32.809 69.1137 32.809 68.5983C32.809 68.0829 32.3929 67.6651 31.8795 67.6651C31.3662 67.6651 30.95 68.0829 30.95 68.5983C30.95 69.1137 31.3662 69.5316 31.8795 69.5316Z" fill="#FEFACE"/>
<path d="M59.8567 46.9406C60.3701 46.9406 60.7862 46.5227 60.7862 46.0073C60.7862 45.4919 60.3701 45.074 59.8567 45.074C59.3434 45.074 58.9272 45.4919 58.9272 46.0073C58.9272 46.5227 59.3434 46.9406 59.8567 46.9406Z" fill="#FBAF34"/>
<path d="M57.0068 33.9289C57.5201 33.9289 57.9363 33.5111 57.9363 32.9957C57.9363 32.4802 57.5201 32.0624 57.0068 32.0624C56.4934 32.0624 56.0773 32.4802 56.0773 32.9957C56.0773 33.5111 56.4934 33.9289 57.0068 33.9289Z" fill="#FBAF34"/>
<path d="M54.0186 67.5262C54.5319 67.5262 54.9481 67.1084 54.9481 66.593C54.9481 66.0775 54.5319 65.6597 54.0186 65.6597C53.5052 65.6597 53.0891 66.0775 53.0891 66.593C53.0891 67.1084 53.5052 67.5262 54.0186 67.5262Z" fill="#784C9E"/>
<path d="M99.9558 65.5363C100.469 65.5363 100.885 65.1185 100.885 64.603C100.885 64.0876 100.469 63.6698 99.9558 63.6698C99.4425 63.6698 99.0263 64.0876 99.0263 64.603C99.0263 65.1185 99.4425 65.5363 99.9558 65.5363Z" fill="#F9A859"/>
<path d="M112.423 35.2016C112.937 35.2016 113.353 34.7837 113.353 34.2683C113.353 33.7529 112.937 33.335 112.423 33.335C111.91 33.335 111.494 33.7529 111.494 34.2683C111.494 34.7837 111.91 35.2016 112.423 35.2016Z" fill="#8CD7F8"/>
<path d="M58.2051 96.812C58.7185 96.812 59.1346 96.3942 59.1346 95.8787C59.1346 95.3633 58.7185 94.9455 58.2051 94.9455C57.6918 94.9455 57.2756 95.3633 57.2756 95.8787C57.2756 96.3942 57.6918 96.812 58.2051 96.812Z" fill="#8CD7F8"/>
<path d="M85.2682 22.8995C85.7815 22.8995 86.1977 22.4817 86.1977 21.9663C86.1977 21.4508 85.7815 21.033 85.2682 21.033C84.7548 21.033 84.3387 21.4508 84.3387 21.9663C84.3387 22.4817 84.7548 22.8995 85.2682 22.8995Z" fill="#8CD7F8"/>
<path d="M38.7932 48.0126C39.3065 48.0126 39.7227 47.5948 39.7227 47.0794C39.7227 46.564 39.3065 46.1461 38.7932 46.1461C38.2798 46.1461 37.8637 46.564 37.8637 47.0794C37.8637 47.5948 38.2798 48.0126 38.7932 48.0126Z" fill="#8CD7F8"/>
<path d="M46.4827 12.7494C46.996 12.7494 47.4122 12.3315 47.4122 11.8161C47.4122 11.3007 46.996 10.8829 46.4827 10.8829C45.9693 10.8829 45.5532 11.3007 45.5532 11.8161C45.5532 12.3315 45.9693 12.7494 46.4827 12.7494Z" fill="#8CD7F8"/>
<path d="M51.8753 11.9858C51.9687 11.9858 52.0443 11.9098 52.0443 11.8161C52.0443 11.7224 51.9687 11.6464 51.8753 11.6464C51.782 11.6464 51.7063 11.7224 51.7063 11.8161C51.7063 11.9098 51.782 11.9858 51.8753 11.9858Z" fill="#8CD7F8"/>
<path d="M46.4827 25.5219C46.576 25.5219 46.6517 25.4459 46.6517 25.3522C46.6517 25.2585 46.576 25.1825 46.4827 25.1825C46.3894 25.1825 46.3137 25.2585 46.3137 25.3522C46.3137 25.4459 46.3894 25.5219 46.4827 25.5219Z" fill="#8CD7F8"/>
<path d="M25.5267 15.0555C25.62 15.0555 25.6957 14.9796 25.6957 14.8858C25.6957 14.7921 25.62 14.7162 25.5267 14.7162C25.4334 14.7162 25.3577 14.7921 25.3577 14.8858C25.3577 14.9796 25.4334 15.0555 25.5267 15.0555Z" fill="#8CD7F8"/>
<path d="M27.209 36.937C27.3023 36.937 27.378 36.861 27.378 36.7673C27.378 36.6736 27.3023 36.5976 27.209 36.5976C27.1157 36.5976 27.04 36.6736 27.04 36.7673C27.04 36.861 27.1157 36.937 27.209 36.937Z" fill="#8CD7F8"/>
<path d="M90.0386 73.2723C90.132 73.2723 90.2076 73.1964 90.2076 73.1026C90.2076 73.0089 90.132 72.933 90.0386 72.933C89.9453 72.933 89.8696 73.0089 89.8696 73.1026C89.8696 73.1964 89.9453 73.2723 90.0386 73.2723Z" fill="#8CD7F8"/>
<path d="M46.4827 50.2725C46.576 50.2725 46.6517 50.1965 46.6517 50.1028C46.6517 50.0091 46.576 49.9332 46.4827 49.9332C46.3894 49.9332 46.3137 50.0091 46.3137 50.1028C46.3137 50.1965 46.3894 50.2725 46.4827 50.2725Z" fill="#8CD7F8"/>
<path d="M31.9026 50.4422C31.9959 50.4422 32.0716 50.3662 32.0716 50.2725C32.0716 50.1788 31.9959 50.1028 31.9026 50.1028C31.8092 50.1028 31.7336 50.1788 31.7336 50.2725C31.7336 50.3662 31.8092 50.4422 31.9026 50.4422Z" fill="#8CD7F8"/>
<path d="M51.7063 41.4798C51.7997 41.4798 51.8753 41.4039 51.8753 41.3102C51.8753 41.2164 51.7997 41.1405 51.7063 41.1405C51.613 41.1405 51.5373 41.2164 51.5373 41.3102C51.5373 41.4039 51.613 41.4798 51.7063 41.4798Z" fill="#8CD7F8"/>
<path d="M75.0898 37.1143C75.1831 37.1143 75.2588 37.0384 75.2588 36.9447C75.2588 36.8509 75.1831 36.775 75.0898 36.775C74.9964 36.775 74.9208 36.8509 74.9208 36.9447C74.9208 37.0384 74.9964 37.1143 75.0898 37.1143Z" fill="#8CD7F8"/>
<path d="M81.6654 16.197C81.7587 16.197 81.8344 16.1211 81.8344 16.0273C81.8344 15.9336 81.7587 15.8577 81.6654 15.8577C81.5721 15.8577 81.4964 15.9336 81.4964 16.0273C81.4964 16.1211 81.5721 16.197 81.6654 16.197Z" fill="#8CD7F8"/>
<path d="M104.772 12.9191C104.866 12.9191 104.941 12.8431 104.941 12.7494C104.941 12.6557 104.866 12.5797 104.772 12.5797C104.679 12.5797 104.603 12.6557 104.603 12.7494C104.603 12.8431 104.679 12.9191 104.772 12.9191Z" fill="#8CD7F8"/>
<path d="M99.9558 31.9622C100.049 31.9622 100.125 31.8862 100.125 31.7925C100.125 31.6988 100.049 31.6228 99.9558 31.6228C99.8625 31.6228 99.7868 31.6988 99.7868 31.7925C99.7868 31.8862 99.8625 31.9622 99.9558 31.9622Z" fill="#8CD7F8"/>
<path d="M106.178 59.0498C106.271 59.0498 106.347 58.9738 106.347 58.8801C106.347 58.7864 106.271 58.7104 106.178 58.7104C106.085 58.7104 106.009 58.7864 106.009 58.8801C106.009 58.9738 106.085 59.0498 106.178 59.0498Z" fill="#8CD7F8"/>
<path d="M88.6251 68.606C88.7948 68.606 88.9324 68.4679 88.9324 68.2975C88.9324 68.1271 88.7948 67.989 88.6251 67.989C88.4554 67.989 88.3179 68.1271 88.3179 68.2975C88.3179 68.4679 88.4554 68.606 88.6251 68.606Z" fill="#8CD7F8"/>
<path d="M62.9295 72.0537C63.0228 72.0537 63.0985 71.9777 63.0985 71.884C63.0985 71.7903 63.0228 71.7143 62.9295 71.7143C62.8361 71.7143 62.7605 71.7903 62.7605 71.884C62.7605 71.9777 62.8361 72.0537 62.9295 72.0537Z" fill="#8CD7F8"/>
<path d="M61.9923 89.7779C62.0856 89.7779 62.1613 89.7019 62.1613 89.6082C62.1613 89.5145 62.0856 89.4385 61.9923 89.4385C61.8989 89.4385 61.8233 89.5145 61.8233 89.6082C61.8233 89.7019 61.8989 89.7779 61.9923 89.7779Z" fill="#8CD7F8"/>
<path d="M81.4119 95.871C81.5053 95.871 81.5809 95.7951 81.5809 95.7014C81.5809 95.6076 81.5053 95.5317 81.4119 95.5317C81.3186 95.5317 81.2429 95.6076 81.2429 95.7014C81.2429 95.7951 81.3186 95.871 81.4119 95.871Z" fill="#8CD7F8"/>
<path d="M72.9004 81.5097C73.0871 81.5097 73.2384 81.3577 73.2384 81.1703C73.2384 80.9829 73.0871 80.8309 72.9004 80.8309C72.7138 80.8309 72.5624 80.9829 72.5624 81.1703C72.5624 81.3577 72.7138 81.5097 72.9004 81.5097Z" fill="white"/>
<path d="M126.251 80.6304C126.437 80.6304 126.589 80.4785 126.589 80.291C126.589 80.1036 126.437 79.9517 126.251 79.9517C126.064 79.9517 125.913 80.1036 125.913 80.291C125.913 80.4785 126.064 80.6304 126.251 80.6304Z" fill="white"/>
<path d="M119.614 76.6428C119.8 76.6428 119.952 76.4909 119.952 76.3035C119.952 76.1161 119.8 75.9641 119.614 75.9641C119.427 75.9641 119.276 76.1161 119.276 76.3035C119.276 76.4909 119.427 76.6428 119.614 76.6428Z" fill="white"/>
<path d="M124.722 88.6981C124.909 88.6981 125.06 88.5461 125.06 88.3587C125.06 88.1713 124.909 88.0193 124.722 88.0193C124.535 88.0193 124.384 88.1713 124.384 88.3587C124.384 88.5461 124.535 88.6981 124.722 88.6981Z" fill="white"/>
<path d="M47.4122 87.8496C47.5989 87.8496 47.7502 87.6977 47.7502 87.5103C47.7502 87.3228 47.5989 87.1709 47.4122 87.1709C47.2255 87.1709 47.0742 87.3228 47.0742 87.5103C47.0742 87.6977 47.2255 87.8496 47.4122 87.8496Z" fill="white"/>
<path d="M82.2416 77.9772C82.4282 77.9772 82.5796 77.8252 82.5796 77.6378C82.5796 77.4504 82.4282 77.2984 82.2416 77.2984C82.0549 77.2984 81.9036 77.4504 81.9036 77.6378C81.9036 77.8252 82.0549 77.9772 82.2416 77.9772Z" fill="white"/>
<path d="M90.2076 52.8563C90.3943 52.8563 90.5456 52.7044 90.5456 52.517C90.5456 52.3295 90.3943 52.1776 90.2076 52.1776C90.021 52.1776 89.8696 52.3295 89.8696 52.517C89.8696 52.7044 90.021 52.8563 90.2076 52.8563Z" fill="white"/>
<path d="M24.9659 56.7822C25.1526 56.7822 25.3039 56.6302 25.3039 56.4428C25.3039 56.2554 25.1526 56.1035 24.9659 56.1035C24.7793 56.1035 24.6279 56.2554 24.6279 56.4428C24.6279 56.6302 24.7793 56.7822 24.9659 56.7822Z" fill="white"/>
<path d="M127.541 42.7525C127.728 42.7525 127.879 42.6005 127.879 42.4131C127.879 42.2257 127.728 42.0737 127.541 42.0737C127.355 42.0737 127.203 42.2257 127.203 42.4131C127.203 42.6005 127.355 42.7525 127.541 42.7525Z" fill="white"/>
<path d="M112.669 59.6668C112.856 59.6668 113.007 59.5149 113.007 59.3274C113.007 59.14 112.856 58.9881 112.669 58.9881C112.483 58.9881 112.331 59.14 112.331 59.3274C112.331 59.5149 112.483 59.6668 112.669 59.6668Z" fill="white"/>
<path d="M130.867 68.3284C131.054 68.3284 131.205 68.1764 131.205 67.989C131.205 67.8016 131.054 67.6496 130.867 67.6496C130.681 67.6496 130.529 67.8016 130.529 67.989C130.529 68.1764 130.681 68.3284 130.867 68.3284Z" fill="white"/>
<path d="M83.0251 50.2725C83.2118 50.2725 83.3631 50.1206 83.3631 49.9331C83.3631 49.7457 83.2118 49.5938 83.0251 49.5938C82.8385 49.5938 82.6871 49.7457 82.6871 49.9331C82.6871 50.1206 82.8385 50.2725 83.0251 50.2725Z" fill="white"/>
<path d="M102.652 50.4422C102.839 50.4422 102.99 50.2903 102.99 50.1028C102.99 49.9154 102.839 49.7635 102.652 49.7635C102.465 49.7635 102.314 49.9154 102.314 50.1028C102.314 50.2903 102.465 50.4422 102.652 50.4422Z" fill="white"/>
<path d="M133.717 25.144C133.904 25.144 134.055 24.992 134.055 24.8046C134.055 24.6172 133.904 24.4652 133.717 24.4652C133.531 24.4652 133.379 24.6172 133.379 24.8046C133.379 24.992 133.531 25.144 133.717 25.144Z" fill="white"/>
<path d="M123.554 34.6077C123.741 34.6077 123.892 34.4557 123.892 34.2683C123.892 34.0809 123.741 33.9289 123.554 33.9289C123.368 33.9289 123.216 34.0809 123.216 34.2683C123.216 34.4557 123.368 34.6077 123.554 34.6077Z" fill="white"/>
<path d="M115.865 11.5693C116.052 11.5693 116.203 11.4174 116.203 11.2299C116.203 11.0425 116.052 10.8906 115.865 10.8906C115.678 10.8906 115.527 11.0425 115.527 11.2299C115.527 11.4174 115.678 11.5693 115.865 11.5693Z" fill="white"/>
<path d="M52.0443 19.7681C52.231 19.7681 52.3823 19.6161 52.3823 19.4287C52.3823 19.2413 52.231 19.0894 52.0443 19.0894C51.8577 19.0894 51.7063 19.2413 51.7063 19.4287C51.7063 19.6161 51.8577 19.7681 52.0443 19.7681Z" fill="white"/>
<path d="M15.6248 22.429C15.8115 22.429 15.9628 22.2771 15.9628 22.0897C15.9628 21.9022 15.8115 21.7503 15.6248 21.7503C15.4382 21.7503 15.2868 21.9022 15.2868 22.0897C15.2868 22.2771 15.4382 22.429 15.6248 22.429Z" fill="white"/>
<path d="M81.8421 81.849C82.0288 81.849 82.1801 81.6971 82.1801 81.5097C82.1801 81.3222 82.0288 81.1703 81.8421 81.1703C81.6554 81.1703 81.5041 81.3222 81.5041 81.5097C81.5041 81.6971 81.6554 81.849 81.8421 81.849Z" fill="#F9A859"/>
<path d="M63.2751 100.051C63.3685 100.051 63.4441 99.9754 63.4441 99.8817C63.4441 99.788 63.3685 99.7121 63.2751 99.7121C63.1818 99.7121 63.1061 99.788 63.1061 99.8817C63.1061 99.9754 63.1818 100.051 63.2751 100.051Z" fill="#8CD7F8"/>
<path d="M117.555 82.7514C117.648 82.7514 117.724 82.6755 117.724 82.5818C117.724 82.488 117.648 82.4121 117.555 82.4121C117.462 82.4121 117.386 82.488 117.386 82.5818C117.386 82.6755 117.462 82.7514 117.555 82.7514Z" fill="#8CD7F8"/>
<path d="M106.178 88.3587C106.271 88.3587 106.347 88.2827 106.347 88.189C106.347 88.0953 106.271 88.0193 106.178 88.0193C106.085 88.0193 106.009 88.0953 106.009 88.189C106.009 88.2827 106.085 88.3587 106.178 88.3587Z" fill="#8CD7F8"/>
<path d="M137.097 33.335C137.191 33.335 137.266 33.2591 137.266 33.1654C137.266 33.0716 137.191 32.9957 137.097 32.9957C137.004 32.9957 136.928 33.0716 136.928 33.1654C136.928 33.2591 137.004 33.335 137.097 33.335Z" fill="#8CD7F8"/>
<path d="M130.399 37.284C130.492 37.284 130.568 37.2081 130.568 37.1144C130.568 37.0206 130.492 36.9447 130.399 36.9447C130.306 36.9447 130.23 37.0206 130.23 37.1144C130.23 37.2081 130.306 37.284 130.399 37.284Z" fill="#8CD7F8"/>
<path d="M123.554 63.8395C123.648 63.8395 123.723 63.7635 123.723 63.6698C123.723 63.5761 123.648 63.5001 123.554 63.5001C123.461 63.5001 123.385 63.5761 123.385 63.6698C123.385 63.7635 123.461 63.8395 123.554 63.8395Z" fill="#8CD7F8"/>
<path d="M152 11.8161C152.094 11.8161 152.169 11.7402 152.169 11.6464C152.169 11.5527 152.094 11.4768 152 11.4768C151.907 11.4768 151.831 11.5527 151.831 11.6464C151.831 11.7402 151.907 11.8161 152 11.8161Z" fill="#8CD7F8"/>
<path d="M143.166 19.2513C143.259 19.2513 143.335 19.1754 143.335 19.0817C143.335 18.9879 143.259 18.912 143.166 18.912C143.073 18.912 142.997 18.9879 142.997 19.0817C142.997 19.1754 143.073 19.2513 143.166 19.2513Z" fill="#8CD7F8"/>
<path d="M133.956 11.0525C134.049 11.0525 134.125 10.9766 134.125 10.8829C134.125 10.7892 134.049 10.7132 133.956 10.7132C133.862 10.7132 133.787 10.7892 133.787 10.8829C133.787 10.9766 133.862 11.0525 133.956 11.0525Z" fill="#8CD7F8"/>
<path d="M122.44 16.5595C122.534 16.5595 122.609 16.4836 122.609 16.3899C122.609 16.2961 122.534 16.2202 122.44 16.2202C122.347 16.2202 122.271 16.2961 122.271 16.3899C122.271 16.4836 122.347 16.5595 122.44 16.5595Z" fill="#8CD7F8"/>
<path d="M100.878 22.3056C100.971 22.3056 101.047 22.2297 101.047 22.1359C101.047 22.0422 100.971 21.9663 100.878 21.9663C100.784 21.9663 100.709 22.0422 100.709 22.1359C100.709 22.2297 100.784 22.3056 100.878 22.3056Z" fill="#8CD7F8"/>
<path d="M92.2587 13.4898C92.352 13.4898 92.4277 13.4138 92.4277 13.3201C92.4277 13.2264 92.352 13.1505 92.2587 13.1505C92.1653 13.1505 92.0897 13.2264 92.0897 13.3201C92.0897 13.4138 92.1653 13.4898 92.2587 13.4898Z" fill="#8CD7F8"/>
<path d="M74.9131 12.7494C75.0064 12.7494 75.0821 12.6734 75.0821 12.5797C75.0821 12.486 75.0064 12.41 74.9131 12.41C74.8197 12.41 74.7441 12.486 74.7441 12.5797C74.7441 12.6734 74.8197 12.7494 74.9131 12.7494Z" fill="#8CD7F8"/>
<path d="M75.2588 25.9075C75.3521 25.9075 75.4278 25.8316 75.4278 25.7379C75.4278 25.6441 75.3521 25.5682 75.2588 25.5682C75.1654 25.5682 75.0898 25.6441 75.0898 25.7379C75.0898 25.8316 75.1654 25.9075 75.2588 25.9075Z" fill="#8CD7F8"/>
<path d="M65.8332 36.7673C65.9265 36.7673 66.0022 36.6913 66.0022 36.5976C66.0022 36.5039 65.9265 36.4279 65.8332 36.4279C65.7398 36.4279 65.6642 36.5039 65.6642 36.5976C65.6642 36.6913 65.7398 36.7673 65.8332 36.7673Z" fill="#8CD7F8"/>
<path d="M73.0771 50.2725C73.1705 50.2725 73.2461 50.1965 73.2461 50.1028C73.2461 50.0091 73.1705 49.9332 73.0771 49.9332C72.9838 49.9332 72.9081 50.0091 72.9081 50.1028C72.9081 50.1965 72.9838 50.2725 73.0771 50.2725Z" fill="#8CD7F8"/>
<path d="M53.8419 58.024C53.9352 58.024 54.0108 57.948 54.0108 57.8543C54.0108 57.7606 53.9352 57.6846 53.8419 57.6846C53.7485 57.6846 53.6729 57.7606 53.6729 57.8543C53.6729 57.948 53.7485 58.024 53.8419 58.024Z" fill="#8CD7F8"/>
<path d="M46.3137 70.5342C46.407 70.5342 46.4827 70.4583 46.4827 70.3646C46.4827 70.2708 46.407 70.1949 46.3137 70.1949C46.2203 70.1949 46.1447 70.2708 46.1447 70.3646C46.1447 70.4583 46.2203 70.5342 46.3137 70.5342Z" fill="#8CD7F8"/>
<path d="M38.1556 84.2323C38.2489 84.2323 38.3246 84.1563 38.3246 84.0626C38.3246 83.9689 38.2489 83.8929 38.1556 83.8929C38.0623 83.8929 37.9866 83.9689 37.9866 84.0626C37.9866 84.1563 38.0623 84.2323 38.1556 84.2323Z" fill="#8CD7F8"/>
<path d="M80.7436 68.6214C80.8369 68.6214 80.9126 68.5455 80.9126 68.4518C80.9126 68.358 80.8369 68.2821 80.7436 68.2821C80.6502 68.2821 80.5746 68.358 80.5746 68.4518C80.5746 68.5455 80.6502 68.6214 80.7436 68.6214Z" fill="#8CD7F8"/>
<path d="M80.9203 53.7896C81.0136 53.7896 81.0893 53.7136 81.0893 53.6199C81.0893 53.5262 81.0136 53.4502 80.9203 53.4502C80.8269 53.4502 80.7513 53.5262 80.7513 53.6199C80.7513 53.7136 80.8269 53.7896 80.9203 53.7896Z" fill="#8CD7F8"/>
<path d="M81.0893 26.8717C81.1826 26.8717 81.2583 26.7957 81.2583 26.702C81.2583 26.6083 81.1826 26.5323 81.0893 26.5323C80.9959 26.5323 80.9203 26.6083 80.9203 26.702C80.9203 26.7957 80.9959 26.8717 81.0893 26.8717Z" fill="#8CD7F8"/>
<path d="M80.7436 35.9111C80.8369 35.9111 80.9126 35.8352 80.9126 35.7415C80.9126 35.6477 80.8369 35.5718 80.7436 35.5718C80.6502 35.5718 80.5746 35.6477 80.5746 35.7415C80.5746 35.8352 80.6502 35.9111 80.7436 35.9111Z" fill="#8CD7F8"/>
<path d="M20.0649 12.1632C20.1582 12.1632 20.2339 12.0872 20.2339 11.9935C20.2339 11.8998 20.1582 11.8238 20.0649 11.8238C19.9716 11.8238 19.8959 11.8998 19.8959 11.9935C19.8959 12.0872 19.9716 12.1632 20.0649 12.1632Z" fill="#8CD7F8"/>
<path d="M25.3577 27.8126C25.451 27.8126 25.5267 27.7366 25.5267 27.6429C25.5267 27.5492 25.451 27.4733 25.3577 27.4733C25.2644 27.4733 25.1887 27.5492 25.1887 27.6429C25.1887 27.7366 25.2644 27.8126 25.3577 27.8126Z" fill="#8CD7F8"/>
<path d="M34.983 11.2222C35.0763 11.2222 35.152 11.1463 35.152 11.0525C35.152 10.9588 35.0763 10.8829 34.983 10.8829C34.8897 10.8829 34.814 10.9588 34.814 11.0525C34.814 11.1463 34.8897 11.2222 34.983 11.2222Z" fill="#8CD7F8"/>
<path d="M38.3246 22.9072C38.4179 22.9072 38.4936 22.8313 38.4936 22.7376C38.4936 22.6438 38.4179 22.5679 38.3246 22.5679C38.2313 22.5679 38.1556 22.6438 38.1556 22.7376C38.1556 22.8313 38.2313 22.9072 38.3246 22.9072Z" fill="#8CD7F8"/>
<path d="M61.5544 15.2329C61.6477 15.2329 61.7234 15.157 61.7234 15.0632C61.7234 14.9695 61.6477 14.8936 61.5544 14.8936C61.4611 14.8936 61.3854 14.9695 61.3854 15.0632C61.3854 15.157 61.4611 15.2329 61.5544 15.2329Z" fill="#8CD7F8"/>
<path d="M45.5532 36.5976C45.6465 36.5976 45.7222 36.5216 45.7222 36.4279C45.7222 36.3342 45.6465 36.2582 45.5532 36.2582C45.4599 36.2582 45.3842 36.3342 45.3842 36.4279C45.3842 36.5216 45.4599 36.5976 45.5532 36.5976Z" fill="#8CD7F8"/>
<path d="M100.878 42.4131C100.971 42.4131 101.047 42.3371 101.047 42.2434C101.047 42.1497 100.971 42.0737 100.878 42.0737C100.784 42.0737 100.709 42.1497 100.709 42.2434C100.709 42.3371 100.784 42.4131 100.878 42.4131Z" fill="#8CD7F8"/>
<path d="M118.953 56.6819C119.466 56.6819 119.882 56.2641 119.882 55.7487C119.882 55.2332 119.466 54.8154 118.953 54.8154C118.44 54.8154 118.023 55.2332 118.023 55.7487C118.023 56.2641 118.44 56.6819 118.953 56.6819Z" fill="#F9A859"/>
<path d="M110.334 104.679L114.259 105.204L115.588 100.9L115.166 105.427L118.899 106.438L114.843 106.083L113.483 110.711L114.159 105.89L110.334 104.679ZM90.1 79.7048L94.0254 80.2293L95.3544 75.9255L94.9396 80.453L98.6653 81.4634L94.6093 81.1086L93.2496 85.7363L93.9333 80.9081L90.1 79.7048Z" fill="#EF443D"/>
<path d="M68.1838 18.3798L70.6266 18.7114L71.4563 16.0273L71.1951 18.8503L73.5227 19.4827L70.9954 19.259L70.1427 22.1359L70.5729 19.1356L68.1838 18.3798ZM20.449 41.2022L22.8918 41.5261L23.7215 38.8497L23.4603 41.6649L25.7802 42.2974L23.2529 42.0737L22.4079 44.9583L22.8304 41.9503L20.449 41.2022Z" fill="#FFF200"/>
<path d="M39.9455 99.0102L43.7326 97.8532L43.1718 93.3875L44.6544 97.6836L48.4723 97.0511L44.6314 98.4086L45.292 103.191L43.9246 98.5166L39.9455 99.0102Z" fill="#A44F24"/>
<path d="M126.105 54.854L128.909 55.309L129.953 52.2547L129.562 55.4941L132.212 56.2886L129.316 55.9492L128.24 59.2426L128.824 55.8026L126.105 54.854ZM135.838 45.29L138.641 45.7451L139.679 42.683L139.287 45.9225L141.945 46.7246L139.041 46.3852L137.973 49.6786L138.557 46.231L135.838 45.29ZM82.2108 111.042L85.0224 111.497L86.0594 108.435L85.6676 111.675L88.3255 112.477L85.4218 112.137L84.354 115.431L84.9379 111.983L82.2108 111.042ZM117.109 22.3442L119.913 22.7915L120.958 19.7372L120.558 22.9767L123.216 23.7788L120.313 23.4394L119.245 26.7251L119.829 23.2852L117.109 22.3442Z" fill="#FFF200"/>
<path d="M59.8568 54.1598L62.5915 53.3268L62.1843 50.1028L63.2521 53.2034L66.0022 52.7483L63.2368 53.7279L63.713 57.1755L62.7297 53.805L59.8568 54.1598Z" fill="#5F6CB2"/>
<path d="M116.157 89.3382L118.999 89.2148L119.406 85.9985L119.675 89.2611L122.44 89.5079L119.521 89.7624L119.137 93.2101L119.014 89.7084L116.157 89.3382ZM48.3954 110.371L51.2377 110.248L51.6372 107.032L51.906 110.294L54.6792 110.541L51.7601 110.795L51.376 114.243L51.2531 110.741L48.3954 110.371Z" fill="white"/>
<path d="M117.002 46.6706L119.844 46.5472L120.251 43.3309L120.52 46.5935L123.286 46.8403L120.366 47.0948L119.982 50.5425L119.859 47.0408L117.002 46.6706ZM92.1434 56.7668L94.9857 56.6433L95.3852 53.4271L95.654 56.6896L98.4272 56.9364L95.5081 57.191L95.124 60.6386L95.0011 57.137L92.1434 56.7668ZM143.089 27.2727L145.939 27.1493L146.339 23.933L146.608 27.1956L149.381 27.4347L146.462 27.6969L146.077 31.1446L145.955 27.6429L143.089 27.2727Z" fill="#5F6CB2"/>
<path d="M123.992 70.8967L125.145 70.1023L124.484 68.66L125.436 69.9481L126.65 69.3233L125.506 70.1949L126.235 71.7297L125.283 70.3028L123.992 70.8967ZM111.094 78.5402L112.247 77.7458L111.586 76.3035L112.539 77.5838L113.752 76.9668L112.608 77.8383L113.338 79.3732L112.385 77.9463L111.094 78.5402Z" fill="#FFF200"/>
<path d="M103.397 73.0486L104.503 71.8377L103.367 70.3646L104.795 71.5832L106.017 70.5497L104.934 71.8454L106.178 73.4111L104.711 72.0305L103.397 73.0486Z" fill="#FEFACE"/>
<path d="M114.321 16.7292C114.414 16.7292 114.49 16.6533 114.49 16.5595C114.49 16.4658 114.414 16.3899 114.321 16.3899C114.228 16.3899 114.152 16.4658 114.152 16.5595C114.152 16.6533 114.228 16.7292 114.321 16.7292Z" fill="#8CD7F8"/>
<path d="M111.486 25.5219C111.58 25.5219 111.655 25.4459 111.655 25.3522C111.655 25.2585 111.58 25.1825 111.486 25.1825C111.393 25.1825 111.317 25.2585 111.317 25.3522C111.317 25.4459 111.393 25.5219 111.486 25.5219Z" fill="#8CD7F8"/>
<path d="M74.7441 59.2194C74.8374 59.2194 74.9131 59.1435 74.9131 59.0498C74.9131 58.9561 74.8374 58.8801 74.7441 58.8801C74.6507 58.8801 74.5751 58.9561 74.5751 59.0498C74.5751 59.1435 74.6507 59.2194 74.7441 59.2194Z" fill="#8CD7F8"/>
<path d="M62.7758 64.603C62.8691 64.603 62.9448 64.5271 62.9448 64.4334C62.9448 64.3396 62.8691 64.2637 62.7758 64.2637C62.6825 64.2637 62.6068 64.3396 62.6068 64.4334C62.6068 64.5271 62.6825 64.603 62.7758 64.603Z" fill="#8CD7F8"/>
<path d="M93.457 36.5976C93.5504 36.5976 93.626 36.5216 93.626 36.4279C93.626 36.3342 93.5504 36.2582 93.457 36.2582C93.3637 36.2582 93.288 36.3342 93.288 36.4279C93.288 36.5216 93.3637 36.5976 93.457 36.5976Z" fill="#8CD7F8"/>
<path d="M58.3741 80.291C58.4675 80.291 58.5431 80.2151 58.5431 80.1213C58.5431 80.0276 58.4675 79.9517 58.3741 79.9517C58.2808 79.9517 58.2051 80.0276 58.2051 80.1213C58.2051 80.2151 58.2808 80.291 58.3741 80.291Z" fill="#8CD7F8"/>
<path d="M109.251 132.075C111.271 130.278 113.53 128.389 116.226 128.296C120.328 128.149 123.723 132.222 127.818 131.952C128.816 131.882 129.807 131.559 130.798 131.705C132.703 131.99 133.879 133.857 135.254 135.214C136.053 136.001 136.99 136.657 138.004 137.135C137.19 138.215 136.137 139.241 134.801 139.472C133.472 139.703 132.158 139.102 130.906 138.6C129.83 138.168 128.724 137.806 127.595 137.505C127.08 137.366 126.543 137.251 126.02 137.343C125.552 137.428 125.129 137.675 124.745 137.96C123.647 138.77 122.794 139.881 121.772 140.791C120.751 141.701 119.429 142.434 118.077 142.241C117.009 142.087 116.065 141.377 114.981 141.315C113.868 141.246 112.831 141.878 111.724 142.048C109.827 142.333 107.999 141.246 106.508 140.027C106.132 139.719 105.74 139.356 105.648 138.878C105.564 138.392 105.802 137.922 106.04 137.49C107.062 135.662 108.183 133.896 109.389 132.183" fill="#F48990"/>
<path d="M110.411 135.13C111.955 133.68 113.653 132.338 115.65 131.651C117.647 130.972 119.998 131.049 121.711 132.291C121.918 132.445 122.126 132.615 122.371 132.7C123.093 132.947 123.9 132.361 124.63 132.584C125.244 132.777 125.582 133.471 126.189 133.695C126.934 133.98 127.71 133.456 128.478 133.24C129.293 133.016 130.207 133.163 130.914 133.633C131.505 134.034 131.935 134.628 132.412 135.168C133.379 136.263 134.77 137.181 136.206 136.95C135.269 137.752 133.871 137.752 132.696 137.374C131.52 136.996 130.476 136.31 129.339 135.839C128.202 135.369 126.865 135.137 125.767 135.693C124.899 136.132 124.192 137.042 123.224 137.019C122.663 137.012 122.01 136.695 121.596 137.081C121.457 137.204 121.388 137.382 121.311 137.551C121.012 138.246 120.658 138.924 120.128 139.464C119.598 140.004 118.876 140.382 118.123 140.351C117.424 140.328 116.787 139.966 116.141 139.696C115.143 139.287 114.052 139.086 112.977 139.125C112.308 139.148 111.594 139.256 110.995 138.955C110.042 138.477 109.819 137.22 109.804 136.148C109.796 135.739 109.858 135.238 110.234 135.091" fill="#AA666D"/>
<path d="M108.544 127.347C109.235 124.733 110.073 121.902 112.262 120.321C115.596 117.922 120.674 119.418 123.931 116.919C124.73 116.31 125.375 115.477 126.281 115.053C128.025 114.228 130.03 115.13 131.928 115.5C133.026 115.716 134.171 115.739 135.277 115.57C135.192 116.927 134.885 118.362 133.902 119.295C132.919 120.228 131.497 120.452 130.176 120.737C129.039 120.976 127.918 121.293 126.819 121.671C126.32 121.84 125.805 122.041 125.421 122.411C125.075 122.743 124.86 123.182 124.699 123.63C124.23 124.918 124.138 126.314 123.785 127.64C123.431 128.967 122.74 130.317 121.511 130.911C120.535 131.381 119.36 131.312 118.423 131.859C117.455 132.422 116.94 133.525 116.111 134.281C114.69 135.577 112.569 135.677 110.657 135.5C110.173 135.454 109.643 135.376 109.305 135.022C108.967 134.667 108.905 134.135 108.867 133.649C108.713 131.559 108.667 129.461 108.728 127.37" fill="#FDC27A"/>
<path d="M129.738 116.734C128.985 116.634 128.233 116.464 127.464 116.48C126.696 116.495 125.905 116.727 125.39 117.29C125.014 117.714 124.822 118.277 124.43 118.686C123.416 119.727 121.565 119.256 120.389 120.105C120.059 120.344 119.806 120.676 119.452 120.884C118.361 121.547 116.91 120.791 115.688 121.154C114.206 121.593 113.683 123.383 112.646 124.54C112.531 124.671 112.4 124.802 112.231 124.856C112.001 124.933 111.755 124.856 111.509 124.856C110.818 124.864 110.303 125.488 109.919 126.067C109.481 126.723 109.074 127.401 108.69 128.095C108.659 129.939 108.713 131.79 108.844 133.626C108.851 133.741 108.859 133.865 108.874 133.988C109.12 133.95 109.358 133.911 109.604 133.88C110.403 133.757 111.194 133.641 112.001 133.633C112.977 133.626 114.083 133.749 114.789 133.078C115.742 132.176 115.373 130.386 116.387 129.569C117.017 129.067 117.908 129.144 118.707 129.137C119.514 129.129 120.466 128.867 120.704 128.095C120.966 127.247 120.151 126.321 120.459 125.488C120.85 124.416 122.717 124.44 122.971 123.321C123.07 122.889 122.855 122.434 122.909 121.995C122.994 121.231 123.793 120.768 124.53 120.568C125.267 120.359 126.089 120.259 126.635 119.727C126.888 119.48 127.057 119.164 127.288 118.894C128.571 117.413 131.098 117.953 132.657 116.773C131.705 116.873 130.714 116.865 129.738 116.734Z" fill="#C69560"/>
<path d="M59.7031 131.296C57.6828 129.499 55.4243 127.61 52.728 127.517C48.6259 127.37 45.2305 131.443 41.1361 131.173C40.1375 131.103 39.1465 130.78 38.1556 130.926C36.2505 131.211 35.0752 133.078 33.7001 134.435C32.9012 135.222 31.964 135.878 30.95 136.356C31.7643 137.436 32.8167 138.462 34.1534 138.693C35.4823 138.924 36.7959 138.323 38.048 137.821C39.1235 137.389 40.2297 137.027 41.3589 136.726C41.8736 136.587 42.4113 136.472 42.9337 136.564C43.4023 136.649 43.8248 136.896 44.2089 137.181C45.3074 137.991 46.16 139.102 47.1817 140.012C48.2034 140.922 49.5247 141.655 50.8767 141.462C51.9445 141.308 52.8893 140.598 53.9725 140.536C55.0863 140.467 56.1234 141.099 57.2295 141.269C59.127 141.554 60.9552 140.467 62.4455 139.248C62.8219 138.94 63.2137 138.577 63.3059 138.099C63.3904 137.613 63.1522 137.143 62.9141 136.711C61.8924 134.883 60.7709 133.117 59.5648 131.404" fill="#F48990"/>
<path d="M58.5508 134.343C57.0068 132.893 55.3091 131.551 53.3118 130.864C51.3146 130.186 48.9639 130.263 47.2509 131.505C47.0435 131.659 46.8361 131.828 46.5902 131.913C45.8681 132.16 45.0616 131.574 44.3318 131.798C43.7172 131.99 43.3792 132.685 42.7724 132.908C42.0272 133.194 41.2514 132.669 40.4832 132.453C39.6689 132.23 38.7548 132.376 38.0481 132.847C37.4566 133.248 37.0264 133.842 36.5501 134.381C35.5822 135.477 34.1918 136.394 32.7553 136.163C33.6925 136.965 35.0906 136.965 36.2659 136.587C37.4412 136.209 38.4859 135.523 39.6228 135.052C40.7597 134.582 42.0964 134.351 43.1949 134.906C44.0629 135.346 44.7696 136.256 45.7376 136.233C46.2983 136.225 46.9513 135.909 47.3661 136.294C47.5044 136.418 47.5735 136.595 47.6503 136.765C47.9499 137.459 48.3033 138.138 48.8333 138.677C49.3634 139.217 50.0855 139.595 50.8383 139.564C51.5373 139.541 52.1749 139.179 52.8202 138.909C53.8188 138.5 54.9096 138.3 55.9851 138.338C56.6534 138.361 57.3678 138.469 57.967 138.168C58.9196 137.69 59.1423 136.433 59.1577 135.361C59.1654 134.952 59.1039 134.451 58.7275 134.304" fill="#AA666D"/>
<path d="M60.4175 126.561C59.7261 123.946 58.8888 121.115 56.6995 119.534C53.3656 117.135 48.2879 118.632 45.0308 116.133C44.2319 115.523 43.5866 114.69 42.6802 114.266C40.9364 113.441 38.9315 114.343 37.0341 114.714C35.9356 114.93 34.791 114.953 33.6848 114.783C33.7693 116.14 34.0766 117.575 35.0598 118.508C36.0431 119.442 37.4642 119.665 38.7855 119.951C39.9224 120.19 41.044 120.506 42.1425 120.884C42.6418 121.054 43.1565 121.254 43.5406 121.624C43.8862 121.956 44.1013 122.396 44.2626 122.843C44.7312 124.131 44.8234 125.527 45.1768 126.854C45.5301 128.18 46.2215 129.53 47.4506 130.124C48.4262 130.594 49.6015 130.525 50.5387 131.073C51.5066 131.636 52.0213 132.739 52.8509 133.494C54.2721 134.79 56.3922 134.89 58.305 134.713C58.789 134.667 59.319 134.59 59.657 134.235C59.995 133.88 60.0565 133.348 60.0949 132.862C60.2485 130.772 60.2946 128.674 60.2331 126.584" fill="#FDC27A"/>
<path d="M39.2234 115.948C39.9762 115.847 40.729 115.678 41.4972 115.693C42.2654 115.709 43.0566 115.94 43.5713 116.503C43.9477 116.927 44.1397 117.49 44.5315 117.899C45.5455 118.94 47.3968 118.47 48.5722 119.318C48.9025 119.557 49.156 119.889 49.5093 120.097C50.6002 120.76 52.052 120.005 53.2734 120.367C54.756 120.807 55.2784 122.596 56.3154 123.753C56.4307 123.884 56.5612 124.015 56.7302 124.069C56.9607 124.146 57.2065 124.069 57.4523 124.069C58.1437 124.077 58.6584 124.702 59.0425 125.28C59.4803 125.936 59.8875 126.615 60.2716 127.309C60.3023 129.152 60.2485 131.003 60.1179 132.839C60.1102 132.955 60.1026 133.078 60.0872 133.201C59.8414 133.163 59.6032 133.124 59.3574 133.093C58.5585 132.97 57.7673 132.854 56.9607 132.847C55.9851 132.839 54.8789 132.962 54.1722 132.291C53.2197 131.389 53.5884 129.599 52.5744 128.782C51.9445 128.281 51.0534 128.358 50.2545 128.35C49.4479 128.342 48.4953 128.08 48.2572 127.309C47.996 126.46 48.8103 125.535 48.503 124.702C48.1112 123.63 46.2446 123.653 45.9911 122.534C45.8912 122.103 46.1063 121.647 46.0525 121.208C45.968 120.444 45.1691 119.981 44.4317 119.781C43.6942 119.573 42.8722 119.472 42.3268 118.94C42.0733 118.693 41.9043 118.377 41.6739 118.107C40.391 116.626 37.8637 117.166 36.3043 115.986C37.2492 116.086 38.2401 116.079 39.2234 115.948Z" fill="#C69560"/>
<path d="M55.2937 125.172H109.335V91.8526C109.335 90.8731 108.544 90.071 107.561 90.071H57.0682C56.0926 90.071 55.2937 90.8654 55.2937 91.8526V125.172Z" fill="#121212"/>
<path d="M56.5536 92.1303H107.853V123.329H56.5536V92.1303Z" fill="#07B5D9"/>
<path d="M55.2937 125.172L51.2992 141.801H114.705L109.335 125.172H55.2937Z" fill="#166CA6"/>
<path d="M114.467 143.182L51.5527 143.089L51.3145 141.793L114.69 141.801L114.467 143.182ZM89.8773 140.729H74.9515C74.6212 140.729 74.383 140.413 74.4599 140.097L75.3125 136.757C75.3586 136.572 75.52 136.448 75.712 136.448H88.8863C89.0937 136.448 89.2704 136.587 89.3242 136.788L90.2767 140.205C90.3535 140.459 90.1538 140.729 89.8773 140.729Z" fill="#074D84"/>
<path d="M74.9515 140.729H89.8773C90.0232 140.729 90.1461 140.652 90.2229 140.544L89.1782 136.996C89.1244 136.826 88.9708 136.711 88.7941 136.711H75.8887C75.735 136.711 75.6044 136.811 75.5583 136.958L74.5213 140.482C74.6058 140.629 74.7671 140.729 74.9515 140.729Z" fill="#166CA6"/>
<path d="M58.2359 128.535V128.705H62.2227L62.868 126.329L62.7681 126.106L58.2359 128.535ZM63.859 128.535V128.705H67.8458L68.4834 126.329L68.3912 126.106L63.859 128.535ZM57.2603 132.106V132.299H61.3009L61.9155 129.947L61.8079 129.754L57.2603 132.106ZM60.8707 133.325V133.641L60.2639 135.955H56.254V135.785L60.8707 133.325ZM62.8911 132.106V132.299H66.9317L67.5462 129.947L67.4387 129.754L62.8911 132.106ZM66.5015 133.325V133.641L65.8946 135.955H61.8847V135.785L66.5015 133.325ZM69.459 128.535V128.705H73.5457L74.0912 126.329L73.9913 126.106L69.459 128.535ZM68.4911 132.106V132.299H72.6546L73.1463 129.947V129.754L68.4911 132.106ZM72.2936 133.325V133.618L71.7328 135.955H67.4848V135.785L72.2936 133.325Z" fill="#074D84"/>
<path d="M62.8911 132.106H66.7934L67.408 129.754H63.5286L62.8911 132.106ZM68.3682 126.106H64.5119L63.859 128.535H67.7306L68.3682 126.106ZM61.8924 135.785H65.8178L66.4708 133.325H62.5607L61.8924 135.785ZM57.2603 132.106H61.1934L61.8079 129.754H57.8979L57.2603 132.106ZM70.112 126.106L69.459 128.535H73.4305L74.0143 126.106H70.112ZM68.1608 133.325L67.4925 135.785H71.7021L72.2936 133.325H68.1608ZM60.8707 133.325H56.93L56.254 135.785H60.2178L60.8707 133.325ZM73.1463 129.754H69.1287L68.4911 132.106H72.5778L73.1463 129.754ZM62.1306 128.535L62.7681 126.106H58.8965L58.2359 128.535H62.1306Z" fill="#2C90C9"/>
<path d="M107.845 96.65C105.256 95.7399 102.437 95.4314 99.687 95.6088C95.2776 95.8942 91.0142 97.3365 86.9275 99.0179C82.8407 100.699 78.8462 102.651 74.6442 104.024C73.8837 104.27 73.0925 104.509 72.2936 104.425C71.4947 104.34 70.6881 103.869 70.4423 103.106C69.8277 101.208 72.839 99.5501 72.2398 97.645C71.8634 96.4341 70.304 96.1333 69.0365 96.1256C64.7424 96.1024 60.4559 97.0511 56.5459 98.8328V104.186C57.629 103.561 58.7506 102.998 59.9412 102.604C61.4776 102.095 63.4441 101.995 64.4274 103.275C65.6258 104.833 64.5119 107.209 65.2801 109.021C65.7256 110.078 66.7704 110.78 67.8765 111.073C68.9827 111.366 70.1427 111.297 71.2796 111.166C76.8336 110.541 82.1417 108.613 87.542 107.17C92.9423 105.728 98.6653 104.764 104.089 106.098C105.379 106.415 106.67 106.9 107.837 107.564V96.65H107.845Z" fill="#33C3DF"/>
<path d="M95.7462 120.251C95.2469 121.2 94.978 122.264 94.9473 123.329H107.845V118.886C106.593 118.948 105.348 119.01 104.096 119.071C103.682 119.095 103.213 119.095 102.913 118.794C102.714 118.593 102.644 118.3 102.621 118.015C102.468 116.233 103.735 114.505 103.367 112.762C102.967 110.857 100.862 109.878 98.9726 109.446C90.9912 107.61 82.6948 110.348 75.2511 113.773C71.7482 115.385 68.0072 117.205 64.22 116.503C62.8296 116.248 61.3931 115.547 60.817 114.243C59.8568 112.076 61.7311 109.639 61.5007 107.271C61.4623 106.839 61.3393 106.407 61.0551 106.083C60.2639 105.165 58.7813 105.612 57.7212 106.191C57.3218 106.415 56.9223 106.646 56.5382 106.885V120.12C57.5061 121.115 59.0655 121.254 60.4713 121.254C63.1446 121.246 65.8102 120.992 68.4373 120.491C75.7735 119.087 82.6487 115.786 89.9772 114.351C91.4598 114.066 93.0268 113.857 94.4557 114.359C95.8845 114.86 97.0982 116.264 96.8908 117.768C96.7756 118.678 96.1764 119.442 95.7462 120.251Z" fill="#33C3DF"/>
<path d="M58.2359 128.535V128.705H62.2227L62.868 126.329L62.7681 126.106L58.2359 128.535ZM63.859 128.535V128.705H67.8458L68.4834 126.329L68.3912 126.106L63.859 128.535ZM57.2603 132.106V132.299H61.3009L61.9155 129.947L61.8079 129.754L57.2603 132.106ZM60.8707 133.325V133.641L60.2639 135.955H56.254V135.785L60.8707 133.325ZM62.8911 132.106V132.299H66.9317L67.5462 129.947L67.4387 129.754L62.8911 132.106ZM66.5015 133.325V133.641L65.8946 135.955H61.8847V135.785L66.5015 133.325ZM69.459 128.535V128.705H73.5457L74.0912 126.329L73.9913 126.106L69.459 128.535ZM68.4911 132.106V132.299H72.6546L73.1463 129.947V129.754L68.4911 132.106ZM72.2936 133.325V133.618L71.7328 135.955H67.4848V135.785L72.2936 133.325Z" fill="#074D84"/>
<path d="M62.8911 132.106H66.7934L67.408 129.754H63.5286L62.8911 132.106ZM68.3682 126.106H64.5119L63.859 128.535H67.7306L68.3682 126.106ZM61.8924 135.785H65.8178L66.4708 133.325H62.5607L61.8924 135.785ZM57.2603 132.106H61.1934L61.8079 129.754H57.8979L57.2603 132.106ZM70.112 126.106L69.459 128.535H73.4305L74.0143 126.106H70.112ZM68.1608 133.325L67.4925 135.785H71.7021L72.2936 133.325H68.1608ZM60.8707 133.325H56.93L56.254 135.785H60.2178L60.8707 133.325ZM73.1463 129.754H69.1287L68.4911 132.106H72.5778L73.1463 129.754ZM62.1306 128.535L62.7681 126.106H58.8965L58.2359 128.535H62.1306Z" fill="#2C90C9"/>
<path d="M107.53 128.535V128.705H103.543L102.898 126.329L102.99 126.106L107.53 128.535ZM101.907 128.535V128.705H97.9201L97.2749 126.329L97.367 126.106L101.907 128.535ZM108.506 132.106V132.299H104.465L103.843 129.947L103.95 129.754L108.506 132.106ZM104.895 133.325V133.641L105.494 135.955H109.512V135.785L104.895 133.325ZM102.875 132.106V132.299H98.8343L98.2197 129.947L98.3273 129.754L102.875 132.106ZM99.2644 133.325V133.641L99.8636 135.955H103.881V135.785L99.2644 133.325ZM96.3069 128.535V128.705H92.2202L91.6748 126.329L91.767 126.106L96.3069 128.535ZM97.2749 132.106V132.299H93.1113L92.6197 129.947V129.754L97.2749 132.106ZM93.4724 133.325V133.618L94.0331 135.955H98.2812V135.785L93.4724 133.325Z" fill="#074D84"/>
<path d="M102.875 132.106H98.9726L98.3503 129.754H102.237L102.875 132.106ZM97.3901 126.106H101.246L101.907 128.535H98.0354L97.3901 126.106ZM103.874 135.785H99.9405L99.2952 133.325H103.205L103.874 135.785ZM108.506 132.106H104.573L103.95 129.754H107.86L108.506 132.106ZM95.6463 126.106L96.307 128.535H92.3278L91.7516 126.106H95.6463ZM97.6052 133.325L98.2735 135.785H94.0639L93.4724 133.325H97.6052ZM104.895 133.325H108.836L109.512 135.785H105.541L104.895 133.325ZM92.6197 129.754H96.6373L97.2749 132.106H93.1805L92.6197 129.754ZM103.635 128.535L102.99 126.106H106.869L107.53 128.535H103.635Z" fill="#2C90C9"/>
<path d="M80.083 126.106V126.352L79.5913 128.674H75.4662V128.535L80.083 126.106ZM79.3071 129.754V129.931L78.8308 132.23H74.4522V132.106L79.3071 129.754ZM80.7129 128.535L80.7513 128.674H85.3527L85.4372 128.535H80.7129ZM79.9524 132.106L80.0062 132.23H86.1363L86.1977 132.106H79.9524ZM86.0671 126.106V126.298L86.5511 128.674H90.6301L90.7223 128.535L86.0671 126.106ZM86.843 129.754L86.8046 129.97L87.3116 132.23H91.6672L91.7286 132.106L86.843 129.754Z" fill="#074D84"/>
<path d="M86.5818 128.535H90.7223L90.0309 126.106H86.0671L86.5818 128.535ZM80.7129 128.535H85.4372L84.9148 126.106H81.2276L80.7129 128.535ZM86.1977 132.106L85.6907 129.754H80.4517L79.9524 132.106H86.1977ZM86.843 129.754L87.3423 132.106H91.7286L91.068 129.754H86.843ZM79.5606 128.535L80.083 126.106H76.1576L75.4662 128.535H79.5606ZM79.3071 129.754H75.1205L74.4522 132.106H78.8001L79.3071 129.754Z" fill="#2C90C9"/>
<path d="M73.707 135.538L73.7992 135.785H92.2356L92.4123 135.538H73.707Z" fill="#074D84"/>
<path d="M92.4123 135.538H73.707L74.3523 133.325H91.9129L92.4123 135.538Z" fill="#2C90C9"/>
<path d="M94.832 82.4275C94.832 82.227 94.978 82.0573 95.0625 81.8722C95.3544 81.2166 94.832 80.399 95.1239 79.7434C95.2545 79.4503 95.5234 79.2498 95.7462 79.0184C96.0534 78.6945 96.2916 78.3088 96.5067 77.9155C96.6757 77.6147 96.8293 77.3062 97.0598 77.0516C97.2825 76.7971 97.5898 76.5889 97.9278 76.5503C98.0046 76.5426 98.0814 76.5426 98.1429 76.5811C98.212 76.6197 98.2504 76.7046 98.2812 76.774C98.381 77.0593 98.3657 77.3833 98.2351 77.6532C98.1199 77.9001 97.9048 78.1237 97.9432 78.3937C98.3273 78.2317 98.7037 78.0697 99.0878 77.9078C99.4027 77.7766 99.7253 77.6378 100.056 77.5375C100.678 77.3447 101.346 77.283 101.991 77.3524C102.114 77.3679 102.268 77.4141 102.268 77.5453C102.268 77.607 102.222 77.6687 102.176 77.7072C102.015 77.8461 101.815 77.9232 101.623 77.9926C101.108 78.1854 100.586 78.3782 100.071 78.5711C99.8713 78.6482 99.6485 78.733 99.5563 78.9259C100.363 78.7639 101.193 78.6636 102.015 78.6251C102.168 78.6173 102.329 78.6096 102.475 78.6559C102.621 78.7022 102.76 78.8102 102.798 78.9644C102.806 79.003 102.813 79.0493 102.79 79.0878C102.76 79.1495 102.691 79.1727 102.629 79.1881C102.038 79.3501 101.438 79.4503 100.832 79.5043C100.578 79.5275 100.278 79.5583 100.132 79.7666C100.808 79.7589 101.477 79.7511 102.153 79.7357C102.422 79.7357 102.744 79.7589 102.883 79.9902C102.744 80.1599 102.506 80.1908 102.291 80.2139C101.646 80.2833 101.001 80.3527 100.355 80.4299C101.016 80.5379 101.684 80.6381 102.329 80.8232C102.452 80.8618 102.614 80.9775 102.537 81.0855C102.514 81.1163 102.475 81.1317 102.445 81.1472C102.022 81.3091 101.554 81.2243 101.108 81.2706C100.44 81.34 99.8175 81.7256 99.4488 82.2887C99.3182 82.4815 99.2183 82.6975 99.034 82.8363C98.7882 83.0137 98.4579 83.0137 98.1659 83.0677C97.8356 83.1371 97.513 83.2914 97.2595 83.515C97.1673 83.5922 97.0828 83.6847 96.9676 83.7233C96.7986 83.7773 96.6142 83.6924 96.4529 83.6076C95.8768 83.2836 95.3621 82.8671 94.9319 82.3658" fill="#F2A27F"/>
<path d="M79.6528 59.8442C79.9293 60.253 80.0983 60.7312 80.2135 61.2094C80.5055 62.3895 80.5285 63.6467 80.2596 64.8344C80.0292 65.868 79.5913 66.8552 79.5375 67.9119C79.5145 68.4209 79.576 68.9377 79.6835 69.439C79.9985 70.9662 80.6591 72.4239 81.604 73.6734C82.0265 74.2364 82.5104 74.7532 82.9099 75.3394C84.4693 77.6301 84.5307 80.6767 83.7702 83.3376C82.8791 86.4613 79.43 88.3047 76.8105 89.7547C74.0758 91.2742 71.3257 92.7936 68.445 94.0122C66.3709 94.8915 64.197 95.6242 61.9539 95.7014C59.7031 95.7785 57.3601 95.1306 55.747 93.5649C54.9941 92.8322 54.418 91.9298 53.8572 91.0351C53.2657 90.0941 52.6665 89.1377 52.3285 88.0733C51.9829 86.9781 51.9291 85.8212 51.9368 84.672C51.9444 82.6589 52.1365 80.6304 52.751 78.7099C53.1428 77.4836 53.7113 76.2958 54.4795 75.2622C55.2323 74.2441 56.2155 73.4574 56.9684 72.4393C58.5355 70.326 59.5264 67.773 59.7645 65.1507C59.8567 64.1249 59.8414 63.0836 60.0104 62.0578C60.2485 60.6001 60.8784 59.1886 61.9231 58.1474C63.1215 56.9519 64.7808 56.3117 66.4554 56.0649C68.9136 55.6947 71.487 56.1035 73.7147 57.2141C74.1833 57.4455 74.6826 57.9006 75.1743 58.0625C75.6659 58.2245 76.3342 58.1242 76.8566 58.2245C77.9397 58.4327 79.0229 58.8955 79.6528 59.8442Z" fill="#89403A"/>
<path d="M68.6447 69.3002C67.6922 69.3233 66.9086 70.0561 66.3939 70.8659C65.8793 71.668 65.5413 72.5859 64.9421 73.3263C64.4658 73.9202 63.8359 74.3676 63.3059 74.9152C62.7528 75.4859 62.2995 76.1647 61.9923 76.9051C61.6927 77.6147 61.539 78.4785 61.9539 79.1264C62.192 79.4889 62.5761 79.7357 62.9679 79.9054C64.6118 80.6227 66.5937 80.2988 68.0839 79.3038C69.5742 78.3088 70.5959 76.7123 71.149 75C71.5869 73.6271 71.7098 72.0228 70.8801 70.8428C70.2886 70.0021 69.313 69.5316 68.3605 69.1768" fill="#70393C"/>
<path d="M81.604 73.6734C80.6591 72.4316 79.9985 70.9739 79.6835 69.439C79.5836 68.9377 79.5145 68.4209 79.5375 67.9119C79.5452 67.7113 79.5683 67.5108 79.6067 67.318C78.731 68.2821 77.6709 69.0765 76.4879 69.6319C74.337 70.6422 71.8096 70.8273 69.5281 70.1486C68.7446 69.9172 67.6845 69.6781 67.2774 70.3877C67.1468 70.6191 67.1237 70.8891 67.1237 71.1513C67.1084 72.7016 67.5462 74.2981 67.0776 75.779C66.7627 76.774 66.0483 77.6841 66.1328 78.7253C66.1712 79.2498 66.417 79.728 66.6551 80.1908C67.5846 82.0187 68.5602 83.9084 70.1734 85.1656C71.1567 85.9292 72.3166 86.4228 73.4612 86.901C74.4215 87.3021 75.397 87.7108 76.4341 87.8111C77.2714 87.8959 78.1164 87.7803 78.9307 87.5951C79.7373 87.4177 80.5439 87.1709 81.3197 86.847C82.449 85.8752 83.3785 84.726 83.7779 83.3222C84.5384 80.6613 84.4693 77.6147 82.9175 75.324C82.5104 74.7609 82.0265 74.2364 81.604 73.6734Z" fill="#70393C"/>
<path d="M76.9872 75.9641C76.9872 75.9641 85.0377 81.2474 88.9862 89.5233L94.156 81.6022L97.7435 83.9392L91.959 95.6397C91.959 95.6397 89.1398 97.4907 86.528 95.8942L79.1995 88.0887L76.9872 75.9641Z" fill="#B55851"/>
<path d="M65.4184 75.9641C65.4184 75.9641 71.5254 74.9075 76.9795 75.9641C76.9795 75.9641 84.0698 80.8232 80.3595 91.6984C80.3595 91.6984 79.7757 99.9897 80.7205 103.746C80.7205 103.746 81.3965 108.273 81.2199 109.515C81.2199 109.515 65.8793 110.865 61.3393 108.381C61.3393 108.381 63.4672 90.9579 63.0063 87.9268C63.014 87.9345 57.1681 82.0419 65.4184 75.9641Z" fill="#F17C6E"/>
<path d="M72.9773 109.885C73.1079 109.615 73.1232 109.291 72.9542 109.045C72.8236 108.867 72.6239 108.759 72.4242 108.674C70.8725 107.98 69.098 107.78 67.431 108.096C67.1161 108.158 66.7473 108.212 66.5322 107.98C66.1712 107.595 66.6705 107.008 67.1314 106.754C69.8508 105.258 73.0003 104.764 76.0884 104.486C76.6646 104.432 77.402 104.216 77.4097 103.646C77.4097 103.252 77.0486 102.975 76.703 102.79C75.6506 102.234 74.3754 101.926 73.6917 100.946C72.9466 99.8895 73.1924 98.37 73.9452 97.3211C74.1987 96.9663 74.5136 96.6038 74.4983 96.1719C74.4829 95.8094 74.2371 95.5008 74.0297 95.2077C72.6931 93.3027 72.6239 90.5877 73.853 88.6132L73.6226 88.459C72.5241 88.0271 71.295 88.0888 70.112 88.1659C68.9674 88.243 67.7997 88.3279 66.7166 88.7135C65.1956 89.2457 63.9281 90.3409 62.9909 91.6598C62.6376 97.7607 61.3393 108.381 61.3393 108.381C63.6208 109.623 68.5756 109.908 72.9773 109.885Z" fill="#BD5C55"/>
<path d="M70.5498 83.1294L73.1309 87.2943L77.041 76.0027C77.0025 75.9718 76.9795 75.9641 76.9795 75.9641C73.031 75.2005 68.7369 75.5399 66.6705 75.7867L70.5498 83.1294Z" fill="#DEDEDF"/>
<path d="M69.313 72.7478L68.6601 75.6325L72.0324 78.224L74.3293 75.7404C74.3293 75.7404 73.5995 74.167 73.6379 73.0409L69.313 72.7478Z" fill="#F2A27F"/>
<path d="M65.4184 75.9641C65.4184 75.9641 60.5711 77.391 57.46 84.2169L52.9124 94.0045L57.7289 96.0947L65.1802 84.7568L65.4184 75.9641Z" fill="#F17C6E"/>
<path d="M77.8245 76.6814C77.4481 76.3112 77.1562 76.0875 77.041 76.0027C76.2036 77.7535 73.5381 83.5844 73.1309 87.4949C73.1309 87.4949 76.0884 83.7387 76.7567 83.2219L76.4956 80.5456L78.0857 79.5043C78.0857 79.4966 78.0857 77.8846 77.8245 76.6814ZM66.7089 75.7867C66.563 75.8022 66.4324 75.8176 66.3095 75.833C65.9407 77.0285 66.4785 79.8514 66.4785 79.8514L68.3067 80.6381L68.5756 83.5073C69.3591 83.9161 73.1309 87.2943 73.1309 87.2943C71.8865 83.0908 67.7152 77.175 66.7089 75.7867Z" fill="#B55851"/>
<path d="M62.1075 83.9469C62.2611 83.9855 73.9375 86.5693 73.9375 86.5693C73.9375 86.5693 74.9745 87.0321 74.6673 88.2276L70.5191 103.576L58.6891 100.375L62.1075 83.9469Z" fill="#3F6B83"/>
<path d="M62.53 84.4097L73.2077 86.9164C73.2077 86.9164 74.7441 87.9191 73.2077 87.6877L62.9909 85.5666L59.6186 100.63L58.9272 100.445L62.53 84.4097Z" fill="#DEDEDF"/>
<path d="M66.0099 98.5551C66.947 98.37 67.408 97.1822 68.3375 96.9509C68.5449 96.8969 68.76 96.9046 68.975 96.8892C69.4667 96.8583 69.9506 96.7503 70.4039 96.5652C70.5498 96.5035 70.6958 96.4341 70.8571 96.4264C71.0184 96.4187 71.1874 96.4804 71.2642 96.6192C71.3334 96.7658 71.2796 96.9509 71.1644 97.0665C71.0491 97.1822 70.8955 97.2517 70.7495 97.3134C70.4115 97.4522 70.0812 97.591 69.7432 97.7299C69.5973 97.7916 69.4283 97.8918 69.4513 98.0461C69.4667 98.1926 69.6434 98.2543 69.7893 98.2852C70.2272 98.3623 70.6804 98.3777 71.126 98.3932C71.4716 98.4086 71.8404 98.4317 72.1246 98.64C72.4011 98.8482 72.5087 99.3187 72.2475 99.5424C72.1323 99.6426 71.9325 99.7275 71.9633 99.8817C71.9786 99.9589 72.0478 100.005 72.0862 100.067C72.1937 100.221 72.1476 100.445 72.0324 100.591C71.9095 100.738 71.7328 100.823 71.5638 100.892C71.6714 101.016 71.7866 101.139 71.8404 101.293C71.8941 101.447 71.8711 101.64 71.7405 101.741C71.679 101.795 71.5869 101.818 71.5331 101.872C71.3718 102.026 71.464 102.296 71.4102 102.512C71.3641 102.697 71.2028 102.836 71.0261 102.897C70.8494 102.967 70.6574 102.975 70.473 102.982C69.4744 103.029 68.4373 103.059 67.5309 102.635C67.0392 102.404 66.6167 102.041 66.2096 101.694C66.0483 101.555 65.8793 101.417 65.7871 101.224C65.7103 101.07 65.6949 100.9 65.6795 100.722C65.6258 99.9435 65.7717 99.1413 66.0867 98.4317" fill="#FBC0A4"/>
<path d="M52.9124 94.0045C52.9354 93.966 66.4016 98.2543 66.4016 98.2543L65.7871 102.034L52.9124 98.5243C52.9124 98.5243 51.714 96.0793 52.9124 94.0045Z" fill="#F17C6E"/>
<path d="M77.0563 62.8908C77.0563 62.8908 78.6541 72.0923 72.9081 74.2441C72.9081 74.2441 67.0162 75.779 66.8011 66.7241C66.8011 66.7241 68.4757 58.2554 77.0563 62.8908Z" fill="#FBC0A4"/>
<path d="M74.721 62.7442C74.721 62.7442 71.295 66.485 66.4016 67.4182C66.4016 67.4182 64.2507 66.2459 66.4016 62.7442C66.4016 62.7442 71.341 59.528 74.721 60.816C74.721 60.816 77.8629 61.4562 77.7477 64.7882C77.7554 64.7882 75.4201 64.202 74.721 62.7442Z" fill="#89403A"/>
<path d="M67.1621 67.3797C67.1621 67.3797 65.7103 66.3924 65.4184 68.0739C65.4184 68.0739 65.4875 71.1744 67.5616 70.5574L67.1621 67.3797Z" fill="#FBC0A4"/>
<path d="M61.347 108.389L57.7903 123.337H79.7526C80.5823 118.154 81.7192 110.394 81.2275 109.523L61.347 108.389Z" fill="#3F6B83"/>
<path d="M68.13 113.449C68.952 112.824 69.943 112.461 70.9185 112.122C73.684 111.15 76.4648 110.248 79.2764 109.407L61.347 108.389L57.7903 123.337H62.5146C62.8373 122.735 63.2444 122.172 63.7207 121.686C65.6642 119.704 68.5756 119.01 70.6958 117.22C71.0491 116.919 71.4102 116.472 71.2489 116.033C71.0952 115.624 70.5882 115.516 70.158 115.462C69.5665 115.385 68.975 115.315 68.3835 115.238C68.1224 115.207 67.8381 115.161 67.6538 114.976C67.2313 114.536 67.6538 113.811 68.13 113.449Z" fill="#325363"/>
</svg>