<svg width="105" height="24" viewBox="0 0 105 24" fill="none" xmlns="http://www.w3.org/2000/svg">
<path d="M11.4131 23.32C9.06646 23.32 7.05046 22.8507 5.36513 21.912C3.70113 20.952 2.42113 19.608 1.52513 17.88C0.629125 16.1307 0.181125 14.072 0.181125 11.704C0.181125 9.93333 0.437125 8.344 0.949125 6.936C1.46113 5.50667 2.19713 4.29067 3.15712 3.288C4.11713 2.264 5.29046 1.48533 6.67712 0.952C8.08513 0.397333 9.66379 0.119999 11.4131 0.119999C12.5865 0.119999 13.7385 0.269332 14.8691 0.567999C15.9998 0.866666 16.9918 1.29333 17.8451 1.848C18.2931 2.12533 18.5918 2.46667 18.7411 2.872C18.8905 3.256 18.9225 3.64 18.8371 4.024C18.7518 4.38667 18.5705 4.696 18.2931 4.952C18.0371 5.208 17.7065 5.35733 17.3011 5.4C16.9171 5.42133 16.4905 5.28267 16.0211 4.984C15.3598 4.55733 14.6451 4.248 13.8771 4.056C13.1091 3.864 12.3305 3.768 11.5411 3.768C10.0265 3.768 8.74646 4.07733 7.70113 4.696C6.65579 5.31467 5.86646 6.21067 5.33313 7.384C4.79979 8.55733 4.53313 9.99733 4.53313 11.704C4.53313 13.3893 4.79979 14.8293 5.33313 16.024C5.86646 17.2187 6.65579 18.1253 7.70113 18.744C8.74646 19.3627 10.0265 19.672 11.5411 19.672C12.3518 19.672 13.1518 19.576 13.9411 19.384C14.7305 19.1707 15.4771 18.8507 16.1811 18.424C16.6505 18.1467 17.0665 18.0293 17.4291 18.072C17.8131 18.0933 18.1331 18.2213 18.3891 18.456C18.6451 18.6907 18.8158 18.9893 18.9011 19.352C18.9865 19.6933 18.9651 20.056 18.8371 20.44C18.7091 20.8027 18.4531 21.1227 18.0691 21.4C17.2158 22.0187 16.1918 22.4987 14.9971 22.84C13.8238 23.16 12.6291 23.32 11.4131 23.32ZM27.8551 23.32C26.7031 23.32 25.5085 23.1707 24.2711 22.872C23.0338 22.5733 21.9565 22.1253 21.0391 21.528C20.6125 21.2507 20.3245 20.9307 20.1751 20.568C20.0258 20.2053 19.9831 19.864 20.0471 19.544C20.1325 19.2027 20.2925 18.9147 20.5271 18.68C20.7831 18.4453 21.0925 18.3067 21.4551 18.264C21.8391 18.2213 22.2551 18.3173 22.7031 18.552C23.5778 19.0213 24.4205 19.3627 25.2311 19.576C26.0418 19.768 26.8738 19.864 27.7271 19.864C28.6658 19.864 29.4551 19.736 30.0951 19.48C30.7351 19.224 31.2151 18.84 31.5351 18.328C31.8765 17.816 32.0471 17.1973 32.0471 16.472C32.0471 15.4053 31.6845 14.616 30.9591 14.104C30.2551 13.5707 29.2205 13.304 27.8551 13.304H25.8071C25.2098 13.304 24.7511 13.1547 24.4311 12.856C24.1325 12.5573 23.9831 12.1413 23.9831 11.608C23.9831 11.0747 24.1325 10.6587 24.4311 10.36C24.7511 10.0613 25.2098 9.912 25.8071 9.912H27.4711C28.2818 9.912 28.9751 9.784 29.5511 9.528C30.1271 9.25067 30.5751 8.86667 30.8951 8.376C31.2151 7.88533 31.3751 7.288 31.3751 6.584C31.3751 5.60267 31.0445 4.856 30.3831 4.344C29.7431 3.832 28.8045 3.576 27.5671 3.576C26.7778 3.576 26.0311 3.672 25.3271 3.864C24.6445 4.03467 23.8871 4.36533 23.0551 4.856C22.6711 5.09067 22.2978 5.18667 21.9351 5.144C21.5938 5.10133 21.3058 4.96267 21.0711 4.728C20.8365 4.49333 20.6765 4.216 20.5911 3.896C20.5058 3.55467 20.5271 3.21333 20.6551 2.872C20.7831 2.50933 21.0498 2.2 21.4551 1.944C22.3725 1.34667 23.3858 0.898665 24.4951 0.599998C25.6045 0.279999 26.7458 0.119999 27.9191 0.119999C29.4765 0.119999 30.8098 0.365332 31.9191 0.855999C33.0285 1.32533 33.8711 2.008 34.4471 2.904C35.0445 3.77867 35.3431 4.84533 35.3431 6.104C35.3431 7 35.1725 7.82133 34.8311 8.568C34.4898 9.29333 34.0098 9.912 33.3911 10.424C32.7725 10.936 32.0258 11.2987 31.1511 11.512V11.128C32.6871 11.384 33.8818 12.024 34.7351 13.048C35.5885 14.0507 36.0151 15.3093 36.0151 16.824C36.0151 18.1467 35.6845 19.2987 35.0231 20.28C34.3618 21.2613 33.4231 22.0187 32.2071 22.552C30.9911 23.064 29.5405 23.32 27.8551 23.32ZM80.3076 23.32C78.537 23.32 77.0116 22.9893 75.7316 22.328C74.4516 21.6667 73.4596 20.728 72.7556 19.512C72.073 18.296 71.7316 16.856 71.7316 15.192C71.7316 13.5707 72.0623 12.152 72.7236 10.936C73.4063 9.72 74.3343 8.77067 75.5076 8.088C76.7023 7.384 78.057 7.032 79.5716 7.032C80.681 7.032 81.673 7.21333 82.5476 7.576C83.4436 7.93867 84.201 8.46133 84.8196 9.144C85.4596 9.82667 85.9396 10.6587 86.2596 11.64C86.601 12.6 86.7716 13.688 86.7716 14.904C86.7716 15.288 86.633 15.5867 86.3556 15.8C86.0996 15.992 85.7263 16.088 85.2356 16.088H74.9636V13.784H83.9556L83.4436 14.264C83.4436 13.2827 83.2943 12.4613 82.9956 11.8C82.7183 11.1387 82.3023 10.6373 81.7476 10.296C81.2143 9.93333 80.5423 9.752 79.7316 9.752C78.8356 9.752 78.0676 9.96533 77.4276 10.392C76.809 10.7973 76.329 11.384 75.9876 12.152C75.6676 12.8987 75.5076 13.7947 75.5076 14.84V15.064C75.5076 16.8133 75.913 18.1253 76.7236 19C77.5556 19.8533 78.7716 20.28 80.3716 20.28C80.9263 20.28 81.545 20.216 82.2276 20.088C82.9316 19.9387 83.593 19.6933 84.2116 19.352C84.6596 19.096 85.0543 18.9893 85.3956 19.032C85.737 19.0533 86.0036 19.1707 86.1956 19.384C86.409 19.5973 86.537 19.864 86.5796 20.184C86.6223 20.4827 86.5583 20.792 86.3876 21.112C86.2383 21.432 85.9716 21.7093 85.5876 21.944C84.841 22.4133 83.977 22.7653 82.9956 23C82.0356 23.2133 81.1396 23.32 80.3076 23.32ZM97.4634 23.32C96.1407 23.32 94.978 22.9893 93.9754 22.328C92.994 21.6667 92.3434 20.7813 92.0234 19.672L92.3754 18.872V21.208C92.3754 21.8693 92.2047 22.3813 91.8634 22.744C91.522 23.0853 91.042 23.256 90.4234 23.256C89.7834 23.256 89.2927 23.0853 88.9514 22.744C88.61 22.3813 88.4394 21.8693 88.4394 21.208V2.2C88.4394 1.53867 88.61 1.03733 88.9514 0.695999C89.2927 0.354665 89.7834 0.183998 90.4234 0.183998C91.0634 0.183998 91.554 0.354665 91.8954 0.695999C92.258 1.03733 92.4394 1.53867 92.4394 2.2V10.52H92.0554C92.3967 9.47467 93.058 8.632 94.0394 7.992C95.0207 7.352 96.162 7.032 97.4634 7.032C98.85 7.032 100.055 7.36267 101.079 8.024C102.103 8.68533 102.903 9.624 103.479 10.84C104.055 12.0347 104.343 13.4747 104.343 15.16C104.343 16.824 104.055 18.2747 103.479 19.512C102.903 20.728 102.093 21.6667 101.047 22.328C100.023 22.9893 98.8287 23.32 97.4634 23.32ZM96.3434 20.28C97.1327 20.28 97.826 20.088 98.4234 19.704C99.0207 19.32 99.4794 18.7547 99.7994 18.008C100.141 17.24 100.311 16.2907 100.311 15.16C100.311 13.4533 99.9487 12.184 99.2234 11.352C98.498 10.4987 97.538 10.072 96.3434 10.072C95.554 10.072 94.8607 10.264 94.2634 10.648C93.666 11.0107 93.1967 11.576 92.8554 12.344C92.5354 13.0907 92.3754 14.0293 92.3754 15.16C92.3754 16.8453 92.738 18.1253 93.4634 19C94.1887 19.8533 95.1487 20.28 96.3434 20.28Z" fill="#212121"/>
<path d="M46.7906 23.256C46.2146 23.256 45.7453 23.1173 45.3826 22.84C45.0413 22.5627 44.764 22.1253 44.5506 21.528L37.8626 2.616C37.628 1.93333 37.6706 1.35733 37.9906 0.887999C38.332 0.418665 38.8973 0.183998 39.6866 0.183998C40.2626 0.183998 40.7106 0.322665 41.0306 0.599998C41.3506 0.855999 41.6066 1.272 41.7986 1.848L47.5586 18.936H46.2786L52.2946 1.88C52.508 1.304 52.7746 0.877332 53.0946 0.599998C53.4146 0.322665 53.8306 0.183998 54.3426 0.183998C54.8546 0.183998 55.26 0.322665 55.5586 0.599998C55.8573 0.877332 56.1133 1.31467 56.3266 1.912L62.1506 18.936H61.0306L66.8866 1.848C67.0786 1.29333 67.3346 0.877332 67.6546 0.599998C67.9746 0.322665 68.412 0.183998 68.9666 0.183998C69.6493 0.183998 70.1506 0.418665 70.4706 0.887999C70.7906 1.35733 70.8333 1.93333 70.5986 2.616L63.8466 21.56C63.6333 22.136 63.356 22.5627 63.0146 22.84C62.6733 23.1173 62.2146 23.256 61.6386 23.256C61.0626 23.256 60.604 23.1173 60.2626 22.84C59.9213 22.5627 59.644 22.1253 59.4306 21.528L53.8626 5.656H54.5986L48.9666 21.56C48.7533 22.136 48.476 22.5627 48.1346 22.84C47.8146 23.1173 47.3666 23.256 46.7906 23.256Z" fill="#449EDA"/>
</svg>
