<svg xmlns="http://www.w3.org/2000/svg" width="1693" height="760" viewBox="0 0 1693 760"
    version="1.1">
    <path
        d="M 101.817 272.291 C 14.135 345.500, 14.135 345.500, 14.102 392.500 C 14.069 439.500, 14.069 439.500, 101.525 512.497 C 149.626 552.645, 189.436 585.645, 189.991 585.830 C 190.660 586.053, 191 569.990, 191 538.106 C 191 490.046, 191 490.046, 125 443 C 59.898 396.594, 59 395.908, 59 392.564 C 59 389.219, 59.866 388.560, 124.937 342.337 C 190.874 295.500, 190.874 295.500, 190.937 247.250 C 190.972 220.712, 190.662 199.019, 190.250 199.041 C 189.838 199.064, 150.043 232.027, 101.817 272.291 M 1503 247.217 C 1503 295.533, 1503 295.533, 1567.053 342.383 C 1631.107 389.233, 1631.107 389.233, 1630.803 392.802 C 1630.507 396.286, 1629 397.466, 1566.780 442.935 C 1503.059 489.500, 1503.059 489.500, 1503.030 537.750 C 1503.013 564.288, 1503.216 586, 1503.479 586 C 1503.742 586, 1543.567 552.897, 1591.979 512.438 C 1680 438.877, 1680 438.877, 1680 392.583 C 1680 346.290, 1680 346.290, 1592.821 273.395 C 1544.872 233.303, 1505.047 200.140, 1504.321 199.700 C 1503.234 199.042, 1503 207.448, 1503 247.217 M 1262 368.420 C 1262 467.841, 1262 467.841, 1268.750 468.670 C 1272.463 469.127, 1286.300 469.500, 1299.500 469.500 C 1321.194 469.500, 1324.365 469.281, 1332.500 467.218 C 1337.450 465.963, 1345.729 462.882, 1350.898 460.373 C 1358.700 456.586, 1361.780 454.340, 1369.026 447.156 C 1376.478 439.765, 1378.417 437.111, 1382.288 429 C 1389.313 414.280, 1390.464 408.502, 1390.455 388 C 1390.448 374.237, 1390.062 369.112, 1388.646 364 C 1381.355 337.684, 1363.500 324, 1336.453 324 C 1322.496 324, 1317.134 325.735, 1310.457 332.413 C 1305.398 337.472, 1304.556 339.177, 1301.403 350.750 C 1301.216 351.438, 1300.599 352, 1300.031 352 C 1299.339 352, 1299 338.342, 1299 310.500 C 1299 269, 1299 269, 1280.500 269 C 1262 269, 1262 269, 1262 368.420 M 926 279.700 C 926 281.044, 945.030 458.538, 945.626 462.750 C 946.227 467, 946.227 467, 970.412 467 C 994.596 467, 994.596 467, 999.423 418.750 C 1003.916 373.838, 1005.616 359.587, 1005.894 364.500 C 1005.956 365.600, 1008.256 388.538, 1011.004 415.474 C 1013.752 442.409, 1016 465.022, 1016 465.724 C 1016 466.724, 1021.296 467, 1040.500 467 C 1055.672 467, 1065 466.630, 1065 466.029 C 1065 464.538, 1083.853 288.081, 1084.528 283.250 C 1085.123 279, 1085.123 279, 1067.276 279 C 1049.429 279, 1049.429 279, 1044.139 352.250 C 1037.981 437.518, 1038.120 436, 1036.475 436 C 1035.642 436, 1034.825 432.744, 1034.028 426.250 C 1033.369 420.887, 1030.281 396.250, 1027.165 371.500 C 1021.500 326.500, 1021.500 326.500, 1005.510 326.500 C 989.519 326.500, 989.519 326.500, 982.523 381.250 C 977.657 419.326, 975.160 436, 974.324 436 C 972.642 436, 972.607 435.621, 966.994 356.500 C 964.223 317.450, 961.721 284.038, 961.433 282.250 C 960.909 279, 960.909 279, 943.455 279 C 933.855 279, 926 279.315, 926 279.700 M 1144.788 325.551 C 1129.216 329.327, 1114.544 341, 1107.616 355.125 C 1101.218 368.169, 1099.669 376.050, 1099.582 396 C 1099.514 411.432, 1099.777 414.440, 1101.806 421.455 C 1107.255 440.298, 1118.498 454.340, 1134.154 461.857 C 1147.755 468.387, 1151.955 469.195, 1175 469.717 C 1190.098 470.059, 1198.631 469.772, 1207.381 468.627 C 1213.915 467.772, 1219.495 466.838, 1219.781 466.553 C 1220.310 466.024, 1217.219 432.885, 1216.581 432.248 C 1216.389 432.056, 1210.892 432.640, 1204.366 433.546 C 1187.581 435.876, 1165.718 435.205, 1157.798 432.116 C 1151.138 429.519, 1142.730 422.352, 1139.950 416.902 C 1138.878 414.800, 1138 412.837, 1138 412.540 C 1138 412.243, 1157.752 412, 1181.893 412 C 1220.995 412, 1225.852 411.827, 1226.393 410.418 C 1227.862 406.589, 1226.945 380.362, 1225.014 371 C 1220.069 347.023, 1205.007 330.749, 1182.947 325.549 C 1174.784 323.625, 1152.728 323.626, 1144.788 325.551 M 1151.168 360.603 C 1143.757 364.296, 1138.291 372.346, 1136.468 382.250 C 1135.777 386, 1135.777 386, 1163.528 386 C 1191.279 386, 1191.279 386, 1190.687 381.001 C 1188.892 365.845, 1180.007 358.064, 1164.446 358.022 C 1157.747 358.004, 1155.514 358.438, 1151.168 360.603 M 1316.994 359.934 C 1310.135 362.021, 1304.866 366.426, 1301.364 373 C 1299.690 376.143, 1299.469 379.491, 1299.194 405.860 C 1298.888 435.219, 1298.888 435.219, 1310.194 434.734 C 1323.048 434.182, 1326.325 433.360, 1333.967 428.768 C 1344.840 422.235, 1351.399 410.767, 1352.850 395.756 C 1354.663 377.011, 1349.950 365.218, 1338.782 360.553 C 1334.854 358.912, 1321.592 358.536, 1316.994 359.934"
        stroke="none" fill="#3c94cc" fill-rule="evenodd" />
    <path
        d="M 353.209 325.556 C 343.354 328.209, 336.806 332.032, 329.470 339.420 C 318.108 350.862, 313.124 362.871, 310.892 384.186 C 308.004 411.773, 315.095 436.139, 330.484 451.505 C 338.089 459.098, 345.471 463.510, 356.500 467.053 C 366.072 470.129, 394.388 470.940, 409.915 468.584 C 415.643 467.715, 420.473 466.860, 420.647 466.686 C 421.208 466.125, 418.811 453.999, 418.143 454.017 C 417.789 454.027, 413.450 454.700, 408.500 455.514 C 395.194 457.700, 375.159 457.470, 365.585 455.022 C 342.401 449.092, 328.164 432.005, 324.534 405.750 C 323.877 401, 323.877 401, 375.367 401 C 426.856 401, 426.856 401, 427.552 395.432 C 428.483 387.977, 427.252 373.305, 424.934 364.244 C 419.897 344.547, 406.353 330.372, 387.869 325.453 C 380.859 323.587, 360.296 323.648, 353.209 325.556 M 484.108 328.930 C 483.499 331.773, 483 334.702, 483 335.439 C 483 336.504, 487.478 336.882, 504.750 337.274 C 527.072 337.781, 531.403 338.431, 541.128 342.732 C 550.541 346.896, 557.504 355.719, 560.602 367.408 C 561.317 370.108, 562.217 376.595, 562.600 381.823 C 563.242 390.566, 563.160 391.275, 561.576 390.667 C 560.628 390.304, 552.290 389.503, 543.047 388.888 C 494.198 385.636, 470.414 397.012, 465.967 425.754 C 463.898 439.129, 467.205 450.970, 475.261 459.026 C 483.279 467.044, 492.637 470, 510 470 C 517.138 470, 523.866 469.413, 527.540 468.468 C 543.005 464.494, 556.704 454.731, 561.117 444.538 C 562.428 441.511, 563.787 439.026, 564.139 439.017 C 564.490 439.008, 564.945 445.493, 565.151 453.429 C 565.356 461.364, 565.746 468.079, 566.018 468.351 C 566.290 468.623, 574.159 468.543, 583.506 468.173 C 600.500 467.500, 600.500 467.500, 600.799 462.902 C 601.097 458.304, 601.097 458.304, 592.799 457.658 C 588.234 457.303, 582.587 457.009, 580.250 457.006 C 576 457, 576 457, 576 416.088 C 576 370.131, 575.451 364.693, 569.557 352.282 C 563.399 339.315, 552.903 331.314, 536.144 326.809 C 529.942 325.142, 524.419 324.661, 506.858 324.259 C 485.217 323.762, 485.217 323.762, 484.108 328.930 M 677.665 325.097 C 656.664 328.166, 643.595 335.032, 638.044 345.914 C 635.191 351.505, 633.789 361.617, 634.990 367.945 C 636.387 375.312, 638.764 379.826, 643.971 385 C 651.049 392.033, 659.658 395.532, 687.060 402.515 C 700.586 405.962, 713.644 409.779, 716.077 410.997 C 722.868 414.398, 727.842 419.728, 729.530 425.414 C 731.273 431.281, 731.335 433.252, 729.940 438.277 C 726.309 451.352, 711.125 456.963, 679.301 456.987 C 664.441 456.998, 643.941 455.271, 636.325 453.365 C 634.376 452.877, 634.079 453.324, 633.471 457.660 C 632.199 466.730, 631.992 466.264, 638 467.856 C 642.227 468.976, 650.673 469.326, 674.500 469.367 C 703.578 469.418, 705.996 469.284, 713.500 467.196 C 724.923 464.018, 731.257 460.620, 736.382 454.920 C 742.634 447.966, 744.334 442.291, 743.801 430.153 C 743.295 418.627, 740.830 412.863, 733.525 406.130 C 726.199 399.377, 716.924 395.653, 692.021 389.467 C 668.293 383.574, 659.662 380.238, 654.102 374.815 C 643.176 364.156, 647.795 347.962, 663.430 342.112 C 675 337.783, 684.528 336.835, 713 337.179 C 739.500 337.500, 739.500 337.500, 740.171 332.004 C 740.540 328.981, 740.765 326.433, 740.671 326.340 C 738.541 324.249, 690.018 323.291, 677.665 325.097 M 778.321 330.207 C 788.290 353.933, 838.555 467.665, 839.282 468.140 C 839.850 468.511, 838.552 471.872, 836.192 476.140 C 823.101 499.814, 808.471 511.784, 787.708 515.812 C 779.007 517.500, 779.007 517.500, 779.019 522.500 C 779.037 530.247, 779.453 530.530, 788.842 529.203 C 805.638 526.827, 816.301 521.498, 827.619 509.824 C 842.803 494.161, 847.855 483.929, 883.578 396.500 C 911.771 327.500, 911.771 327.500, 904.732 327.203 C 900.861 327.040, 897.340 327.265, 896.908 327.703 C 896.476 328.141, 885.248 356.175, 871.957 390 C 858.666 423.825, 847.491 452.048, 847.124 452.717 C 846.757 453.387, 834.272 425.487, 819.379 390.717 C 792.302 327.500, 792.302 327.500, 784.620 327.207 C 776.938 326.915, 776.938 326.915, 778.321 330.207 M 355.836 338.919 C 338.431 344.485, 328.133 359.261, 324.591 383.750 C 323.976 388, 323.976 388, 369.136 388 C 414.296 388, 414.296 388, 413.696 380.250 C 412.083 359.429, 402.217 344.440, 386.488 338.911 C 379.217 336.356, 363.839 336.360, 355.836 338.919 M 513.388 401.985 C 494.305 404.682, 483.951 411.482, 480.417 423.637 C 476.726 436.333, 480.732 447.595, 491 453.393 C 496.121 456.285, 497.298 456.523, 508.084 456.850 C 521.573 457.259, 528.742 455.821, 539.500 450.550 C 555.728 442.599, 563 430.484, 563 411.401 C 563 403.223, 563 403.223, 559.750 402.655 C 553.740 401.607, 519.560 401.112, 513.388 401.985"
        stroke="none" fill="#040404" fill-rule="evenodd" />
</svg>